<svg id="SvgjsSvg1140" xmlns="http://www.w3.org/2000/svg" version="1.1" xmlns:xlink="http://www.w3.org/1999/xlink" xmlns:svgjs="http://svgjs.com/svgjs" width="261" height="261"><defs id="SvgjsDefs1141"><clipPath id="SvgjsClipPath1145"><path id="SvgjsPath1144" d="M1262 7058C1262 6991.17355 1316.17355 6937 1383 6937C1449.82645 6937 1504 6991.17355 1504 7058C1504 7124.82645 1449.82645 7179 1383 7179C1316.17355 7179 1262 7124.82645 1262 7058Z " fill="#ffffff"></path></clipPath></defs><path id="SvgjsPath1142" d="M1323 7198L1323 7083L1523 7083L1523 7198Z " fill="#ffffff" fill-opacity="1" transform="matrix(1,0,0,1,-1262,-6937)"></path><path id="SvgjsPath1143" d="M1262 7058C1262 6991.17355 1316.17355 6937 1383 6937C1449.82645 6937 1504 6991.17355 1504 7058C1504 7124.82645 1449.82645 7179 1383 7179C1316.17355 7179 1262 7124.82645 1262 7058Z " fill-opacity="0" fill="#ffffff" stroke-dasharray="0" stroke-linejoin="miter" stroke-linecap="butt" stroke-opacity="1" stroke="#8cc63f" stroke-miterlimit="50" stroke-width="2" clip-path="url(&quot;#SvgjsClipPath1145&quot;)" transform="matrix(1,0,0,1,-1262,-6937)"></path><path id="SvgjsPath1146" d="M1314.73156 7156.51167L1331.31448 7158.36016L1322.14027 7171.4623Z " fill="#8cc63f" fill-opacity="1" transform="matrix(1,0,0,1,-1262,-6937)"></path></svg>