<svg id="SvgjsSvg1080" xmlns="http://www.w3.org/2000/svg" version="1.1" xmlns:xlink="http://www.w3.org/1999/xlink" xmlns:svgjs="http://svgjs.com/svgjs" width="46" height="44"><defs id="SvgjsDefs1081"></defs><path id="SvgjsPath1082" d="M302.02 3343.13L302.33 3341.32L301.02 3340.04C301 3340.02 300.97999999999996 3340 300.96999999999997 3339.98C290.95 3348.37 289.82 3361.82 289.91999999999996 3368.43C289.92999999999995 3368.6699999999996 290.10999999999996 3368.87 290.34999999999997 3368.89C290.59 3368.91 290.80999999999995 3368.75 290.84999999999997 3368.5099999999998C293.61999999999995 3354.9999999999995 298.84 3348.6099999999997 302.59999999999997 3345.66C302.08 3344.94 301.86999999999995 3344.04 302.02 3343.1299999999997ZM279.94 3337.32L278.79 3340.2000000000003C278.77000000000004 3340.2500000000005 278.74 3340.3100000000004 278.72 3340.36C283.43 3347.06 285.89000000000004 3360.7400000000002 286.87 3367.63C286.89 3367.8 287.04 3367.9100000000003 287.2 3367.9C287.36 3367.89 287.49 3367.76 287.49 3367.59C287.61 3352.73 285.35 3342.81 283.06 3336.61C283.03000000000003 3336.6200000000003 283 3336.63 282.96 3336.6400000000003ZM282.58 3333.43C282.60999999999996 3333.2999999999997 282.56 3333.16 282.46 3333.08L278.88 3330.06L279.32 3325.39C279.33 3325.2599999999998 279.26 3325.12 279.15 3325.0499999999997C279.09 3325.0199999999995 279.03 3324.9999999999995 278.96 3324.9999999999995C278.9 3324.9999999999995 278.83 3325.0199999999995 278.77 3325.0499999999997L274.81 3327.5499999999997L270.53000000000003 3325.68C270.48 3325.6699999999996 270.43 3325.66 270.39000000000004 3325.66C270.30000000000007 3325.66 270.22 3325.68 270.16 3325.74C270.05 3325.83 270.01000000000005 3325.97 270.04 3326.1L271.18 3330.65L268.09000000000003 3334.17C268.00000000000006 3334.28 267.98 3334.42 268.03000000000003 3334.55C268.08000000000004 3334.67 268.20000000000005 3334.76 268.33000000000004 3334.77L272.99000000000007 3335.09L275.37000000000006 3339.13C275.44000000000005 3339.2400000000002 275.55000000000007 3339.3 275.68000000000006 3339.3C275.69000000000005 3339.3 275.70000000000005 3339.3 275.70000000000005 3339.3C275.84000000000003 3339.29 275.96000000000004 3339.2000000000003 276.01000000000005 3339.0800000000004L277.75000000000006 3334.7200000000003L282.31000000000006 3333.7000000000003C282.44000000000005 3333.67 282.55000000000007 3333.57 282.58000000000004 3333.4300000000003ZM304.98 3343.64C304.95000000000005 3343.7799999999997 305.01 3343.91 305.12 3343.99C305.18 3344.04 305.25 3344.06 305.33 3344.06C305.38 3344.06 305.44 3344.0499999999997 305.49 3344.02L308.5 3342.43L311.52 3344.02C311.57 3344.05 311.62 3344.06 311.68 3344.06C311.75 3344.06 311.83 3344.04 311.89 3343.99C312 3343.91 312.05 3343.7799999999997 312.03 3343.64L311.46 3340.27L313.89 3337.89C313.99 3337.79 314.02 3337.65 313.97999999999996 3337.52C313.93999999999994 3337.39 313.83 3337.3 313.7 3337.28L310.33 3336.78L308.82 3333.7200000000003C308.76 3333.6000000000004 308.64 3333.5200000000004 308.5 3333.5200000000004C308.37 3333.5200000000004 308.24 3333.6000000000004 308.18 3333.7200000000003L306.68 3336.78L303.31 3337.28C303.18 3337.3 303.07 3337.3900000000003 303.02 3337.52C302.97999999999996 3337.65 303.02 3337.79 303.10999999999996 3337.89L305.54999999999995 3340.27ZM303.2 3360.12C302.84999999999997 3359.64 302.64 3359.0899999999997 302.58 3358.5299999999997C299.28 3359.4199999999996 294.33 3361.68 292.74 3367.39C292.66 3367.7 292.8 3368.0299999999997 293.09000000000003 3368.16C293.38000000000005 3368.2999999999997 293.73 3368.2 293.91 3367.94C295.64000000000004 3365.42 298.74 3362.1 303.38000000000005 3361.42C303.38000000000005 3361.41 303.38000000000005 3361.41 303.38000000000005 3361.4L303.63000000000005 3360.71ZM278.88 3355.97L278.23 3356.31L278.14000000000004 3357.0299999999997C278.11000000000007 3357.2499999999995 278.06000000000006 3357.4599999999996 278.00000000000006 3357.6699999999996C280.77000000000004 3360.8099999999995 282.80000000000007 3365.1199999999994 284.0400000000001 3368.22C284.12000000000006 3368.4199999999996 284.3500000000001 3368.54 284.56000000000006 3368.47C284.77000000000004 3368.41 284.9100000000001 3368.2 284.87000000000006 3367.98C283.7800000000001 3361.51 281.87000000000006 3357.45 280.06000000000006 3354.94C279.76000000000005 3355.36 279.36000000000007 3355.7200000000003 278.88000000000005 3355.9700000000003ZM292.33 3333.25L291.62 3333.1C291.09000000000003 3332.98 290.61 3332.74 290.21 3332.42C289.06 3335.48 288.26 3340.2200000000003 289.09999999999997 3347.35C289.15 3347.73 289.71 3347.73 289.73999999999995 3347.3399999999997C290.04999999999995 3344.0299999999997 290.85999999999996 3338.6899999999996 292.90999999999997 3334.4999999999995C292.78999999999996 3334.3199999999997 292.68999999999994 3334.1299999999997 292.60999999999996 3333.9299999999994ZM313.05 3359.01L310.86 3358.2900000000004L310.2 3356.0700000000006C310.15999999999997 3355.9400000000005 310.06 3355.850000000001 309.92 3355.8200000000006C309.90000000000003 3355.8200000000006 309.88 3355.8200000000006 309.86 3355.8200000000006C309.75 3355.8200000000006 309.64 3355.870000000001 309.57 3355.9700000000007L308.21999999999997 3357.8400000000006L305.91999999999996 3357.7800000000007L305.90999999999997 3357.7800000000007C305.78 3357.7800000000007 305.65999999999997 3357.850000000001 305.59 3357.9700000000007C305.53 3358.0900000000006 305.53999999999996 3358.2400000000007 305.61999999999995 3358.350000000001L306.97999999999996 3360.2200000000007L306.21 3362.4000000000005C306.15999999999997 3362.5300000000007 306.2 3362.6700000000005 306.28999999999996 3362.7700000000004C306.35999999999996 3362.8400000000006 306.45 3362.8800000000006 306.53999999999996 3362.8800000000006C306.58 3362.8800000000006 306.61999999999995 3362.8700000000003 306.65 3362.8600000000006L308.84999999999997 3362.140000000001L310.66999999999996 3363.5500000000006C310.73999999999995 3363.600000000001 310.80999999999995 3363.620000000001 310.89 3363.620000000001C310.94 3363.620000000001 311 3363.6100000000006 311.05 3363.5900000000006C311.17 3363.5300000000007 311.25 3363.4000000000005 311.25 3363.2700000000004L311.25 3360.9500000000003L313.14 3359.6400000000003C313.25 3359.5600000000004 313.31 3359.4300000000003 313.28999999999996 3359.2900000000004C313.27 3359.1600000000003 313.17999999999995 3359.0500000000006 313.04999999999995 3359.01ZM277.68 3352.97C277.68 3352.8399999999997 277.6 3352.7099999999996 277.48 3352.66L275.39000000000004 3351.68L275.01000000000005 3349.39C274.99000000000007 3349.2599999999998 274.89000000000004 3349.15 274.77000000000004 3349.1099999999997C274.73 3349.0999999999995 274.70000000000005 3349.0999999999995 274.66 3349.0999999999995C274.57000000000005 3349.0999999999995 274.47 3349.1399999999994 274.40000000000003 3349.2099999999996L272.83000000000004 3350.8999999999996L270.55000000000007 3350.5599999999995C270.5300000000001 3350.5499999999993 270.5200000000001 3350.5499999999993 270.50000000000006 3350.5499999999993C270.38000000000005 3350.5499999999993 270.27000000000004 3350.609999999999 270.21000000000004 3350.709999999999C270.13000000000005 3350.8199999999993 270.12000000000006 3350.959999999999 270.19000000000005 3351.079999999999L271.30000000000007 3353.109999999999L270.2700000000001 3355.1799999999994C270.2100000000001 3355.2999999999993 270.2300000000001 3355.4499999999994 270.3100000000001 3355.5499999999993C270.3800000000001 3355.649999999999 270.48000000000013 3355.6999999999994 270.5900000000001 3355.6999999999994C270.61000000000007 3355.6999999999994 270.6400000000001 3355.689999999999 270.6600000000001 3355.689999999999L272.9200000000001 3355.249999999999L274.56000000000006 3356.869999999999C274.63000000000005 3356.939999999999 274.7200000000001 3356.979999999999 274.81000000000006 3356.979999999999C274.8500000000001 3356.979999999999 274.89000000000004 3356.969999999999 274.93000000000006 3356.959999999999C275.06000000000006 3356.909999999999 275.1500000000001 3356.7999999999993 275.1700000000001 3356.659999999999L275.45000000000005 3354.369999999999L277.49000000000007 3353.299999999999C277.61000000000007 3353.2299999999987 277.69000000000005 3353.1099999999988 277.68000000000006 3352.969999999999ZM293.86 3328.03L292.1 3329.53C292 3329.6200000000003 291.95000000000005 3329.76 291.99 3329.8900000000003C292.02 3330.0200000000004 292.12 3330.1200000000003 292.25 3330.1500000000005L294.51 3330.6400000000003L295.38 3332.78C295.43 3332.9100000000003 295.55 3333 295.69 3333C295.69 3333.01 295.7 3333.01 295.71 3333.01C295.84 3333.01 295.95 3332.94 296.02 3332.8300000000004L297.18 3330.8300000000004L299.47 3330.6500000000005C299.61 3330.6400000000003 299.73 3330.5600000000004 299.78000000000003 3330.4300000000007C299.83000000000004 3330.3000000000006 299.8 3330.1600000000008 299.71000000000004 3330.060000000001L298.18000000000006 3328.330000000001L298.7200000000001 3326.080000000001C298.75000000000006 3325.9500000000007 298.7100000000001 3325.810000000001 298.6000000000001 3325.730000000001C298.5400000000001 3325.670000000001 298.4600000000001 3325.640000000001 298.38000000000005 3325.640000000001C298.33000000000004 3325.640000000001 298.28000000000003 3325.650000000001 298.2300000000001 3325.670000000001L296.12000000000006 3326.610000000001L294.1600000000001 3325.3900000000012C294.11000000000007 3325.360000000001 294.0400000000001 3325.340000000001 293.9800000000001 3325.340000000001C293.9100000000001 3325.340000000001 293.8500000000001 3325.360000000001 293.7900000000001 3325.3900000000012C293.6700000000001 3325.470000000001 293.61000000000007 3325.6000000000013 293.62000000000006 3325.7300000000014Z " fill="#ffffff" fill-opacity="1" transform="matrix(1,0,0,1,-268,-3325)"></path></svg>