<svg id="SvgjsSvg1089" xmlns="http://www.w3.org/2000/svg" version="1.1" xmlns:xlink="http://www.w3.org/1999/xlink" xmlns:svgjs="http://svgjs.com/svgjs" width="60" height="64"><defs id="SvgjsDefs1090"></defs><path id="SvgjsPath1091" d="M442.57 6857.06C442.57 6856.4800000000005 442.09 6856 441.5 6856L435.07 6856C434.48 6856 434 6856.48 434 6857.06C434 6857.650000000001 434.48 6858.13 435.07 6858.13L441.5 6858.13C442.09 6858.13 442.57 6857.650000000001 442.57 6857.06Z " fill="#000000" fill-opacity="1" transform="matrix(1,0,0,1,-398,-6818)"></path><path id="SvgjsPath1092" d="M439.14 6829.39L439.14 6824.06C439.14 6823.4800000000005 438.65999999999997 6823 438.07 6823C437.48 6823 437 6823.48 437 6824.06L437 6829.39C437 6832.320000000001 439.4 6834.71 442.36 6834.71L452 6834.71L452 6854.94C452 6855.53 452.48 6856 453.07 6856C453.65999999999997 6856 454.14 6855.53 454.14 6854.94L454.14 6833.65C454.14 6833.0599999999995 453.65999999999997 6832.58 453.07 6832.58L442.36 6832.58C440.58000000000004 6832.58 439.14 6831.15 439.14 6829.39Z " fill="#000000" fill-opacity="1" transform="matrix(1,0,0,1,-398,-6818)"></path><path id="SvgjsPath1093" d="M441.64 6843L433.07 6843C432.48 6843 432 6843.48 432 6844.06C432 6844.650000000001 432.48 6845.13 433.07 6845.13L441.64 6845.13C442.22999999999996 6845.13 442.71 6844.650000000001 442.71 6844.06C442.71 6843.4800000000005 442.22999999999996 6843 441.64 6843Z " fill="#000000" fill-opacity="1" transform="matrix(1,0,0,1,-398,-6818)"></path><path id="SvgjsPath1094" d="M430.57 6844.06C430.57 6843.4800000000005 430.09 6843 429.5 6843L423.07 6843C422.48 6843 422 6843.48 422 6844.06C422 6844.650000000001 422.48 6845.13 423.07 6845.13L429.5 6845.13C430.09 6845.13 430.57 6844.650000000001 430.57 6844.06Z " fill="#000000" fill-opacity="1" transform="matrix(1,0,0,1,-398,-6818)"></path><path id="SvgjsPath1095" d="M423.07 6850C422.48 6850 422 6850.48 422 6851.06C422 6851.650000000001 422.48 6852.13 423.07 6852.13L425.21 6852.13C425.79999999999995 6852.13 426.28 6851.650000000001 426.28 6851.06C426.28 6850.4800000000005 425.79999999999995 6850 425.21 6850Z " fill="#000000" fill-opacity="1" transform="matrix(1,0,0,1,-398,-6818)"></path><path id="SvgjsPath1096" d="M423.07 6839.13L433.78 6839.13C434.36999999999995 6839.13 434.84999999999997 6838.650000000001 434.84999999999997 6838.06C434.84999999999997 6837.4800000000005 434.36999999999995 6837 433.78 6837L423.07 6837C422.48 6837 422 6837.48 422 6838.06C422 6838.650000000001 422.48 6839.13 423.07 6839.13Z " fill="#000000" fill-opacity="1" transform="matrix(1,0,0,1,-398,-6818)"></path><path id="SvgjsPath1097" d="M429.07 6852.13L439.78 6852.13C440.36999999999995 6852.13 440.84999999999997 6851.650000000001 440.84999999999997 6851.06C440.84999999999997 6850.4800000000005 440.36999999999995 6850 439.78 6850L429.07 6850C428.48 6850 428 6850.48 428 6851.06C428 6851.650000000001 428.48 6852.13 429.07 6852.13Z " fill="#000000" fill-opacity="1" transform="matrix(1,0,0,1,-398,-6818)"></path><path id="SvgjsPath1098" d="M435.07 6862C434.48 6862 434 6862.48 434 6863.06C434 6863.650000000001 434.48 6864.13 435.07 6864.13L437.21 6864.13C437.79999999999995 6864.13 438.28 6863.650000000001 438.28 6863.06C438.28 6862.4800000000005 437.79999999999995 6862 437.21 6862Z " fill="#000000" fill-opacity="1" transform="matrix(1,0,0,1,-398,-6818)"></path><path id="SvgjsPath1099" d="M431.64 6856L423.07 6856C422.48 6856 422 6856.48 422 6857.06C422 6857.650000000001 422.48 6858.13 423.07 6858.13L431.64 6858.13C432.22999999999996 6858.13 432.71 6857.650000000001 432.71 6857.06C432.71 6856.4800000000005 432.22999999999996 6856 431.64 6856Z " fill="#000000" fill-opacity="1" transform="matrix(1,0,0,1,-398,-6818)"></path><path id="SvgjsPath1100" d="M431.64 6862L423.07 6862C422.48 6862 422 6862.48 422 6863.06C422 6863.650000000001 422.48 6864.13 423.07 6864.13L431.64 6864.13C432.22999999999996 6864.13 432.71 6863.650000000001 432.71 6863.06C432.71 6862.4800000000005 432.22999999999996 6862 431.64 6862Z " fill="#000000" fill-opacity="1" transform="matrix(1,0,0,1,-398,-6818)"></path><path id="SvgjsPath1101" d="M454.15 6859.23C452.5 6857.589999999999 449.98999999999995 6857.589999999999 448.34999999999997 6859.23L434.30999999999995 6873.169999999999C434.10999999999996 6873.369999999999 433.99999999999994 6873.639999999999 433.99999999999994 6873.929999999999L433.99999999999994 6880.3099999999995C433.99999999999994 6880.9 434.47999999999996 6881.379999999999 435.06999999999994 6881.379999999999L441.49999999999994 6881.379999999999C441.7799999999999 6881.379999999999 442.04999999999995 6881.2699999999995 442.25999999999993 6881.069999999999L456.2899999999999 6867.119999999999C457.9999999999999 6865.419999999999 457.9999999999999 6863.049999999999 456.2899999999999 6861.359999999999ZM448.66 6865.3L439.36 6874.55L437.66 6872.860000000001L446.96000000000004 6863.610000000001ZM440.87 6876.06L450.18 6866.81L451.88 6868.5L442.57 6877.74ZM436.14 6874.37L441.05 6879.25L436.14 6879.25ZM453.39 6866.99L448.47999999999996 6862.11L449.85999999999996 6860.73C450.71 6859.889999999999 451.78 6859.889999999999 452.62999999999994 6860.73L454.7699999999999 6862.86C455.63999999999993 6863.719999999999 455.63999999999993 6864.75 454.7699999999999 6865.61Z " fill="#000000" fill-opacity="1" transform="matrix(1,0,0,1,-398,-6818)"></path><path id="SvgjsPath1102" d="M431.2 6879.75L403.36 6879.75C401.58000000000004 6879.75 400.14 6878.31 400.14 6876.55L400.14 6823.320000000001C400.14 6821.56 401.58 6820.130000000001 403.36 6820.130000000001L437.19 6820.130000000001L447.59 6830.460000000001C448 6830.880000000001 448.67999999999995 6830.880000000001 449.09999999999997 6830.460000000001C449.52 6830.050000000001 449.52 6829.370000000001 449.09999999999997 6828.960000000001L438.39 6818.310000000001C438.19 6818.1100000000015 437.91999999999996 6818.000000000001 437.63 6818.000000000001L403.36 6818.000000000001C400.40000000000003 6818.000000000001 398 6820.390000000001 398 6823.320000000001L398 6876.55C398 6879.49 400.4 6881.88 403.36 6881.88L431.21000000000004 6881.88C431.8 6881.88 432.28000000000003 6881.400000000001 432.28000000000003 6880.81C432.28000000000003 6880.22 431.8 6879.75 431.20000000000005 6879.75Z " fill="#000000" fill-opacity="1" transform="matrix(1,0,0,1,-398,-6818)"></path><path id="SvgjsPath1103" d="M431.64 6869L423.07 6869C422.48 6869 422 6869.48 422 6870.06C422 6870.650000000001 422.48 6871.13 423.07 6871.13L431.64 6871.13C432.22999999999996 6871.13 432.71 6870.650000000001 432.71 6870.06C432.71 6869.4800000000005 432.22999999999996 6869 431.64 6869Z " fill="#000000" fill-opacity="1" transform="matrix(1,0,0,1,-398,-6818)"></path><path id="SvgjsPath1104" d="M416.5 6837L410.07 6837C409.48 6837 409 6837.48 409 6838.06L409 6844.450000000001C409 6845.040000000001 409.48 6845.52 410.07 6845.52L416.5 6845.52C417.09 6845.52 417.57 6845.040000000001 417.57 6844.450000000001L417.57 6838.06C417.57 6837.4800000000005 417.09 6837 416.5 6837ZM411.14 6843.39L411.14 6839.13L415.43 6839.13L415.43 6843.39Z " fill="#000000" fill-opacity="1" transform="matrix(1,0,0,1,-398,-6818)"></path><path id="SvgjsPath1105" d="M416.5 6870.52C417.09 6870.52 417.57 6870.040000000001 417.57 6869.450000000001L417.57 6863.06C417.57 6862.4800000000005 417.09 6862 416.5 6862L410.07 6862C409.48 6862 409 6862.48 409 6863.06L409 6869.450000000001C409 6870.040000000001 409.48 6870.52 410.07 6870.52ZM415.43 6864.13L415.43 6868.39L411.14 6868.39L411.14 6864.13Z " fill="#000000" fill-opacity="1" transform="matrix(1,0,0,1,-398,-6818)"></path><path id="SvgjsPath1106" d="M411.46 6858.21C411.65999999999997 6858.41 411.93 6858.52 412.21 6858.52C412.25 6858.52 412.28 6858.52 412.32 6858.51C412.64 6858.4800000000005 412.93 6858.31 413.09999999999997 6858.04L417.39 6851.66C417.71999999999997 6851.17 417.58 6850.5 417.09 6850.18C416.59999999999997 6849.85 415.94 6849.990000000001 415.60999999999996 6850.47L412.04999999999995 6855.780000000001L410.8299999999999 6854.570000000001C410.4099999999999 6854.150000000001 409.7299999999999 6854.150000000001 409.30999999999995 6854.570000000001C408.8999999999999 6854.990000000001 408.8999999999999 6855.660000000001 409.30999999999995 6856.080000000001L411.4599999999999 6858.210000000001Z " fill="#000000" fill-opacity="1" transform="matrix(1,0,0,1,-398,-6818)"></path></svg>