<svg id="SvgjsSvg1028" xmlns="http://www.w3.org/2000/svg" version="1.1" xmlns:xlink="http://www.w3.org/1999/xlink" xmlns:svgjs="http://svgjs.com/svgjs" width="61" height="57"><defs id="SvgjsDefs1029"></defs><path id="SvgjsPath1030" d="M456.97 1731.39L456.97 1712.0500000000002C456.97 1710.42 455.65000000000003 1709.0000000000002 453.92 1709.0000000000002C453.90000000000003 1709.0000000000002 423.48 1709.0000000000002 423.47 1709.0000000000002C423.45000000000005 1709.0000000000002 423.43 1709.0000000000002 423.42 1709.0000000000002L403.08000000000004 1709.0000000000002C401.46000000000004 1709.0000000000002 400.03000000000003 1710.3200000000002 400.03000000000003 1712.0500000000002L400.03000000000003 1731.39L399.02000000000004 1731.39C398.41 1731.39 398.00000000000006 1731.7900000000002 398.00000000000006 1732.4L398.00000000000006 1742.5800000000002C398.00000000000006 1743.19 398.4100000000001 1743.6000000000001 399.02000000000004 1743.6000000000001L400.03000000000003 1743.6000000000001L400.03000000000003 1762.93C400.03000000000003 1764.5600000000002 401.35 1765.98 403.08000000000004 1765.98L453.9200000000001 1765.98C455.5400000000001 1765.98 456.9700000000001 1764.56 456.9700000000001 1762.93L456.9700000000001 1743.6000000000001L457.9800000000001 1743.6000000000001C458.5900000000001 1743.6000000000001 459.00000000000006 1743.19 459.00000000000006 1742.5800000000002L459.00000000000006 1732.4C459.00000000000006 1731.7900000000002 458.59000000000003 1731.39 457.9800000000001 1731.39ZM403.08 1711.04L422.5 1711.04L422.5 1729.25C420.88 1727.62 419.05 1726.3 417.01 1726.3C414.67 1726.3999999999999 412.95 1727.4199999999998 411.93 1729.25C411.83 1729.45 411.62 1729.86 411.42 1731.39L402.07 1731.39L402.07 1712.0500000000002C402.07 1711.5400000000002 402.58 1711.0400000000002 403.08 1711.0400000000002ZM402.07 1743.6L412.06 1743.6C412.4 1744.77 412.88 1745.77 413.56 1746.4499999999998C414.47 1747.2599999999998 415.69 1747.7699999999998 417.11 1747.7699999999998C417.54 1747.7699999999998 417.97 1747.7199999999998 418.40000000000003 1747.6299999999997L417.42 1749.7999999999997C417.22 1750.1099999999997 417.32 1750.5199999999998 417.52000000000004 1750.8199999999997C417.83000000000004 1751.1299999999997 418.13000000000005 1751.3299999999997 418.54 1751.2299999999998L421.49 1750.7199999999998L422.40000000000003 1752.35L422.40000000000003 1763.9499999999998L403.08000000000004 1763.9499999999998C402.58000000000004 1763.9499999999998 402.07000000000005 1763.5399999999997 402.07000000000005 1762.9299999999998ZM453.92 1763.95L434.6 1763.95L434.6 1751.4L435.01000000000005 1750.72L437.55000000000007 1751.13C437.62000000000006 1751.13 437.70000000000005 1751.1200000000001 437.7700000000001 1751.1200000000001L437.8500000000001 1751.13C438.2600000000001 1751.13 438.6700000000001 1751.0300000000002 438.87000000000006 1750.72C439.07000000000005 1750.42 439.1700000000001 1750.01 438.9700000000001 1749.7L437.9100000000001 1747.47C438.5700000000001 1747.67 439.25000000000006 1747.77 439.8900000000001 1747.77C441.3100000000001 1747.77 442.5300000000001 1747.26 443.6500000000001 1746.24C444.2900000000001 1745.6 444.74000000000007 1744.68 445.0600000000001 1743.6L454.9300000000001 1743.6L454.9300000000001 1762.9299999999998C454.9300000000001 1763.4399999999998 454.53000000000014 1763.9499999999998 453.92000000000013 1763.9499999999998ZM454.93 1731.39L445.73 1731.39C445.63 1730.49 445.46000000000004 1729.64 445.17 1729.15C444.16 1727.3200000000002 442.33000000000004 1726.2 440.09000000000003 1726.2L439.99 1726.2C437.98 1726.2 436.19 1727.55 434.7 1729.1100000000001L434.7 1711.0400000000002L453.91999999999996 1711.0400000000002C454.42999999999995 1711.0400000000002 454.92999999999995 1711.4400000000003 454.92999999999995 1712.0500000000002ZM413.89 1742.53C413.89 1742.48 413.88 1742.43 413.86 1742.3799999999999C413.35 1740.2399999999998 413.25 1737.6999999999998 413.25 1735.9699999999998C413.25 1735.36 413.25 1734.85 413.25 1734.5399999999997C413.25 1734.2399999999998 413.25 1733.4199999999998 413.35 1732.5099999999998C413.35 1732.4799999999998 413.35 1732.4499999999998 413.35 1732.4199999999998C413.35 1732.4199999999998 413.35 1732.4099999999999 413.35 1732.3999999999999C413.45000000000005 1730.9799999999998 413.66 1730.37 413.76000000000005 1730.1699999999998C414.36000000000007 1728.9699999999998 415.44000000000005 1728.36 416.9200000000001 1728.34C416.95000000000005 1728.34 416.9800000000001 1728.33 417.01000000000005 1728.33C417.08000000000004 1728.33 417.15000000000003 1728.34 417.22 1728.34C419.41 1728.54 421.82000000000005 1731.6299999999999 422.6 1732.7099999999998C422.63 1732.7499999999998 422.67 1732.7899999999997 422.71000000000004 1732.8299999999997C422.90000000000003 1733.0799999999997 423.07000000000005 1733.3099999999997 423.21000000000004 1733.5199999999998C423.31000000000006 1733.6299999999997 423.42 1733.8299999999997 423.52000000000004 1733.9299999999998C423.15000000000003 1734.4599999999998 422.86 1735.0399999999997 422.67 1735.6599999999999L419.96000000000004 1733.6299999999999C419.55 1733.32 418.84000000000003 1733.4199999999998 418.54 1733.83C418.23 1734.24 418.33000000000004 1734.9499999999998 418.74 1735.25L421.72 1737.49L418.74 1739.73C418.33 1740.04 418.23 1740.75 418.54 1741.16C418.74 1741.46 419.05 1741.5600000000002 419.35 1741.5600000000002C419.55 1741.5600000000002 419.76000000000005 1741.4600000000003 419.96000000000004 1741.3600000000001L422.64000000000004 1739.3500000000001C422.71000000000004 1739.66 422.80000000000007 1739.96 422.91 1740.2400000000002C422.81 1742.5800000000002 420.98 1744.4100000000003 419.05 1745.2300000000002C418.7 1745.3800000000003 418.33 1745.5200000000002 417.95 1745.6000000000001C416.84999999999997 1745.8100000000002 415.74 1745.68 414.97999999999996 1744.92C414.67999999999995 1744.63 414.2 1743.95 413.89 1742.53ZM432.16 1732.2C432.12 1732.27 432.08000000000004 1732.3300000000002 432.05 1732.39C432 1732.41 431.97 1732.43 431.96000000000004 1732.47C431.1 1731.8700000000001 430.07000000000005 1731.49 428.96000000000004 1731.41C428.96000000000004 1731.41 428.95000000000005 1731.41 428.94000000000005 1731.4C428.88000000000005 1731.4 428.82000000000005 1731.4 428.76000000000005 1731.39C428.6700000000001 1731.39 428.59000000000003 1731.39 428.50000000000006 1731.39C428.4100000000001 1731.39 428.33000000000004 1731.39 428.24000000000007 1731.39C428.18000000000006 1731.4 428.12000000000006 1731.4 428.06000000000006 1731.4C428.05000000000007 1731.41 428.0400000000001 1731.41 428.0300000000001 1731.41C427.1400000000001 1731.48 426.2900000000001 1731.74 425.5400000000001 1732.16C425.38000000000005 1732.24 425.2200000000001 1732.3300000000002 425.06000000000006 1732.43C425.06000000000006 1732.42 425.05000000000007 1732.41 425.0400000000001 1732.4C424.8500000000001 1732.16 424.6500000000001 1731.89 424.43000000000006 1731.6100000000001L424.43000000000006 1711.0400000000002L432.57000000000005 1711.0400000000002L432.57000000000005 1731.6700000000003C432.43000000000006 1731.8600000000004 432.2900000000001 1732.0300000000002 432.16 1732.2000000000003ZM441.92 1744.92C441.88 1744.96 441.85 1744.99 441.81 1745.02C441.79 1745.04 441.76 1745.07 441.73 1745.09C441.73 1745.09 441.72 1745.1 441.71000000000004 1745.1C440.95000000000005 1745.6899999999998 439.84000000000003 1745.74 438.82000000000005 1745.54C438.1700000000001 1745.3899999999999 437.50000000000006 1745.12 436.90000000000003 1744.78C435.39000000000004 1743.85 434.02000000000004 1742.27 433.89000000000004 1740.33C434.07000000000005 1740.01 434.21000000000004 1739.6699999999998 434.32000000000005 1739.32L437.0400000000001 1741.36C437.24000000000007 1741.4599999999998 437.4500000000001 1741.56 437.6500000000001 1741.56C437.9500000000001 1741.56 438.2600000000001 1741.46 438.4600000000001 1741.1599999999999C438.7700000000001 1740.7499999999998 438.6700000000001 1740.04 438.2600000000001 1739.7299999999998L435.2800000000001 1737.4899999999998L438.2600000000001 1735.2499999999998C438.67000000000013 1734.9499999999998 438.7700000000001 1734.2399999999998 438.4600000000001 1733.8299999999997C438.1600000000001 1733.4199999999996 437.4500000000001 1733.3199999999997 437.0400000000001 1733.6299999999997L434.32000000000005 1735.6699999999996C434.13000000000005 1735.0699999999997 433.85 1734.5199999999995 433.50000000000006 1734.0099999999995C433.62000000000006 1733.8699999999994 433.74000000000007 1733.7099999999996 433.89000000000004 1733.5199999999995C434.09000000000003 1733.3199999999995 434.29 1733.0099999999995 434.50000000000006 1732.7099999999996C434.52000000000004 1732.6699999999996 434.53000000000003 1732.6399999999996 434.55000000000007 1732.5999999999997C435.50000000000006 1731.3299999999997 437.88000000000005 1728.4399999999996 439.99000000000007 1728.4399999999996C441.08000000000004 1728.4399999999996 441.9600000000001 1728.7499999999995 442.6000000000001 1729.3699999999997C442.81000000000006 1729.5999999999997 442.99000000000007 1729.8599999999997 443.1400000000001 1730.1699999999996C443.4500000000001 1730.7799999999995 443.6500000000001 1733.5199999999995 443.5500000000001 1734.5399999999995C443.5500000000001 1734.8499999999995 443.5500000000001 1735.3499999999995 443.5500000000001 1735.9699999999996C443.5500000000001 1737.4999999999995 443.5000000000001 1740.4199999999996 442.98000000000013 1742.5899999999995C442.6300000000001 1743.8399999999995 442.28000000000014 1744.4899999999996 442.0100000000001 1744.8199999999995C441.98000000000013 1744.8599999999994 441.9500000000001 1744.8899999999994 441.92000000000013 1744.9199999999994ZM424.84 1753.16L428.5 1745.1200000000001L431.65 1753.16C431.65 1753.17 431.65999999999997 1753.18 431.65999999999997 1753.18C431.77 1753.48 432.07 1753.77 432.46 1753.77C432.46999999999997 1753.77 432.57 1753.77 432.57 1753.77L432.57 1763.95L424.53 1763.95L424.53 1753.57C424.64 1753.47 424.73999999999995 1753.37 424.84 1753.1599999999999ZM411.22 1733.42C411.22 1733.93 411.22 1734.44 411.22 1734.74C411.22 1734.95 411.22 1735.46 411.22 1735.97C411.32000000000005 1737.39 411.32000000000005 1739.53 411.62 1741.56L400.03000000000003 1741.56L400.03000000000003 1733.4199999999998ZM432.13 1735.66C432.38 1736.18 432.53 1736.74 432.56 1737.3000000000002C432.56 1737.3600000000001 432.57 1737.4300000000003 432.57 1737.4900000000002C432.57 1737.5800000000002 432.56 1737.6700000000003 432.56 1737.7500000000002C432.56 1737.7600000000002 432.56 1737.7600000000002 432.56 1737.7700000000002C432.53000000000003 1738.1800000000003 432.42 1738.5900000000001 432.26 1738.9700000000003C432.05 1739.0600000000002 431.86 1739.2100000000003 431.75 1739.4300000000003C431.04 1740.6500000000003 429.72 1741.4600000000003 428.3 1741.4600000000003C427.73 1741.4600000000003 427.18 1741.3400000000004 426.67 1741.1200000000003C426.05 1740.8100000000004 425.52000000000004 1740.3400000000004 425.13 1739.7600000000004C425.11 1739.6900000000005 425.09 1739.6200000000003 425.04 1739.5300000000004C424.69 1739.0000000000005 424.49 1738.3900000000003 424.44 1737.7700000000004C424.44 1737.7600000000004 424.44 1737.7600000000004 424.44 1737.7500000000005C424.44 1737.6700000000005 424.43 1737.5800000000004 424.43 1737.4900000000005C424.43 1737.4300000000005 424.44 1737.3600000000004 424.44 1737.3000000000004C424.49 1736.3500000000004 424.9 1735.4200000000003 425.75 1734.8500000000004C425.87 1734.6900000000003 425.94 1734.5000000000005 425.97 1734.3100000000004C426.67 1733.7600000000004 427.55 1733.4200000000003 428.5 1733.4200000000003C430.04 1733.4200000000003 431.38 1734.2900000000002 432.07 1735.5600000000004C432.09 1735.5900000000004 432.11 1735.6200000000003 432.13 1735.6600000000003ZM421.99 1748.58C421.89 1748.58 421.89 1748.58 421.89 1748.58L420.15999999999997 1748.8899999999999L421.28 1746.4499999999998C421.28 1746.4499999999998 421.28 1746.4499999999998 421.28 1746.4399999999998C422.98999999999995 1745.4399999999998 424.19 1743.9499999999998 424.80999999999995 1742.35C425.4599999999999 1742.84 426.2099999999999 1743.2099999999998 427.0199999999999 1743.4099999999999L423.75999999999993 1750.5099999999998L422.9099999999999 1749.0899999999997C422.7099999999999 1748.7899999999997 422.2999999999999 1748.5799999999997 421.9899999999999 1748.5799999999997ZM432.86 1750.32C432.81 1750.35 432.77000000000004 1750.3899999999999 432.74 1750.4299999999998L429.94 1743.4199999999998C430.78 1743.2199999999998 431.55 1742.84 432.21999999999997 1742.32C432.45 1742.9299999999998 432.74999999999994 1743.49 433.13 1744.02C433.64 1744.76 434.26 1745.41 434.94 1745.94L436.28 1748.88L434.59999999999997 1748.5800000000002C434.18999999999994 1748.5800000000002 433.78999999999996 1748.7900000000002 433.58 1749.0900000000001L433.06 1750.0100000000002ZM445.49 1741.56C445.76 1739.77 445.84000000000003 1737.76 445.89 1735.86C445.89 1735.35 445.89 1734.9499999999998 445.89 1734.6399999999999C445.89 1734.4099999999999 445.89 1733.9699999999998 445.87 1733.4199999999998L456.97 1733.4199999999998L456.97 1741.56Z " fill="#000000" fill-opacity="1" transform="matrix(1,0,0,1,-398,-1709)"></path><path id="SvgjsPath1031" d="M404 1746L404 1745L405 1745L405 1746Z " fill="#000000" fill-opacity="1" transform="matrix(1,0,0,1,-398,-1709)"></path><path id="SvgjsPath1032" d="M446 1762L446 1761L447 1761L447 1762Z " fill="#000000" fill-opacity="1" transform="matrix(1,0,0,1,-398,-1709)"></path><path id="SvgjsPath1033" d="M406 1746L406 1745L407 1745L407 1746Z " fill="#000000" fill-opacity="1" transform="matrix(1,0,0,1,-398,-1709)"></path><path id="SvgjsPath1034" d="M448 1762L448 1761L449 1761L449 1762Z " fill="#000000" fill-opacity="1" transform="matrix(1,0,0,1,-398,-1709)"></path><path id="SvgjsPath1035" d="M408 1746L408 1745L409 1745L409 1746Z " fill="#000000" fill-opacity="1" transform="matrix(1,0,0,1,-398,-1709)"></path><path id="SvgjsPath1036" d="M450 1762L450 1761L451 1761L451 1762Z " fill="#000000" fill-opacity="1" transform="matrix(1,0,0,1,-398,-1709)"></path></svg>