<svg id="SvgjsSvg1107" xmlns="http://www.w3.org/2000/svg" version="1.1" xmlns:xlink="http://www.w3.org/1999/xlink" xmlns:svgjs="http://svgjs.com/svgjs" width="69" height="44"><defs id="SvgjsDefs1108"><clipPath id="SvgjsClipPath1111"><path id="SvgjsPath1110" d="M926 6833C926 6828.02944 930.02944 6824 935 6824L986 6824C990.97056 6824 995 6828.02944 995 6833L995 6859C995 6863.97056 990.97056 6868 986 6868L935 6868C930.02944 6868 926 6863.97056 926 6859Z " fill="#ffffff"></path></clipPath></defs><path id="SvgjsPath1109" d="M926 6833C926 6828.02944 930.02944 6824 935 6824L986 6824C990.97056 6824 995 6828.02944 995 6833L995 6859C995 6863.97056 990.97056 6868 986 6868L935 6868C930.02944 6868 926 6863.97056 926 6859Z " fill-opacity="0" fill="#ffffff" stroke-dasharray="0" stroke-linejoin="miter" stroke-linecap="butt" stroke-opacity="1" stroke="#000000" stroke-miterlimit="50" stroke-width="4" clip-path="url(&quot;#SvgjsClipPath1111&quot;)" transform="matrix(1,0,0,1,-926,-6824)"></path><path id="SvgjsPath1112" d="M938 6839.92L938 6856L956 6856L956 6839.92L947 6835ZM939.29 6854.73L939.29 6840.95L947.3199999999999 6836.91L954.7099999999999 6840.95L954.7099999999999 6854.73Z " fill="#000000" fill-opacity="1" transform="matrix(1,0,0,1,-926,-6824)"></path><path id="SvgjsPath1113" d="M947 6840C945.35 6840 944 6841.45 944 6843.22C944 6844.29 944.49 6845.26 945.29 6845.860000000001L944.65 6852.000000000001L949.35 6852.000000000001L948.71 6845.860000000001C949.51 6845.26 950 6844.290000000001 950 6843.22C950 6841.45 948.65 6840 947 6840ZM947.05 6844.88L947.6099999999999 6850.33L946.3899999999999 6850.33L946.9499999999998 6844.88L946.4199999999998 6844.64C945.8999999999999 6844.39 945.5499999999998 6843.83 945.5499999999998 6843.22C945.5499999999998 6842.37 946.1999999999998 6841.67 946.9999999999999 6841.67C947.7999999999998 6841.67 948.4499999999999 6842.37 948.4499999999999 6843.22C948.4499999999999 6843.83 948.0999999999999 6844.39 947.5799999999999 6844.64Z " fill="#000000" fill-opacity="1" transform="matrix(1,0,0,1,-926,-6824)"></path><path id="SvgjsPath1114" d="M965 6841L965 6839L980 6839L980 6841Z " fill="#000000" fill-opacity="1" transform="matrix(1,0,0,1,-926,-6824)"></path><path id="SvgjsPath1115" d="M965 6844L965 6842L969 6842L969 6844Z " fill="#000000" fill-opacity="1" transform="matrix(1,0,0,1,-926,-6824)"></path><path id="SvgjsPath1116" d="M965 6847L965 6845L981 6845L981 6847Z " fill="#000000" fill-opacity="1" transform="matrix(1,0,0,1,-926,-6824)"></path><path id="SvgjsPath1117" d="M965 6851L965 6849L981 6849L981 6851Z " fill="#000000" fill-opacity="1" transform="matrix(1,0,0,1,-926,-6824)"></path><path id="SvgjsPath1118" d="M965 6854L965 6852L967 6852L967 6854Z " fill="#000000" fill-opacity="1" transform="matrix(1,0,0,1,-926,-6824)"></path><path id="SvgjsPath1119" d="M968 6854L968 6852L969 6852L969 6854Z " fill="#000000" fill-opacity="1" transform="matrix(1,0,0,1,-926,-6824)"></path><path id="SvgjsPath1120" d="M970 6854L970 6852L972 6852L972 6854Z " fill="#000000" fill-opacity="1" transform="matrix(1,0,0,1,-926,-6824)"></path><path id="SvgjsPath1121" d="M973 6854L973 6852L975 6852L975 6854Z " fill="#000000" fill-opacity="1" transform="matrix(1,0,0,1,-926,-6824)"></path><path id="SvgjsPath1122" d="M975 6854L975 6852L977 6852L977 6854Z " fill="#000000" fill-opacity="1" transform="matrix(1,0,0,1,-926,-6824)"></path><path id="SvgjsPath1123" d="M977 6854L977 6852L979 6852L979 6854Z " fill="#000000" fill-opacity="1" transform="matrix(1,0,0,1,-926,-6824)"></path><path id="SvgjsPath1124" d="M980 6854L980 6852L982 6852L982 6854Z " fill="#000000" fill-opacity="1" transform="matrix(1,0,0,1,-926,-6824)"></path></svg>