<svg id="SvgjsSvg1125" xmlns="http://www.w3.org/2000/svg" version="1.1" xmlns:xlink="http://www.w3.org/1999/xlink" xmlns:svgjs="http://svgjs.com/svgjs" width="61" height="57"><defs id="SvgjsDefs1126"></defs><path id="SvgjsPath1127" d="M1519.97 6840.39L1519.97 6821.05C1519.97 6819.42 1518.65 6818 1516.92 6818C1516.9 6818 1486.48 6818 1486.47 6818C1486.45 6818 1486.43 6818 1486.42 6818L1466.0800000000002 6818C1464.4600000000003 6818 1463.0300000000002 6819.32 1463.0300000000002 6821.05L1463.0300000000002 6840.39L1462.0200000000002 6840.39C1461.4100000000003 6840.39 1461.0000000000002 6840.79 1461.0000000000002 6841.400000000001L1461.0000000000002 6851.580000000001C1461.0000000000002 6852.1900000000005 1461.4100000000003 6852.600000000001 1462.0200000000002 6852.600000000001L1463.0300000000002 6852.600000000001L1463.0300000000002 6871.930000000001C1463.0300000000002 6873.560000000001 1464.3500000000001 6874.980000000001 1466.0800000000002 6874.980000000001L1516.92 6874.980000000001C1518.54 6874.980000000001 1519.97 6873.560000000001 1519.97 6871.930000000001L1519.97 6852.600000000001L1520.98 6852.600000000001C1521.59 6852.600000000001 1522 6852.190000000001 1522 6851.580000000001L1522 6841.400000000001C1522 6840.790000000001 1521.59 6840.39 1520.98 6840.39ZM1466.08 6820.04L1485.5 6820.04L1485.5 6838.25C1483.88 6836.62 1482.05 6835.3 1480.01 6835.3C1477.67 6835.400000000001 1475.95 6836.42 1474.93 6838.25C1474.8300000000002 6838.45 1474.6200000000001 6838.86 1474.42 6840.39L1465.0700000000002 6840.39L1465.0700000000002 6821.05C1465.0700000000002 6820.54 1465.5800000000002 6820.04 1466.0800000000002 6820.04ZM1465.07 6852.6L1475.06 6852.6C1475.3999999999999 6853.77 1475.8799999999999 6854.77 1476.56 6855.450000000001C1477.47 6856.260000000001 1478.69 6856.77 1480.11 6856.77C1480.54 6856.77 1480.9699999999998 6856.72 1481.3999999999999 6856.63L1480.4199999999998 6858.8C1480.2199999999998 6859.110000000001 1480.32 6859.52 1480.5199999999998 6859.820000000001C1480.8299999999997 6860.130000000001 1481.1299999999997 6860.330000000001 1481.5399999999997 6860.2300000000005L1484.4899999999998 6859.72L1485.3999999999999 6861.35L1485.3999999999999 6872.950000000001L1466.08 6872.950000000001C1465.58 6872.950000000001 1465.07 6872.540000000001 1465.07 6871.93ZM1516.92 6872.95L1497.6000000000001 6872.95L1497.6000000000001 6860.4L1498.0100000000002 6859.719999999999L1500.5500000000002 6860.129999999999C1500.6200000000001 6860.129999999999 1500.7000000000003 6860.119999999999 1500.7700000000002 6860.119999999999L1500.8500000000001 6860.129999999999C1501.2600000000002 6860.129999999999 1501.67 6860.029999999999 1501.8700000000001 6859.719999999999C1502.0700000000002 6859.419999999999 1502.17 6859.009999999999 1501.97 6858.699999999999L1500.91 6856.469999999999C1501.5700000000002 6856.669999999999 1502.25 6856.7699999999995 1502.89 6856.7699999999995C1504.3100000000002 6856.7699999999995 1505.5300000000002 6856.259999999999 1506.65 6855.24C1507.2900000000002 6854.599999999999 1507.74 6853.679999999999 1508.0600000000002 6852.599999999999L1517.93 6852.599999999999L1517.93 6871.929999999999C1517.93 6872.44 1517.53 6872.95 1516.92 6872.95ZM1517.93 6840.39L1508.73 6840.39C1508.63 6839.490000000001 1508.46 6838.64 1508.17 6838.150000000001C1507.16 6836.320000000001 1505.3300000000002 6835.200000000001 1503.0900000000001 6835.200000000001L1502.9900000000002 6835.200000000001C1500.9800000000002 6835.200000000001 1499.1900000000003 6836.550000000001 1497.7000000000003 6838.110000000001L1497.7000000000003 6820.040000000001L1516.9200000000003 6820.040000000001C1517.4300000000003 6820.040000000001 1517.9300000000003 6820.4400000000005 1517.9300000000003 6821.050000000001ZM1476.89 6851.53C1476.89 6851.48 1476.88 6851.429999999999 1476.8600000000001 6851.38C1476.3500000000001 6849.24 1476.2500000000002 6846.7 1476.2500000000002 6844.97C1476.2500000000002 6844.360000000001 1476.2500000000002 6843.85 1476.2500000000002 6843.54C1476.2500000000002 6843.24 1476.2500000000002 6842.42 1476.3500000000001 6841.51C1476.3500000000001 6841.4800000000005 1476.3500000000001 6841.45 1476.3500000000001 6841.42C1476.3500000000001 6841.42 1476.3500000000001 6841.41 1476.3500000000001 6841.4C1476.45 6839.98 1476.66 6839.37 1476.7600000000002 6839.17C1477.3600000000001 6837.97 1478.4400000000003 6837.36 1479.9200000000003 6837.34C1479.9500000000003 6837.34 1479.9800000000002 6837.33 1480.0100000000002 6837.33C1480.0800000000002 6837.33 1480.1500000000003 6837.34 1480.2200000000003 6837.34C1482.4100000000003 6837.54 1484.8200000000002 6840.63 1485.6000000000004 6841.71C1485.6300000000003 6841.75 1485.6700000000003 6841.79 1485.7100000000003 6841.83C1485.9000000000003 6842.08 1486.0700000000002 6842.3099999999995 1486.2100000000003 6842.5199999999995C1486.3100000000002 6842.629999999999 1486.4200000000003 6842.83 1486.5200000000002 6842.929999999999C1486.1500000000003 6843.459999999999 1485.8600000000001 6844.039999999999 1485.6700000000003 6844.659999999999L1482.9600000000003 6842.629999999999C1482.5500000000002 6842.319999999999 1481.8400000000004 6842.419999999999 1481.5400000000002 6842.829999999999C1481.2300000000002 6843.239999999999 1481.3300000000002 6843.949999999999 1481.7400000000002 6844.249999999999L1484.7200000000003 6846.489999999999L1481.7400000000002 6848.729999999999C1481.3300000000002 6849.039999999999 1481.2300000000002 6849.749999999999 1481.5400000000002 6850.159999999999C1481.7400000000002 6850.459999999999 1482.0500000000002 6850.559999999999 1482.3500000000001 6850.559999999999C1482.5500000000002 6850.559999999999 1482.7600000000002 6850.459999999998 1482.96 6850.359999999999L1485.64 6848.3499999999985C1485.71 6848.659999999999 1485.8000000000002 6848.959999999998 1485.91 6849.239999999999C1485.8100000000002 6851.579999999999 1483.98 6853.409999999999 1482.0500000000002 6854.229999999999C1481.7000000000003 6854.379999999998 1481.3300000000002 6854.519999999999 1480.9500000000003 6854.5999999999985C1479.8500000000004 6854.809999999999 1478.7400000000002 6854.6799999999985 1477.9800000000002 6853.919999999998C1477.6800000000003 6853.629999999998 1477.2000000000003 6852.949999999998 1476.8900000000003 6851.529999999998ZM1495.16 6841.2C1495.1200000000001 6841.2699999999995 1495.0800000000002 6841.33 1495.0500000000002 6841.389999999999C1495.0000000000002 6841.41 1494.9700000000003 6841.429999999999 1494.9600000000003 6841.469999999999C1494.1000000000004 6840.869999999999 1493.0700000000002 6840.49 1491.9600000000003 6840.409999999999C1491.9600000000003 6840.409999999999 1491.9500000000003 6840.409999999999 1491.9400000000003 6840.399999999999C1491.8800000000003 6840.399999999999 1491.8200000000004 6840.399999999999 1491.7600000000002 6840.3899999999985C1491.6700000000003 6840.3899999999985 1491.5900000000001 6840.3899999999985 1491.5000000000002 6840.3899999999985C1491.4100000000003 6840.3899999999985 1491.3300000000002 6840.3899999999985 1491.2400000000002 6840.3899999999985C1491.1800000000003 6840.399999999999 1491.1200000000003 6840.399999999999 1491.0600000000002 6840.399999999999C1491.0500000000002 6840.409999999999 1491.0400000000002 6840.409999999999 1491.0300000000002 6840.409999999999C1490.14 6840.479999999999 1489.2900000000002 6840.739999999999 1488.5400000000002 6841.159999999999C1488.38 6841.239999999999 1488.2200000000003 6841.329999999999 1488.0600000000002 6841.429999999999C1488.0600000000002 6841.419999999999 1488.0500000000002 6841.409999999999 1488.0400000000002 6841.4C1487.8500000000001 6841.16 1487.65 6840.889999999999 1487.4300000000003 6840.61L1487.4300000000003 6820.04L1495.5700000000004 6820.04L1495.5700000000004 6840.67C1495.4300000000003 6840.86 1495.2900000000004 6841.03 1495.1600000000003 6841.2ZM1504.92 6853.92C1504.88 6853.96 1504.8500000000001 6853.99 1504.8100000000002 6854.02C1504.7900000000002 6854.040000000001 1504.7600000000002 6854.070000000001 1504.7300000000002 6854.09C1504.7300000000002 6854.09 1504.7200000000003 6854.1 1504.7100000000003 6854.1C1503.9500000000003 6854.6900000000005 1502.8400000000004 6854.740000000001 1501.8200000000002 6854.54C1501.17 6854.39 1500.5000000000002 6854.12 1499.9 6853.78C1498.39 6852.849999999999 1497.02 6851.2699999999995 1496.89 6849.33C1497.0700000000002 6849.01 1497.21 6848.67 1497.3200000000002 6848.32L1500.0400000000002 6850.36C1500.2400000000002 6850.46 1500.4500000000003 6850.5599999999995 1500.65 6850.5599999999995C1500.95 6850.5599999999995 1501.26 6850.459999999999 1501.46 6850.16C1501.77 6849.75 1501.67 6849.04 1501.26 6848.73L1498.28 6846.49L1501.26 6844.25C1501.67 6843.95 1501.77 6843.24 1501.46 6842.83C1501.16 6842.42 1500.45 6842.32 1500.04 6842.63L1497.32 6844.67C1497.1299999999999 6844.07 1496.85 6843.52 1496.5 6843.01C1496.62 6842.87 1496.74 6842.71 1496.89 6842.52C1497.0900000000001 6842.320000000001 1497.2900000000002 6842.01 1497.5 6841.71C1497.52 6841.67 1497.53 6841.64 1497.55 6841.6C1498.5 6840.33 1500.8799999999999 6837.4400000000005 1502.99 6837.4400000000005C1504.08 6837.4400000000005 1504.96 6837.750000000001 1505.6 6838.370000000001C1505.81 6838.6 1505.99 6838.860000000001 1506.1399999999999 6839.170000000001C1506.4499999999998 6839.780000000001 1506.6499999999999 6842.520000000001 1506.55 6843.540000000001C1506.55 6843.850000000001 1506.55 6844.350000000001 1506.55 6844.970000000001C1506.55 6846.500000000001 1506.5 6849.420000000001 1505.98 6851.590000000001C1505.63 6852.840000000001 1505.28 6853.490000000001 1505.01 6853.820000000001C1504.98 6853.860000000001 1504.95 6853.89 1504.92 6853.920000000001ZM1487.84 6862.16L1491.5 6854.12L1494.65 6862.16C1494.65 6862.17 1494.66 6862.18 1494.66 6862.18C1494.77 6862.4800000000005 1495.0700000000002 6862.77 1495.47 6862.77C1495.48 6862.77 1495.57 6862.77 1495.57 6862.77L1495.57 6872.950000000001L1487.54 6872.950000000001L1487.54 6862.570000000001C1487.6399999999999 6862.47 1487.74 6862.370000000001 1487.84 6862.160000000001ZM1474.22 6842.42C1474.22 6842.93 1474.22 6843.4400000000005 1474.22 6843.74C1474.22 6843.95 1474.22 6844.46 1474.22 6844.969999999999C1474.32 6846.389999999999 1474.32 6848.53 1474.6200000000001 6850.5599999999995L1463.0300000000002 6850.5599999999995L1463.0300000000002 6842.419999999999ZM1495.13 6844.66C1495.38 6845.18 1495.5300000000002 6845.74 1495.5600000000002 6846.3C1495.5600000000002 6846.360000000001 1495.5700000000002 6846.43 1495.5700000000002 6846.49C1495.5700000000002 6846.58 1495.5600000000002 6846.67 1495.5600000000002 6846.75C1495.5600000000002 6846.76 1495.5600000000002 6846.76 1495.5600000000002 6846.77C1495.5300000000002 6847.18 1495.42 6847.59 1495.2600000000002 6847.97C1495.0500000000002 6848.06 1494.8600000000001 6848.21 1494.7500000000002 6848.43C1494.0400000000002 6849.650000000001 1492.7200000000003 6850.46 1491.3000000000002 6850.46C1490.7300000000002 6850.46 1490.1800000000003 6850.34 1489.67 6850.12C1489.0500000000002 6849.8099999999995 1488.52 6849.34 1488.13 6848.76C1488.1100000000001 6848.6900000000005 1488.0900000000001 6848.62 1488.0400000000002 6848.530000000001C1487.6900000000003 6848.000000000001 1487.4900000000002 6847.39 1487.4400000000003 6846.77C1487.4400000000003 6846.76 1487.4400000000003 6846.76 1487.4400000000003 6846.75C1487.4400000000003 6846.67 1487.4300000000003 6846.58 1487.4300000000003 6846.49C1487.4300000000003 6846.429999999999 1487.4400000000003 6846.36 1487.4400000000003 6846.3C1487.4900000000002 6845.35 1487.9000000000003 6844.42 1488.7500000000002 6843.85C1488.8700000000001 6843.6900000000005 1488.9400000000003 6843.5 1488.9700000000003 6843.31C1489.6700000000003 6842.76 1490.5500000000002 6842.42 1491.5000000000002 6842.42C1493.0400000000002 6842.42 1494.3800000000003 6843.29 1495.0700000000002 6844.56C1495.0900000000001 6844.59 1495.1100000000001 6844.620000000001 1495.13 6844.660000000001ZM1484.99 6857.58C1484.89 6857.58 1484.89 6857.58 1484.89 6857.58L1483.16 6857.89L1484.28 6855.450000000001C1484.28 6855.450000000001 1484.28 6855.450000000001 1484.28 6855.4400000000005C1485.99 6854.4400000000005 1487.19 6852.950000000001 1487.81 6851.35C1488.46 6851.84 1489.21 6852.21 1490.02 6852.410000000001L1486.76 6859.510000000001L1485.91 6858.090000000001C1485.71 6857.790000000001 1485.3000000000002 6857.580000000001 1484.99 6857.580000000001ZM1495.86 6859.32C1495.81 6859.349999999999 1495.77 6859.389999999999 1495.74 6859.429999999999L1492.94 6852.419999999999C1493.78 6852.219999999999 1494.55 6851.839999999999 1495.22 6851.319999999999C1495.45 6851.9299999999985 1495.75 6852.489999999999 1496.13 6853.019999999999C1496.64 6853.759999999998 1497.2600000000002 6854.409999999999 1497.94 6854.939999999999L1499.28 6857.879999999998L1497.6 6857.579999999998C1497.1899999999998 6857.579999999998 1496.79 6857.789999999998 1496.58 6858.089999999998L1496.06 6859.009999999998ZM1508.49 6850.56C1508.76 6848.77 1508.84 6846.76 1508.89 6844.860000000001C1508.89 6844.35 1508.89 6843.950000000001 1508.89 6843.64C1508.89 6843.410000000001 1508.89 6842.97 1508.8700000000001 6842.42L1519.97 6842.42L1519.97 6850.56Z " fill="#000000" fill-opacity="1" transform="matrix(1,0,0,1,-1461,-6818)"></path><path id="SvgjsPath1128" d="M1467 6855L1467 6854L1468 6854L1468 6855Z " fill="#000000" fill-opacity="1" transform="matrix(1,0,0,1,-1461,-6818)"></path><path id="SvgjsPath1129" d="M1509 6871L1509 6870L1510 6870L1510 6871Z " fill="#000000" fill-opacity="1" transform="matrix(1,0,0,1,-1461,-6818)"></path><path id="SvgjsPath1130" d="M1469 6855L1469 6854L1470 6854L1470 6855Z " fill="#000000" fill-opacity="1" transform="matrix(1,0,0,1,-1461,-6818)"></path><path id="SvgjsPath1131" d="M1511 6871L1511 6870L1512 6870L1512 6871Z " fill="#000000" fill-opacity="1" transform="matrix(1,0,0,1,-1461,-6818)"></path><path id="SvgjsPath1132" d="M1471 6855L1471 6854L1472 6854L1472 6855Z " fill="#000000" fill-opacity="1" transform="matrix(1,0,0,1,-1461,-6818)"></path><path id="SvgjsPath1133" d="M1513 6871L1513 6870L1514 6870L1514 6871Z " fill="#000000" fill-opacity="1" transform="matrix(1,0,0,1,-1461,-6818)"></path></svg>