<svg id="SvgjsSvg1053" xmlns="http://www.w3.org/2000/svg" version="1.1" xmlns:xlink="http://www.w3.org/1999/xlink" xmlns:svgjs="http://svgjs.com/svgjs" width="51" height="57"><defs id="SvgjsDefs1054"></defs><path id="SvgjsPath1055" d="M1486.59 1768.45C1486.59 1769.31 1486 1770.03 1485.2099999999998 1770.21L1484.7499999999998 1770.21L1484.7499999999998 1770.25C1483.7899999999997 1770.22 1483.0199999999998 1769.43 1483.0199999999998 1768.45L1483.0199999999998 1718.55C1483.0199999999998 1717.8899999999999 1482.8399999999997 1717.28 1482.5299999999997 1716.75L1505.9799999999998 1716.8C1506.9499999999998 1716.8 1507.6599999999999 1717.54 1507.6599999999999 1718.55L1507.6599999999999 1760.46L1509.3899999999999 1760.46L1509.3899999999999 1718.55C1509.3899999999999 1716.59 1507.8899999999999 1715.06 1505.9799999999998 1715.06L1479.4699999999998 1715C1477.5499999999997 1715.02 1475.9999999999998 1716.61 1475.9999999999998 1718.55L1475.9999999999998 1740.83L1480.2599999999998 1740.83L1480.2599999999998 1739.09L1477.7299999999998 1739.09L1477.7299999999998 1718.55C1477.7299999999998 1717.56 1478.5299999999997 1716.75 1479.5099999999998 1716.75C1480.4999999999998 1716.75 1481.2999999999997 1717.56 1481.2999999999997 1718.55L1481.2999999999997 1768.45C1481.2999999999997 1770.41 1482.8699999999997 1772 1484.8099999999997 1772C1484.9999999999998 1772 1485.1899999999998 1771.98 1485.3699999999997 1771.95L1511.2799999999997 1771.95C1513.2199999999998 1771.95 1514.7999999999997 1770.38 1514.7999999999997 1768.45L1514.7999999999997 1761.39L1486.5899999999997 1761.39ZM1511.28 1770.21L1487.86 1770.21C1488.1499999999999 1769.69 1488.32 1769.0900000000001 1488.32 1768.45L1488.32 1763.13L1513.07 1763.13L1513.07 1768.45C1513.07 1769.44 1512.28 1770.21 1511.28 1770.21Z " fill="#000000" fill-opacity="1" transform="matrix(1,0,0,1,-1476,-1715)"></path><path id="SvgjsPath1056" d="M1502 1723L1502 1721L1504 1721L1504 1723Z " fill="#000000" fill-opacity="1" transform="matrix(1,0,0,1,-1476,-1715)"></path><path id="SvgjsPath1057" d="M1486 1723L1486 1721L1496 1721L1496 1723Z " fill="#000000" fill-opacity="1" transform="matrix(1,0,0,1,-1476,-1715)"></path><path id="SvgjsPath1058" d="M1486 1727L1486 1725L1490 1725L1490 1727Z " fill="#000000" fill-opacity="1" transform="matrix(1,0,0,1,-1476,-1715)"></path><path id="SvgjsPath1059" d="M1486 1730L1486 1728L1505 1728L1505 1730Z " fill="#000000" fill-opacity="1" transform="matrix(1,0,0,1,-1476,-1715)"></path><path id="SvgjsPath1060" d="M1486 1734L1486 1732L1489 1732L1489 1734Z " fill="#000000" fill-opacity="1" transform="matrix(1,0,0,1,-1476,-1715)"></path><path id="SvgjsPath1061" d="M1491 1734L1491 1732L1498 1732L1498 1734Z " fill="#000000" fill-opacity="1" transform="matrix(1,0,0,1,-1476,-1715)"></path><path id="SvgjsPath1062" d="M1500 1734L1500 1732L1504 1732L1504 1734Z " fill="#000000" fill-opacity="1" transform="matrix(1,0,0,1,-1476,-1715)"></path><path id="SvgjsPath1063" d="M1493 1737L1493 1735L1504 1735L1504 1737Z " fill="#000000" fill-opacity="1" transform="matrix(1,0,0,1,-1476,-1715)"></path><path id="SvgjsPath1064" d="M1486 1737L1486 1735L1491 1735L1491 1737Z " fill="#000000" fill-opacity="1" transform="matrix(1,0,0,1,-1476,-1715)"></path><path id="SvgjsPath1065" d="M1486 1741L1486 1739L1505 1739L1505 1741Z " fill="#000000" fill-opacity="1" transform="matrix(1,0,0,1,-1476,-1715)"></path><path id="SvgjsPath1066" d="M1501 1745L1501 1743L1504 1743L1504 1745Z " fill="#000000" fill-opacity="1" transform="matrix(1,0,0,1,-1476,-1715)"></path><path id="SvgjsPath1067" d="M1495 1745L1495 1743L1499 1743L1499 1745Z " fill="#000000" fill-opacity="1" transform="matrix(1,0,0,1,-1476,-1715)"></path><path id="SvgjsPath1068" d="M1486 1745L1486 1743L1493 1743L1493 1745Z " fill="#000000" fill-opacity="1" transform="matrix(1,0,0,1,-1476,-1715)"></path><path id="SvgjsPath1069" d="M1486 1748L1486 1746L1497 1746L1497 1748Z " fill="#000000" fill-opacity="1" transform="matrix(1,0,0,1,-1476,-1715)"></path><path id="SvgjsPath1070" d="M1488 1759L1488 1757L1495 1757L1495 1759Z " fill="#000000" fill-opacity="1" transform="matrix(1,0,0,1,-1476,-1715)"></path><path id="SvgjsPath1071" d="M1497 1759L1497 1757L1504 1757L1504 1759Z " fill="#000000" fill-opacity="1" transform="matrix(1,0,0,1,-1476,-1715)"></path><path id="SvgjsPath1072" d="M1502 1753L1502 1751L1504 1751L1504 1753Z " fill="#000000" fill-opacity="1" transform="matrix(1,0,0,1,-1476,-1715)"></path><path id="SvgjsPath1073" d="M1517 1769.59L1522.28 1769.59L1522.28 1750L1517 1750ZM1518.75 1767.82L1518.75 1751.76L1520.53 1751.76L1520.53 1767.82Z " fill="#000000" fill-opacity="1" transform="matrix(1,0,0,1,-1476,-1715)"></path><path id="SvgjsPath1074" d="M1516 1743.21L1516.92 1746.1000000000001L1516.92 1748.5100000000002L1522.21 1748.5100000000002L1522.21 1746.1000000000001L1523.19 1743.22L1519.6200000000001 1736ZM1520.49 1746.77L1518.64 1746.77L1518.64 1745.82L1517.8600000000001 1743.36L1519.6100000000001 1739.8799999999999L1521.3200000000002 1743.35L1520.4900000000002 1745.82Z " fill="#000000" fill-opacity="1" transform="matrix(1,0,0,1,-1476,-1715)"></path><path id="SvgjsPath1075" d="M1517 1772L1517 1770L1522 1770L1522 1772Z " fill="#000000" fill-opacity="1" transform="matrix(1,0,0,1,-1476,-1715)"></path><path id="SvgjsPath1076" d="M1518 1745L1518 1743L1520 1743L1520 1745Z " fill="#000000" fill-opacity="1" transform="matrix(1,0,0,1,-1476,-1715)"></path><path id="SvgjsPath1077" d="M1515 1722.45C1515 1724.9 1516.98 1726.89 1519.41 1726.89C1521.8400000000001 1726.89 1523.8200000000002 1724.9 1523.8200000000002 1722.45C1523.8200000000002 1719.99 1521.8400000000001 1718 1519.41 1718C1516.98 1718 1515 1719.99 1515 1722.45ZM1516.75 1722.45C1516.75 1720.97 1517.94 1719.76 1519.41 1719.76C1520.88 1719.76 1522.0700000000002 1720.97 1522.0700000000002 1722.45C1522.0700000000002 1723.93 1520.88 1725.13 1519.41 1725.13C1517.94 1725.13 1516.75 1723.93 1516.75 1722.45Z " fill="#000000" fill-opacity="1" transform="matrix(1,0,0,1,-1476,-1715)"></path><path id="SvgjsPath1078" d="M1518 1723L1518 1721L1520 1721L1520 1723Z " fill="#000000" fill-opacity="1" transform="matrix(1,0,0,1,-1476,-1715)"></path><path id="SvgjsPath1079" d="M1525.82 1722.12C1525.82 1718.1899999999998 1522.6499999999999 1715 1518.76 1715C1514.86 1715 1511.7 1718.19 1511.7 1722.12C1511.7 1724.31 1512.68 1726.27 1514.22 1727.57L1511 1735.1599999999999L1514.67 1733.9299999999998L1515.94 1737.7799999999997L1518.76 1732.1099999999997L1521.57 1737.7799999999997L1522.84 1733.9299999999998L1526.51 1735.1599999999999L1523.29 1727.57C1524.83 1726.27 1525.82 1724.31 1525.82 1722.12ZM1513.45 1722.12C1513.45 1719.1699999999998 1515.8300000000002 1716.76 1518.76 1716.76C1521.68 1716.76 1524.07 1719.17 1524.07 1722.12C1524.07 1725.07 1521.6799999999998 1727.4799999999998 1518.76 1727.4799999999998C1515.83 1727.4799999999998 1513.45 1725.0699999999997 1513.45 1722.12ZM1515.77 1731.7L1514.1399999999999 1732.25L1515.7199999999998 1728.54C1516.4899999999998 1728.92 1517.3399999999997 1729.1499999999999 1518.2399999999998 1729.22L1516.2699999999998 1733.19ZM1521.24 1733.19L1519.73 1730.14L1520.26 1729.0700000000002C1520.8 1728.9600000000003 1521.31 1728.7800000000002 1521.8 1728.5400000000002L1523.37 1732.2500000000002L1521.7399999999998 1731.7000000000003Z " fill="#000000" fill-opacity="1" transform="matrix(1,0,0,1,-1476,-1715)"></path></svg>