<svg id="SvgjsSvg1037" xmlns="http://www.w3.org/2000/svg" version="1.1" xmlns:xlink="http://www.w3.org/1999/xlink" xmlns:svgjs="http://svgjs.com/svgjs" width="69" height="69"><defs id="SvgjsDefs1038"></defs><path id="SvgjsPath1039" d="M959.32 1718L959.32 1720.15L962.5500000000001 1720.15L962.5500000000001 1722.3100000000002L943.1500000000001 1722.3100000000002L943.1500000000001 1720.15L955.0100000000001 1720.15L955.0100000000001 1718L941.0000000000001 1718L941.0000000000001 1724.46L964.7000000000002 1724.46L964.7000000000002 1718Z " fill="#000000" fill-opacity="1" transform="matrix(1,0,0,1,-932,-1708)"></path><path id="SvgjsPath1040" d="M946 1728L946 1726L959 1726L959 1728Z " fill="#000000" fill-opacity="1" transform="matrix(1,0,0,1,-932,-1708)"></path><path id="SvgjsPath1041" d="M958.89 1713L958.89 1715.1L970.79 1715.1L970.79 1735.6899999999998L955.81 1735.6899999999998L955.81 1742.8899999999999L954.6099999999999 1745.29L955.81 1747.69L955.81 1750.43L954.6099999999999 1752.8300000000002L955.81 1755.2400000000002L955.81 1757.9700000000003L954.6099999999999 1760.3800000000003L955.81 1762.7800000000004L955.81 1765.3300000000004L954.5 1766.6300000000003L955.81 1769.2400000000002L955.81 1771.7900000000002L953.0999999999999 1774.4800000000002L952.4499999999999 1774.4800000000002L952.4499999999999 1768.8800000000003L950.3499999999999 1768.8800000000003L950.3499999999999 1773.5600000000004L949.3699999999999 1771.9400000000005L949.3699999999999 1735.6900000000005L934.0999999999999 1735.6900000000005L934.0999999999999 1715.1000000000006L954.55 1715.1000000000006L954.55 1713.0000000000007L932 1713.0000000000007L932 1737.7900000000006L947.27 1737.7900000000006L947.27 1772.5200000000007L949.71 1776.5800000000006L953.97 1776.5800000000006L957.9100000000001 1772.6600000000005L957.9100000000001 1768.7500000000005L957.0600000000001 1767.0500000000004L957.9100000000001 1766.2000000000005L957.9100000000001 1762.2800000000004L956.96 1760.3800000000003L957.9100000000001 1758.4700000000003L957.9100000000001 1754.7400000000002L956.96 1752.8300000000002L957.9100000000001 1750.93L957.9100000000001 1747.2L956.96 1745.29L957.9100000000001 1743.3799999999999L957.9100000000001 1737.79L972.8900000000001 1737.79L972.8900000000001 1713Z " fill="#000000" fill-opacity="1" transform="matrix(1,0,0,1,-932,-1708)"></path><path id="SvgjsPath1042" d="M950 1767L950 1736L952 1736L952 1767Z " fill="#000000" fill-opacity="1" transform="matrix(1,0,0,1,-932,-1708)"></path><path id="SvgjsPath1043" d="M948 1732L948 1730L950 1730L950 1732Z " fill="#000000" fill-opacity="1" transform="matrix(1,0,0,1,-932,-1708)"></path><path id="SvgjsPath1044" d="M951 1732L951 1730L953 1730L953 1732Z " fill="#000000" fill-opacity="1" transform="matrix(1,0,0,1,-932,-1708)"></path><path id="SvgjsPath1045" d="M955 1732L955 1730L957 1730L957 1732Z " fill="#000000" fill-opacity="1" transform="matrix(1,0,0,1,-932,-1708)"></path><path id="SvgjsPath1046" d="M980.24 1723C977.84 1723 975.52 1723.48 973.34 1724.43L974.21 1726.41C976.11 1725.5800000000002 978.14 1725.15 980.24 1725.15C988.5600000000001 1725.15 995.32 1731.92 995.32 1740.24C995.32 1748.55 988.5600000000001 1755.32 980.24 1755.32C971.92 1755.32 965.15 1748.6299999999999 965.15 1740.22L963 1740.22C963 1749.75 970.73 1757.47 980.24 1757.47C989.74 1757.47 997.48 1749.74 997.48 1740.24C997.48 1730.73 989.74 1723 980.24 1723Z " fill="#000000" fill-opacity="1" transform="matrix(1,0,0,1,-932,-1708)"></path><path id="SvgjsPath1047" d="M975 1733.46L985.77 1733.46L985.77 1727L975 1727ZM977.15 1731.31L977.15 1729.1499999999999L983.62 1729.1499999999999L983.62 1731.31Z " fill="#000000" fill-opacity="1" transform="matrix(1,0,0,1,-932,-1708)"></path><path id="SvgjsPath1048" d="M977.91 1708L959.23 1708C957.45 1708 956 1709.45 956 1711.23L958.15 1711.23C958.15 1710.64 958.64 1710.15 959.23 1710.15L977.91 1710.15C978.9 1710.15 979.6999999999999 1710.96 979.6999999999999 1711.95L979.6999999999999 1717.7L981.8599999999999 1717.7L981.8599999999999 1711.95C981.8599999999999 1709.77 980.0899999999999 1708 977.9099999999999 1708Z " fill="#000000" fill-opacity="1" transform="matrix(1,0,0,1,-932,-1708)"></path><path id="SvgjsPath1049" d="M956 1721L956 1712L958 1712L958 1721Z " fill="#000000" fill-opacity="1" transform="matrix(1,0,0,1,-932,-1708)"></path><path id="SvgjsPath1050" d="M981.44 1720.27L981.44 1719L979.33 1719L979.33 1720.28C977.39 1720.3899999999999 975.48 1720.77 973.6500000000001 1721.42L974.3700000000001 1723.45C976.3200000000002 1722.76 978.3800000000001 1722.4 980.4700000000001 1722.4C990.5700000000002 1722.4 998.7900000000002 1730.6200000000001 998.7900000000002 1740.72C998.7900000000002 1750.82 990.5700000000002 1759.03 980.4700000000001 1759.03C970.3700000000001 1759.03 962.1500000000001 1750.79 962.1500000000001 1740.71L960.0000000000001 1740.71C960.0000000000001 1752.05 969.1800000000001 1761.19 980.4700000000001 1761.19C991.7600000000001 1761.19 1000.9400000000002 1752.01 1000.9400000000002 1740.72C1000.9400000000002 1729.75 992.2800000000002 1720.78 981.4400000000002 1720.27Z " fill="#000000" fill-opacity="1" transform="matrix(1,0,0,1,-932,-1708)"></path><path id="SvgjsPath1051" d="M984.77 1744.67L986.3 1743.15L980.15 1737L974 1743.15L975.52 1744.67L975.93 1744.27L975.93 1748.37L974.81 1748.37L974.81 1750.4699999999998L985.5899999999999 1750.4699999999998L985.5899999999999 1748.37L984.4699999999999 1748.37L984.4699999999999 1744.37ZM978.03 1748.37L978.03 1742.1599999999999L980.15 1740.05L982.37 1742.27L982.37 1748.37Z " fill="#000000" fill-opacity="1" transform="matrix(1,0,0,1,-932,-1708)"></path><path id="SvgjsPath1052" d="M979 1744L979 1742L981 1742L981 1744Z " fill="#000000" fill-opacity="1" transform="matrix(1,0,0,1,-932,-1708)"></path></svg>