<?xml version="1.0" encoding="utf-8"?>
<!-- Generator: Avocode 0.4.0 - http://avocode.com -->
<svg height="84" width="184" xmlns:xlink="http://www.w3.org/1999/xlink" xmlns="http://www.w3.org/2000/svg" viewBox="0 0 184 84">
    <path fill="none" fill-rule="evenodd" d="M 0 52 L 0 67.52 L 12.82 67.52 L 12.82 52 L 0 52 L 0 52 Z M 0 52" />
    <path fill="#404041" fill-rule="evenodd" d="M 0.43 52.28 C 1.52 52.28 2.61 52.3 3.7 52.3 L 9.58 52.3 C 9.81 52.23 11.4 52.02 11.95 52 L 12.02 52.09 C 11.99 52.69 11.59 55.01 11.43 55.66 L 11 55.82 C 10.71 55.31 9.91 53.82 9.65 53.29 L 5.29 53.52 L 5.29 59.06 C 7.37 59.06 9.77 58.9 11.31 58.73 L 11.43 59.01 C 11.35 59.26 10.31 60.51 9.98 60.51 C 9.65 60.51 6.16 60.25 5.29 60.23 C 5.29 61.63 5.29 64.44 5.38 66.23 L 9.81 66.46 C 10.57 65.52 11.64 64.11 12.35 63.45 L 12.82 63.61 C 12.78 64.11 12.18 66.9 11.92 67.52 C 10.43 67.45 9.1 67.45 7.73 67.45 L 3.63 67.45 C 2.49 67.45 1.14 67.47 0 67.47 L 0.19 66.87 L 2.13 66.07 C 2.2 65.79 2.28 63.42 2.28 59.54 L 2.28 53.63 L 0.24 52.87 L 0.43 52.28 Z M 0.43 52.28" />
    <path fill="#404041" fill-rule="evenodd" d="M 24.75 62.59 C 24.75 60.96 23.9 59.52 19.78 59.57 L 19.78 59.99 C 19.78 61.96 19.78 64.69 19.87 66.13 C 22.19 66.13 23.29 65.66 23.99 64.83 C 24.61 64.13 24.75 63.33 24.75 62.61 L 24.75 62.59 Z M 19.78 58.67 C 21.91 58.65 23.99 58.04 23.99 55.63 C 23.99 54.44 23.45 53.75 22.76 53.37 C 22.21 53.08 21.43 52.92 20.33 52.92 L 19.78 52.92 L 19.78 58.67 Z M 15.25 52.29 C 16.17 52.2 19.44 52 20.95 52 C 24.91 52 27.06 52.99 27.06 55.36 C 27.06 57.58 25.02 58.58 23.15 58.83 L 23.15 58.99 C 26.63 59.3 28 60.6 28 62.63 C 28 66.42 23.35 67 20.08 67 C 18.34 67 16.74 66.98 15 66.93 L 15.16 66.33 L 16.74 65.57 C 16.79 65.21 16.88 63.55 16.88 60.51 L 16.88 53.37 L 15.07 52.85 L 15.25 52.29 Z M 15.25 52.29" />
    <path fill="#404041" fill-rule="evenodd" d="M 29.2 52.34 C 31.24 52.16 32.93 52 34.42 52 C 36.53 52 38 52.25 39.11 52.94 C 40.51 53.82 41 55.17 41 56.51 C 41 60.15 37.69 61.16 35.76 61.16 C 35.36 61.16 35.02 61.12 34.78 61.05 L 34.58 60.38 C 36.82 60.17 37.98 58.71 37.98 56.6 C 37.98 53.86 36.11 52.97 33.62 52.97 L 33.62 58.98 C 33.62 64.28 33.76 65.18 33.76 65.54 L 36.33 66.39 L 36.18 67 C 34.89 67 33.53 66.98 32.22 66.98 C 31.16 66.98 30.07 67 29 67 L 29.18 66.42 L 30.73 65.59 C 30.82 65.18 30.82 63.77 30.82 59.03 L 30.82 53.46 L 29 52.92 L 29.2 52.34 Z M 29.2 52.34" />
    <path fill="#404041" fill-rule="evenodd" d="M 53.24 52.92 C 50.07 52.92 48.43 56.05 48.43 59.75 C 48.43 63.38 50.36 67.1 53.86 67.1 C 57.5 67.1 58.57 63.15 58.57 60.11 C 58.57 56.9 56.71 52.92 53.26 52.92 L 53.24 52.92 Z M 53.55 52 C 57.19 52 61.93 54.3 62 59.77 C 62.09 65.49 57.55 68 53.55 68 C 49.64 68 45 65.52 45 60.14 C 45 54.99 49.38 52 53.52 52 L 53.55 52 Z M 53.55 52" />
    <path fill="#404041" fill-rule="evenodd" d="M 63.5 52 C 64.52 52 65.58 52.02 66.6 52.02 L 76.31 52.02 C 77.51 52.02 78.65 52 79.79 52 L 79.6 52.64 L 77.77 53.39 L 77.77 59.14 C 77.77 61.7 77.85 65.25 77.94 65.55 L 80 66.41 L 79.79 67 C 78.7 67 77.51 66.98 76.38 66.98 C 75.38 66.98 74.41 67 73.47 67 L 73.7 66.36 L 74.74 65.61 C 74.79 64.23 74.77 62.82 74.77 59.25 L 74.77 53.23 C 74.03 53.14 72.99 53.07 71.31 53.07 C 69.89 53.07 68.82 53.14 68.09 53.23 L 68.09 59.25 C 68.09 62.8 68.07 64.11 68.11 65.55 L 69.42 66.36 L 69.18 67 C 68.3 67 67.43 66.98 66.48 66.98 C 65.32 66.98 64.14 67 63 67 L 63.21 66.39 L 64.94 65.61 C 64.97 65.09 65.08 61.77 65.08 59.09 L 65.08 53.36 L 63.28 52.61 L 63.5 52 Z M 63.5 52" />
    <path fill="#404041" fill-rule="evenodd" d="M 81.4 52.27 C 82.42 52.27 83.44 52.29 84.46 52.29 L 89.96 52.29 C 90.18 52.22 91.67 52.02 92.18 52 L 92.25 52.09 C 92.22 52.67 91.85 54.91 91.69 55.53 L 91.29 55.69 C 91.03 55.2 90.27 53.76 90.03 53.24 L 85.95 53.47 L 85.95 58.82 C 87.9 58.82 90.14 58.67 91.58 58.51 L 91.69 58.78 C 91.62 59.02 90.65 60.22 90.34 60.22 C 90.03 60.22 86.77 59.98 85.95 59.96 C 85.95 61.31 85.95 64.02 86.04 65.76 L 90.18 65.98 C 90.89 65.07 91.89 63.71 92.56 63.07 L 93 63.22 C 92.96 63.71 92.4 66.4 92.16 67 C 90.76 66.93 89.52 66.93 88.23 66.93 L 84.39 66.93 C 83.33 66.93 82.06 66.96 81 66.96 L 81.18 66.38 L 83 65.6 C 83.06 65.33 83.13 63.04 83.13 59.29 L 83.13 53.58 L 81.22 52.84 L 81.4 52.27 Z M 81.4 52.27" />
    <path fill="#404041" fill-rule="evenodd" d="M 106.85 48 L 107.1 48.09 C 106.62 50.08 105.37 51.02 103.45 51.02 C 101.68 51.02 100.64 49.99 100.64 48.88 C 100.64 48.79 100.66 48.72 100.68 48.63 C 100.87 48.41 101.77 48 102.23 48 L 102.35 48.11 C 102.41 48.81 102.95 49.6 104.15 49.6 C 105.19 49.6 105.72 48.95 105.97 48.38 L 106.85 48 Z M 96.99 53.48 L 95.28 52.72 L 95.49 52.11 C 96.48 52.11 97.47 52.15 98.49 52.15 C 99.41 52.15 100.36 52.11 101.31 52.11 L 101.1 52.76 L 99.8 53.48 L 99.8 59.53 C 99.8 61.09 99.76 62.89 99.64 64.95 L 99.8 64.95 C 101.95 60.95 104.1 57 106.25 53.03 L 106.23 52.15 L 108.4 52.15 C 109.53 52.15 110.64 52.11 111.77 52.11 L 111.56 52.74 L 109.83 53.46 L 109.83 59.26 C 109.83 62.08 109.9 65.35 109.97 65.62 L 112 66.37 L 111.84 67 C 110.78 67 109.64 66.98 108.49 66.98 C 107.45 66.98 106.41 67 105.44 67 L 105.63 66.37 L 106.92 65.62 C 107.03 64.07 107.01 62.35 107.01 59.69 C 107.01 57.97 107.06 56.17 107.2 53.96 L 106.99 53.96 C 104.84 57.97 102.69 61.99 100.52 66.01 L 100.54 66.98 L 98.37 66.98 C 97.29 66.98 96.16 67 95 67 L 95.21 66.39 L 96.85 65.62 C 96.87 65.1 96.99 62.04 96.99 59.15 L 96.99 53.48 Z M 96.99 53.48" />
    <path fill="#404041" fill-rule="evenodd" d="M 123.04 52 C 124.73 52 125.9 52.34 126.66 52.76 C 127.38 52.46 128.26 52.25 128.81 52.18 L 128.95 52.28 C 128.88 53.06 128.17 55.82 127.93 56.37 L 127.4 56.6 C 127.09 55.89 126.64 54.53 126.42 53.68 C 125.97 53.4 125.04 53.15 123.87 53.15 C 119.68 53.15 117.34 56.34 117.34 59.98 C 117.34 63.63 119.72 66.78 124.06 66.78 C 124.64 66.78 124.92 66.74 125.18 66.67 C 126.52 65.4 127.71 64.37 128.52 63.75 L 129 64.11 C 128.69 65.06 127.55 66.99 127.19 67.36 C 126.42 67.63 124.37 68 123.11 68 C 118.55 68 114 65.59 114 60.14 C 114 54.51 119.08 52 123.01 52 L 123.04 52 Z M 123.04 52" />
    <path fill="#404041" fill-rule="evenodd" d="M 133.02 53.31 L 131.3 52.58 L 131.51 52 C 132.49 52 133.48 52.02 134.49 52.02 C 135.55 52.02 136.6 52 137.68 52 L 137.5 52.6 L 135.94 53.34 L 135.94 58.9 C 137.02 58.59 137.43 58.39 137.89 57.9 C 138.99 56.67 140.4 55.03 141.66 53.25 L 141.7 52 C 142.28 52 142.88 52.02 143.45 52.02 C 144.32 52.02 145.2 52.02 146 52 L 145.82 52.62 L 143.01 53.58 C 141.73 54.92 140.03 56.81 139.11 57.94 L 139.09 58.01 C 139.34 58.41 139.68 58.85 140 59.28 C 142 61.95 144.64 65.22 145.91 66.73 L 145.66 67 C 143.43 66.98 142.28 66.51 141.22 65.38 C 140.23 64.31 138.76 62.37 137.16 60.3 C 136.7 59.68 136.4 59.57 135.94 59.68 C 135.94 62.86 136.01 65.09 136.05 65.33 L 138.08 66.09 L 137.82 66.69 C 136.74 66.69 135.64 66.67 134.47 66.67 C 133.27 66.67 132.1 66.69 131 66.69 L 131.18 66.09 L 132.88 65.33 C 132.97 65.04 133.02 62.75 133.02 59.03 L 133.02 53.31 Z M 133.02 53.31" />
    <path fill="#404041" fill-rule="evenodd" d="M 148.99 53.39 L 147.28 52.61 L 147.49 52 C 148.48 52 149.47 52.05 150.49 52.05 C 151.41 52.05 152.36 52 153.31 52 L 153.1 52.66 L 151.8 53.39 L 151.8 59.48 C 151.8 61.05 151.76 62.86 151.64 64.93 L 151.8 64.93 C 153.95 60.91 156.1 56.93 158.25 52.93 L 158.23 52.05 L 160.4 52.05 C 161.53 52.05 162.64 52 163.77 52 L 163.56 52.64 L 161.83 53.36 L 161.83 59.2 C 161.83 62.05 161.9 65.34 161.97 65.61 L 164 66.36 L 163.84 67 C 162.78 67 161.64 66.98 160.49 66.98 C 159.45 66.98 158.41 67 157.44 67 L 157.63 66.36 L 158.92 65.61 C 159.03 64.05 159.01 62.32 159.01 59.64 C 159.01 57.91 159.06 56.09 159.2 53.86 L 158.99 53.86 C 156.84 57.91 154.69 61.95 152.52 66 L 152.54 66.98 L 150.37 66.98 C 149.29 66.98 148.16 67 147 67 L 147.21 66.39 L 148.85 65.61 C 148.87 65.09 148.99 62 148.99 59.09 L 148.99 53.39 Z M 148.99 53.39" />
    <path fill="#404041" fill-rule="evenodd" d="M 178.16 48 L 178.42 48.09 C 177.92 50.13 176.64 51.1 174.68 51.1 C 172.85 51.1 171.78 50.04 171.78 48.9 C 171.78 48.81 171.81 48.74 171.83 48.65 C 172.02 48.42 172.94 48 173.42 48 L 173.54 48.12 C 173.61 48.83 174.15 49.64 175.39 49.64 C 176.45 49.64 177 48.97 177.26 48.39 L 178.16 48 Z M 168.04 53.62 L 166.28 52.83 L 166.5 52.21 C 167.52 52.21 168.54 52.26 169.58 52.26 C 170.53 52.26 171.5 52.21 172.47 52.21 L 172.26 52.88 L 170.93 53.62 L 170.93 59.82 C 170.93 61.41 170.88 63.26 170.76 65.37 L 170.93 65.37 C 173.13 61.27 175.34 57.23 177.54 53.16 L 177.52 52.26 L 179.75 52.26 C 180.91 52.26 182.05 52.21 183.21 52.21 L 183 52.86 L 181.22 53.6 L 181.22 59.54 C 181.22 62.43 181.29 65.78 181.36 66.06 L 183.45 66.82 L 183.28 67.47 C 182.19 67.47 181.03 67.45 179.84 67.45 C 178.78 67.45 177.71 67.47 176.71 67.47 L 176.9 66.82 L 178.23 66.06 C 178.35 64.47 178.33 62.71 178.33 59.98 C 178.33 58.22 178.37 56.37 178.52 54.11 L 178.3 54.11 C 176.1 58.22 173.89 62.34 171.66 66.45 L 171.69 67.45 L 169.46 67.45 C 168.35 67.45 167.18 67.47 166 67.47 L 166.21 66.85 L 167.9 66.06 C 167.92 65.53 168.04 62.38 168.04 59.42 L 168.04 53.62 Z M 168.04 53.62" />
    <path fill="#047bc0" fill-rule="evenodd" d="M 32.92 77 L 35.46 79.74 L 35.7 79.74 L 35.7 77 L 36.31 77 L 36.31 79.74 L 36.55 79.74 L 39.08 77 L 39.87 77 L 37.16 79.8 C 38.28 79.87 38.9 80.34 39.34 81.44 C 39.55 81.96 39.75 82.58 40 83 L 39.36 83 C 39.12 82.6 38.94 82.09 38.75 81.61 C 38.28 80.42 37.56 80.18 36.54 80.18 L 36.31 80.18 L 36.31 83 L 35.7 83 L 35.7 80.18 L 35.48 80.18 C 34.37 80.18 33.71 80.46 33.23 81.64 C 33.03 82.1 32.85 82.59 32.61 83 L 32 83 C 32.27 82.56 32.46 81.95 32.66 81.45 C 33.13 80.35 33.74 79.87 34.85 79.8 L 32.15 77 L 32.92 77 Z M 32.92 77" />
    <path fill="#047bc0" fill-rule="evenodd" d="M 43.63 77 L 43.63 79.96 C 43.63 80.91 43.63 81.45 43.58 82.34 L 43.6 82.35 C 44.06 81.6 44.3 81.2 44.83 80.44 L 47.3 77 L 48 77 L 48 83 L 47.37 83 L 47.37 80 C 47.37 79 47.39 78.43 47.44 77.64 L 47.41 77.64 C 46.89 78.49 46.54 79.01 46.09 79.66 C 45.35 80.65 44.51 81.86 43.68 83 L 43 83 L 43 77 L 43.63 77 Z M 43.63 77" />
    <path fill="#047bc0" fill-rule="evenodd" d="M 57 77 L 57 82.95 L 56.4 82.95 L 56.4 77.5 L 53.9 77.5 L 53.9 79.28 C 53.9 81.09 53.74 82.28 52.88 82.76 C 52.64 82.9 52.43 83 52.05 83 L 52 82.52 C 52.17 82.49 52.38 82.42 52.55 82.32 C 53.23 81.88 53.3 80.87 53.3 79.33 L 53.3 77 L 57 77 Z M 57 77" />
    <path fill="none" fill-rule="evenodd" d="M 60 83.64 L 65.5 83.64 L 65.5 77 L 60 77 L 60 83.64 L 60 83.64 Z M 60 83.64" />
    <path fill="#047bc0" fill-rule="evenodd" d="M 62.72 83.11 C 63.94 83.11 64.91 81.92 64.91 80.29 C 64.91 79.13 64.31 77.53 62.76 77.53 C 61.26 77.53 60.59 78.97 60.59 80.33 C 60.59 81.92 61.51 83.11 62.71 83.11 L 62.72 83.11 Z M 62.69 83.64 C 61.17 83.64 60 82.36 60 80.37 C 60 78.2 61.32 77 62.77 77 C 64.4 77 65.5 78.32 65.5 80.27 C 65.5 82.62 63.99 83.64 62.7 83.64 L 62.69 83.64 Z M 62.69 83.64" />
    <path fill="#047bc0" fill-rule="evenodd" d="M 71.47 75 C 71.52 75.51 71.83 75.95 72.47 75.94 C 73.16 75.94 73.46 75.51 73.53 75 L 74.12 75 C 74.06 75.89 73.41 76.35 72.46 76.35 C 71.31 76.35 70.94 75.69 70.88 75 L 71.47 75 Z M 70.63 77.3 L 70.63 80.12 C 70.63 81.02 70.63 81.53 70.58 82.37 L 70.6 82.38 C 71.06 81.67 71.3 81.29 71.83 80.57 L 74.3 77.3 L 75 77.3 L 75 83 L 74.37 83 L 74.37 80.15 C 74.37 79.2 74.39 78.66 74.44 77.91 L 74.41 77.91 C 73.89 78.71 73.54 79.21 73.09 79.83 C 72.35 80.77 71.51 81.92 70.68 83 L 70 83 L 70 77.3 L 70.63 77.3 Z M 70.63 77.3" />
    <path fill="#047bc0" fill-rule="evenodd" d="M 85.67 77 L 85.67 79.74 L 85.99 79.74 L 89.05 77 L 89.93 77 L 86.71 79.79 C 87.98 79.89 88.74 80.5 89.34 81.72 C 89.5 82.05 89.72 82.56 90 83 L 89.3 83 C 89.12 82.74 88.85 82.24 88.66 81.84 C 88.1 80.67 87.35 80.19 85.93 80.19 L 85.67 80.19 L 85.67 83 L 85 83 L 85 77 L 85.67 77 Z M 85.67 77" />
    <path fill="none" fill-rule="evenodd" d="M 92 83.64 L 97.5 83.64 L 97.5 77 L 92 77 L 92 83.64 L 92 83.64 Z M 92 83.64" />
    <path fill="#047bc0" fill-rule="evenodd" d="M 94.72 83.11 C 95.94 83.11 96.91 81.92 96.91 80.29 C 96.91 79.13 96.31 77.53 94.76 77.53 C 93.26 77.53 92.59 78.97 92.59 80.33 C 92.59 81.92 93.51 83.11 94.71 83.11 L 94.72 83.11 Z M 94.69 83.64 C 93.17 83.64 92 82.36 92 80.37 C 92 78.2 93.32 77 94.77 77 C 96.4 77 97.5 78.32 97.5 80.27 C 97.5 82.62 95.99 83.64 94.7 83.64 L 94.69 83.64 Z M 94.69 83.64" />
    <path fill="#047bc0" fill-rule="evenodd" d="M 102.52 77 L 103.28 77 L 104.78 80.49 C 104.98 80.99 105.33 81.8 105.48 82.22 L 105.49 82.22 C 105.67 81.75 106.14 80.61 106.44 79.91 L 107.72 77 L 108.51 77 L 109 83 L 108.34 83 L 108.15 79.84 C 108.11 79.11 108.05 78.41 108.01 77.66 L 107.97 77.66 C 107.84 78.05 107.57 78.7 107.17 79.6 L 105.67 83 L 105.19 83 L 103.77 79.65 C 103.54 79.1 103.21 78.21 103.03 77.66 L 102.98 77.66 C 102.96 78.34 102.91 79.11 102.87 79.86 L 102.66 83 L 102 83 L 102.52 77 Z M 102.52 77" />
    <path fill="#047bc0" fill-rule="evenodd" d="M 117 77 L 117 83 L 116.35 83 L 116.35 77.5 L 112.65 77.5 L 112.65 83 L 112 83 L 112 77 L 117 77 Z M 117 77" />
    <path fill="#047bc0" fill-rule="evenodd" d="M 126 77 L 126 82.95 L 125.4 82.95 L 125.4 77.5 L 122.9 77.5 L 122.9 79.28 C 122.9 81.09 122.74 82.28 121.88 82.76 C 121.64 82.9 121.43 83 121.05 83 L 121 82.52 C 121.17 82.49 121.38 82.42 121.55 82.32 C 122.23 81.88 122.3 80.87 122.3 79.33 L 122.3 77 L 126 77 Z M 126 77" />
    <path fill="#047bc0" fill-rule="evenodd" d="M 134.38 79.49 C 134.39 78.69 134.04 77.48 132.61 77.48 C 131.29 77.48 130.73 78.61 130.62 79.49 L 134.38 79.49 Z M 130.58 79.95 C 130.58 81.78 131.63 82.51 132.85 82.51 C 133.72 82.51 134.17 82.34 134.5 82.19 L 134.65 82.63 C 134.43 82.75 133.82 83 132.78 83 C 131.07 83 130 81.8 130 80.11 C 130 78.2 131.14 77 132.68 77 C 134.63 77 135 78.77 135 79.6 C 135 79.75 135 79.84 134.97 79.95 L 130.58 79.95 Z M 130.58 79.95" />
    <path fill="#047bc0" fill-rule="evenodd" d="M 139.67 77 L 139.67 79.74 L 139.99 79.74 L 143.05 77 L 143.93 77 L 140.71 79.79 C 141.98 79.89 142.74 80.5 143.34 81.72 C 143.5 82.05 143.72 82.56 144 83 L 143.3 83 C 143.12 82.74 142.85 82.24 142.66 81.84 C 142.1 80.67 141.35 80.19 139.92 80.19 L 139.67 80.19 L 139.67 83 L 139 83 L 139 77 L 139.67 77 Z M 139.67 77" />
    <path fill="#047bc0" fill-rule="evenodd" d="M 151.97 82.63 C 151.69 82.75 151.02 83 150.08 83 C 148.23 83 147 81.79 147 80.07 C 147 78.23 148.39 77 150.31 77 C 151.1 77 151.76 77.2 152 77.36 L 151.77 77.83 C 151.46 77.66 150.97 77.49 150.26 77.49 C 148.53 77.49 147.64 78.66 147.64 80.02 C 147.64 81.53 148.7 82.51 150.19 82.51 C 150.95 82.51 151.45 82.32 151.8 82.17 L 151.97 82.63 Z M 151.97 82.63" />
    <path fill="#8cc63e" fill-rule="evenodd" d="M 86.87 42 C 86.88 41.97 86.89 41.94 86.9 41.91 C 87.32 40.37 86.38 39.11 84.79 39.11 C 83.99 39.11 83.17 39.44 82.51 39.96 C 82.54 38.3 81.34 37.07 79.5 37.07 C 79.08 37.07 78.66 37.13 78.24 37.25 C 77.79 35.58 76.3 34.43 74.22 34.43 C 71.52 34.43 68.77 36.35 67.67 38.87 C 67.16 38.47 66.49 38.24 65.69 38.24 C 64.88 38.24 64.05 38.48 63.32 38.89 C 63.32 37.5 62.31 36.48 60.77 36.48 C 60.39 36.48 60 36.55 59.63 36.66 C 59.04 34.36 57 32.78 54.16 32.78 C 51.62 32.78 49.03 34.04 47.19 35.96 C 46.7 32.47 43.87 30 39.77 30 C 35.42 30 30.98 32.78 28.68 36.62 C 28.13 36.23 27.42 36 26.6 36 C 24.19 36 21.73 37.9 21.09 40.24 C 21.06 40.36 21.04 40.48 21.01 40.6 C 20.74 39.71 19.92 39.11 18.8 39.11 C 17.15 39.11 15.47 40.4 15 42 L 86.87 42 Z M 86.87 42" />
    <path fill="none" fill-rule="evenodd" d="M 162.65 0 L 80 0 L 80 19.49 L 162.65 19.49 L 162.65 0 L 162.65 0 Z M 162.65 0" />
    <path fill="#047bc0" fill-rule="evenodd" d="M 128.82 0 C 118.92 0 123.27 9.6 115.87 9.6 L 90.77 9.6 C 89.15 9.6 87.53 9.99 86.08 10.84 C 84.64 11.68 83.53 12.87 82.8 14.24 L 80 19.49 L 112.18 19.49 C 123.49 19.49 116.93 9.89 126.89 9.89 L 160.89 9.89 L 162.65 0 L 128.82 0 Z M 128.82 0" />
    <path fill="#047bc0" fill-rule="evenodd" d="M 112.78 25.74 L 84.27 25.74 C 74.27 25.74 79.15 16 67.79 16 L 51.59 16 C 49.67 16 47.76 16.44 46.02 17.39 C 44.28 18.34 42.92 19.68 41.95 21.25 L 39 26.04 L 73.25 26.04 C 80.53 26.04 78.14 35.6 87.36 36 L 109.09 36 C 120.45 36 113.87 26.26 123.87 26.26 L 158.24 26.26 L 160 16.22 L 125.81 16.22 C 115.86 16.22 120.22 25.74 112.78 25.74" />
    <path fill="#047bc0" fill-rule="evenodd" d="M 119.94 33.55 C 118.53 34.6 117.6 36.05 117.17 37.64 L 116 42 L 156.22 42 L 158 32 L 124.74 32 C 123.03 32 121.35 32.5 119.94 33.55" />
</svg>