<?xml version="1.0" encoding="utf-8"?>
<!-- Generator: Avocode 0.4.0 - http://avocode.com -->
<svg height="68" width="147" xmlns:xlink="http://www.w3.org/1999/xlink" xmlns="http://www.w3.org/2000/svg" viewBox="0 0 147 68">
    <path fill="none" fill-rule="evenodd" d="M 0 42 L 0 54.61 L 10.85 54.61 L 10.85 42 L 0 42 L 0 42 Z M 0 42" />
    <path fill="#404041" fill-rule="evenodd" d="M 0.36 42.22 C 1.28 42.22 2.21 42.24 3.13 42.24 L 8.1 42.24 C 8.3 42.19 9.65 42.02 10.11 42 L 10.17 42.07 C 10.15 42.56 9.81 44.45 9.67 44.97 L 9.31 45.1 C 9.07 44.69 8.38 43.48 8.16 43.05 L 4.47 43.23 L 4.47 47.73 C 6.24 47.73 8.26 47.6 9.57 47.47 L 9.67 47.7 C 9.61 47.9 8.73 48.91 8.44 48.91 C 8.16 48.91 5.22 48.7 4.47 48.69 C 4.47 49.83 4.47 52.1 4.55 53.56 L 8.3 53.75 C 8.95 52.98 9.85 51.84 10.45 51.3 L 10.85 51.43 C 10.81 51.84 10.31 54.1 10.09 54.61 C 8.83 54.55 7.7 54.55 6.54 54.55 L 3.07 54.55 C 2.11 54.55 0.96 54.57 0 54.57 L 0.16 54.08 L 1.81 53.43 C 1.87 53.21 1.93 51.28 1.93 48.13 L 1.93 43.33 L 0.2 42.71 L 0.36 42.22 Z M 0.36 42.22" />
    <path fill="#404041" fill-rule="evenodd" d="M 20.25 50.47 C 20.25 49.16 19.53 48.02 16.05 48.05 L 16.05 48.39 C 16.05 49.97 16.05 52.16 16.13 53.3 C 18.08 53.3 19.01 52.93 19.61 52.26 C 20.13 51.71 20.25 51.06 20.25 50.49 L 20.25 50.47 Z M 16.05 47.34 C 17.85 47.32 19.61 46.84 19.61 44.9 C 19.61 43.95 19.15 43.4 18.56 43.09 C 18.1 42.86 17.44 42.73 16.51 42.73 L 16.05 42.73 L 16.05 47.34 Z M 12.21 42.23 C 12.99 42.16 15.76 42 17.04 42 C 20.39 42 22.21 42.79 22.21 44.69 C 22.21 46.46 20.48 47.27 18.89 47.46 L 18.89 47.59 C 21.84 47.84 23 48.88 23 50.51 C 23 53.53 19.07 54 16.3 54 C 14.83 54 13.47 53.98 12 53.95 L 12.14 53.46 L 13.47 52.85 C 13.51 52.57 13.59 51.24 13.59 48.81 L 13.59 43.09 L 12.06 42.68 L 12.21 42.23 Z M 12.21 42.23" />
    <path fill="#404041" fill-rule="evenodd" d="M 24.17 42.27 C 25.87 42.13 27.28 42 28.52 42 C 30.28 42 31.5 42.2 32.43 42.75 C 33.59 43.46 34 44.53 34 45.61 C 34 48.52 31.24 49.33 29.63 49.33 C 29.3 49.33 29.02 49.29 28.81 49.24 L 28.65 48.7 C 30.52 48.54 31.48 47.37 31.48 45.68 C 31.48 43.49 29.93 42.77 27.85 42.77 L 27.85 47.59 C 27.85 51.83 27.96 52.54 27.96 52.83 L 30.11 53.52 L 29.98 54 C 28.91 54 27.78 53.98 26.69 53.98 C 25.8 53.98 24.89 54 24 54 L 24.15 53.53 L 25.44 52.87 C 25.52 52.54 25.52 51.41 25.52 47.62 L 25.52 43.17 L 24 42.74 L 24.17 42.27 Z M 24.17 42.27" />
    <path fill="#404041" fill-rule="evenodd" d="M 42.78 42.75 C 40.18 42.75 38.82 45.29 38.82 48.29 C 38.82 51.25 40.41 54.27 43.29 54.27 C 46.29 54.27 47.18 51.06 47.18 48.59 C 47.18 45.98 45.65 42.75 42.8 42.75 L 42.78 42.75 Z M 43.04 42 C 46.04 42 49.94 43.87 50 48.31 C 50.08 52.96 46.33 55 43.04 55 C 39.82 55 36 52.98 36 48.61 C 36 44.43 39.61 42 43.02 42 L 43.04 42 Z M 43.04 42" />
    <path fill="#404041" fill-rule="evenodd" d="M 50.41 42 C 51.25 42 52.13 42.02 52.96 42.02 L 60.96 42.02 C 61.95 42.02 62.89 42 63.82 42 L 63.67 42.51 L 62.17 43.11 L 62.17 47.71 C 62.17 49.76 62.23 52.6 62.3 52.84 L 64 53.53 L 63.82 54 C 62.93 54 61.95 53.98 61.02 53.98 C 60.2 53.98 59.4 54 58.62 54 L 58.81 53.49 L 59.67 52.89 C 59.71 51.78 59.69 50.65 59.69 47.8 L 59.69 42.98 C 59.09 42.91 58.23 42.85 56.84 42.85 C 55.67 42.85 54.8 42.91 54.19 42.98 L 54.19 47.8 C 54.19 50.64 54.17 51.69 54.21 52.84 L 55.28 53.49 L 55.09 54 C 54.37 54 53.65 53.98 52.87 53.98 C 51.91 53.98 50.94 54 50 54 L 50.18 53.51 L 51.6 52.89 C 51.62 52.47 51.72 49.82 51.72 47.67 L 51.72 43.09 L 50.23 42.49 L 50.41 42 Z M 50.41 42" />
    <path fill="#404041" fill-rule="evenodd" d="M 65.33 42.21 C 66.18 42.21 67.03 42.23 67.88 42.23 L 72.47 42.23 C 72.65 42.18 73.89 42.02 74.32 42 L 74.37 42.07 C 74.35 42.53 74.04 44.33 73.91 44.83 L 73.58 44.95 C 73.36 44.56 72.73 43.4 72.52 43 L 69.12 43.17 L 69.12 47.46 C 70.75 47.46 72.62 47.33 73.82 47.21 L 73.91 47.42 C 73.85 47.62 73.04 48.58 72.78 48.58 C 72.52 48.58 69.81 48.38 69.12 48.36 C 69.12 49.45 69.12 51.62 69.2 53 L 72.65 53.18 C 73.24 52.45 74.08 51.37 74.63 50.85 L 75 50.98 C 74.96 51.37 74.5 53.52 74.3 54 C 73.13 53.95 72.1 53.95 71.03 53.95 L 67.83 53.95 C 66.94 53.95 65.89 53.96 65 53.96 L 65.15 53.5 L 66.66 52.88 C 66.72 52.67 66.77 50.84 66.77 47.83 L 66.77 43.26 L 65.19 42.68 L 65.33 42.21 Z M 65.33 42.21" />
    <path fill="#404041" fill-rule="evenodd" d="M 85.76 39 L 85.97 39.08 C 85.57 40.75 84.54 41.55 82.96 41.55 C 81.5 41.55 80.64 40.67 80.64 39.74 C 80.64 39.66 80.66 39.61 80.68 39.53 C 80.83 39.34 81.57 39 81.95 39 L 82.05 39.09 C 82.11 39.68 82.54 40.35 83.53 40.35 C 84.39 40.35 84.83 39.8 85.04 39.32 L 85.76 39 Z M 77.64 43.62 L 76.23 42.97 L 76.4 42.46 C 77.22 42.46 78.04 42.5 78.87 42.5 C 79.63 42.5 80.41 42.46 81.19 42.46 L 81.02 43.01 L 79.96 43.62 L 79.96 48.71 C 79.96 50.02 79.92 51.54 79.82 53.27 L 79.96 53.27 C 81.73 49.91 83.49 46.58 85.26 43.24 L 85.25 42.5 L 87.03 42.5 C 87.96 42.5 88.88 42.46 89.81 42.46 L 89.64 42.99 L 88.21 43.6 L 88.21 48.48 C 88.21 50.86 88.27 53.61 88.33 53.84 L 90 54.47 L 89.87 55 C 88.99 55 88.06 54.98 87.11 54.98 C 86.25 54.98 85.4 55 84.6 55 L 84.75 54.47 L 85.82 53.84 C 85.91 52.53 85.89 51.09 85.89 48.84 C 85.89 47.4 85.93 45.88 86.04 44.02 L 85.87 44.02 C 84.1 47.4 82.33 50.78 80.55 54.16 L 80.57 54.98 L 78.78 54.98 C 77.88 54.98 76.95 55 76 55 L 76.17 54.49 L 77.52 53.84 C 77.54 53.4 77.64 50.82 77.64 48.39 L 77.64 43.62 Z M 77.64 43.62" />
    <path fill="#404041" fill-rule="evenodd" d="M 99.23 42 C 100.58 42 101.52 42.28 102.13 42.62 C 102.7 42.37 103.41 42.21 103.85 42.15 L 103.96 42.22 C 103.9 42.86 103.33 45.1 103.14 45.55 L 102.72 45.74 C 102.47 45.16 102.11 44.05 101.94 43.36 C 101.58 43.14 100.83 42.93 99.9 42.93 C 96.54 42.93 94.67 45.53 94.67 48.48 C 94.67 51.45 96.58 54.01 100.05 54.01 C 100.51 54.01 100.74 53.97 100.95 53.92 C 102.02 52.89 102.97 52.05 103.62 51.54 L 104 51.84 C 103.75 52.61 102.84 54.18 102.55 54.48 C 101.94 54.7 100.3 55 99.29 55 C 95.64 55 92 53.04 92 48.61 C 92 44.04 96.06 42 99.21 42 L 99.23 42 Z M 99.23 42" />
    <path fill="#404041" fill-rule="evenodd" d="M 106.62 43.05 L 105.24 42.46 L 105.4 42 C 106.19 42 106.98 42.02 107.79 42.02 C 108.64 42.02 109.48 42 110.35 42 L 110.2 42.48 L 108.95 43.07 L 108.95 47.52 C 109.81 47.27 110.15 47.11 110.51 46.72 C 111.4 45.74 112.52 44.42 113.53 43 L 113.56 42 C 114.02 42 114.5 42.02 114.96 42.02 C 115.66 42.02 116.36 42.02 117 42 L 116.85 42.5 L 114.61 43.26 C 113.58 44.33 112.22 45.85 111.49 46.75 L 111.47 46.81 C 111.67 47.13 111.95 47.48 112.2 47.82 C 113.8 49.96 115.92 52.58 116.93 53.79 L 116.72 54 C 114.94 53.98 114.02 53.61 113.18 52.7 C 112.39 51.85 111.21 50.3 109.92 48.64 C 109.56 48.14 109.32 48.05 108.95 48.14 C 108.95 50.69 109.01 52.47 109.04 52.66 L 110.66 53.27 L 110.46 53.75 C 109.59 53.75 108.71 53.73 107.77 53.73 C 106.82 53.73 105.88 53.75 105 53.75 L 105.15 53.27 L 106.51 52.66 C 106.58 52.43 106.62 50.6 106.62 47.63 L 106.62 43.05 Z M 106.62 43.05" />
    <path fill="#404041" fill-rule="evenodd" d="M 119.64 43.11 L 118.23 42.49 L 118.4 42 C 119.22 42 120.04 42.04 120.87 42.04 C 121.63 42.04 122.41 42 123.19 42 L 123.02 42.53 L 121.96 43.11 L 121.96 47.98 C 121.96 49.24 121.92 50.69 121.82 52.35 L 121.96 52.35 C 123.73 49.13 125.5 45.95 127.26 42.75 L 127.24 42.04 L 129.03 42.04 C 129.96 42.04 130.88 42 131.81 42 L 131.64 42.51 L 130.21 43.09 L 130.21 47.76 C 130.21 50.04 130.27 52.67 130.33 52.89 L 132 53.49 L 131.87 54 C 130.99 54 130.06 53.98 129.11 53.98 C 128.25 53.98 127.4 54 126.6 54 L 126.75 53.49 L 127.82 52.89 C 127.91 51.64 127.89 50.25 127.89 48.11 C 127.89 46.73 127.93 45.27 128.04 43.49 L 127.87 43.49 C 126.1 46.73 124.33 49.96 122.55 53.2 L 122.57 53.98 L 120.78 53.98 C 119.88 53.98 118.95 54 118 54 L 118.17 53.51 L 119.52 52.89 C 119.54 52.47 119.64 50 119.64 47.67 L 119.64 43.11 Z M 119.64 43.11" />
    <path fill="#404041" fill-rule="evenodd" d="M 142.46 39 L 142.66 39.07 C 142.27 40.7 141.28 41.48 139.75 41.48 C 138.33 41.48 137.5 40.63 137.5 39.72 C 137.5 39.65 137.52 39.59 137.54 39.52 C 137.68 39.33 138.4 39 138.77 39 L 138.86 39.09 C 138.92 39.67 139.34 40.31 140.3 40.31 C 141.13 40.31 141.55 39.78 141.76 39.31 L 142.46 39 Z M 134.59 43.5 L 133.22 42.87 L 133.39 42.37 C 134.18 42.37 134.97 42.4 135.78 42.4 C 136.52 42.4 137.28 42.37 138.03 42.37 L 137.87 42.9 L 136.83 43.5 L 136.83 48.45 C 136.83 49.73 136.8 51.21 136.71 52.89 L 136.83 52.89 C 138.55 49.62 140.26 46.38 141.98 43.13 L 141.96 42.4 L 143.69 42.4 C 144.6 42.4 145.48 42.37 146.38 42.37 L 146.22 42.89 L 144.84 43.48 L 144.84 48.23 C 144.84 50.54 144.89 53.23 144.95 53.45 L 146.57 54.06 L 146.44 54.58 C 145.59 54.58 144.69 54.56 143.77 54.56 C 142.94 54.56 142.11 54.58 141.33 54.58 L 141.48 54.06 L 142.51 53.45 C 142.61 52.17 142.59 50.77 142.59 48.58 C 142.59 47.18 142.62 45.7 142.73 43.88 L 142.57 43.88 C 140.85 47.18 139.14 50.47 137.41 53.76 L 137.42 54.56 L 135.69 54.56 C 134.83 54.56 133.92 54.58 133 54.58 L 133.17 54.08 L 134.47 53.45 C 134.49 53.02 134.59 50.51 134.59 48.14 L 134.59 43.5 Z M 134.59 43.5" />
    <path fill="#047bc0" fill-rule="evenodd" d="M 25.69 62 L 27.6 64.28 L 27.78 64.28 L 27.78 62 L 28.23 62 L 28.23 64.28 L 28.41 64.28 L 30.31 62 L 30.9 62 L 28.87 64.33 C 29.71 64.4 30.17 64.78 30.5 65.7 C 30.66 66.14 30.81 66.65 31 67 L 30.52 67 C 30.34 66.67 30.2 66.24 30.06 65.84 C 29.71 64.85 29.17 64.65 28.4 64.65 L 28.23 64.65 L 28.23 67 L 27.78 67 L 27.78 64.65 L 27.61 64.65 C 26.78 64.65 26.28 64.89 25.93 65.86 C 25.78 66.25 25.64 66.66 25.46 67 L 25 67 C 25.2 66.64 25.35 66.12 25.5 65.71 C 25.85 64.79 26.3 64.4 27.14 64.33 L 25.11 62 L 25.69 62 Z M 25.69 62" />
    <path fill="#047bc0" fill-rule="evenodd" d="M 35.5 62 L 35.5 64.47 C 35.5 65.26 35.5 65.71 35.46 66.45 L 35.48 66.46 C 35.84 65.83 36.04 65.5 36.47 64.86 L 38.44 62 L 39 62 L 39 67 L 38.5 67 L 38.5 64.5 C 38.5 63.67 38.51 63.19 38.55 62.53 L 38.53 62.53 C 38.11 63.24 37.83 63.68 37.47 64.22 C 36.88 65.04 36.21 66.05 35.55 67 L 35 67 L 35 62 L 35.5 62 Z M 35.5 62" />
    <path fill="#047bc0" fill-rule="evenodd" d="M 46 62 L 46 66.96 L 45.52 66.96 L 45.52 62.41 L 43.52 62.41 L 43.52 63.9 C 43.52 65.41 43.39 66.4 42.7 66.8 C 42.52 66.92 42.35 67 42.04 67 L 42 66.6 C 42.14 66.58 42.31 66.51 42.44 66.43 C 42.98 66.07 43.04 65.22 43.04 63.94 L 43.04 62 L 46 62 Z M 46 62" />
    <path fill="none" fill-rule="evenodd" d="M 48 67.69 L 52.58 67.69 L 52.58 62 L 48 62 L 48 67.69 L 48 67.69 Z M 48 67.69" />
    <path fill="#047bc0" fill-rule="evenodd" d="M 50.27 67.24 C 51.29 67.24 52.09 66.22 52.09 64.82 C 52.09 63.83 51.59 62.45 50.3 62.45 C 49.05 62.45 48.49 63.69 48.49 64.86 C 48.49 66.22 49.26 67.24 50.26 67.24 L 50.27 67.24 Z M 50.24 67.69 C 48.98 67.69 48 66.59 48 64.89 C 48 63.03 49.1 62 50.31 62 C 51.66 62 52.58 63.13 52.58 64.8 C 52.58 66.82 51.33 67.69 50.25 67.69 L 50.24 67.69 Z M 50.24 67.69" />
    <path fill="#047bc0" fill-rule="evenodd" d="M 57.18 61 C 57.22 61.45 57.47 61.83 57.98 61.82 C 58.52 61.82 58.77 61.45 58.82 61 L 59.29 61 C 59.25 61.78 58.73 62.18 57.97 62.18 C 57.05 62.18 56.75 61.6 56.71 61 L 57.18 61 Z M 56.5 63.01 L 56.5 65.48 C 56.5 66.27 56.5 66.71 56.46 67.45 L 56.48 67.46 C 56.84 66.84 57.04 66.5 57.47 65.87 L 59.44 63.01 L 60 63.01 L 60 68 L 59.5 68 L 59.5 65.51 C 59.5 64.68 59.51 64.2 59.55 63.54 L 59.53 63.54 C 59.11 64.25 58.83 64.69 58.47 65.23 C 57.88 66.05 57.21 67.05 56.55 68 L 56 68 L 56 63.01 L 56.5 63.01 Z M 56.5 63.01" />
    <path fill="#047bc0" fill-rule="evenodd" d="M 68.54 62 L 68.54 64.28 L 68.8 64.28 L 71.24 62 L 71.94 62 L 69.37 64.32 C 70.39 64.41 70.99 64.92 71.47 65.94 C 71.6 66.21 71.78 66.64 72 67 L 71.44 67 C 71.29 66.78 71.08 66.36 70.92 66.03 C 70.48 65.06 69.88 64.66 68.74 64.66 L 68.54 64.66 L 68.54 67 L 68 67 L 68 62 L 68.54 62 Z M 68.54 62" />
    <path fill="none" fill-rule="evenodd" d="M 74 67.69 L 78.58 67.69 L 78.58 62 L 74 62 L 74 67.69 L 74 67.69 Z M 74 67.69" />
    <path fill="#047bc0" fill-rule="evenodd" d="M 76.27 67.24 C 77.29 67.24 78.09 66.22 78.09 64.82 C 78.09 63.83 77.59 62.45 76.3 62.45 C 75.05 62.45 74.49 63.69 74.49 64.86 C 74.49 66.22 75.26 67.24 76.26 67.24 L 76.27 67.24 Z M 76.24 67.69 C 74.98 67.69 74 66.59 74 64.89 C 74 63.03 75.1 62 76.31 62 C 77.66 62 78.58 63.13 78.58 64.8 C 78.58 66.82 77.33 67.69 76.25 67.69 L 76.24 67.69 Z M 76.24 67.69" />
    <path fill="#047bc0" fill-rule="evenodd" d="M 82.45 62 L 83.1 62 L 84.38 64.91 C 84.56 65.32 84.85 66 84.98 66.35 L 84.99 66.35 C 85.15 65.96 85.55 65.01 85.81 64.43 L 86.9 62 L 87.58 62 L 88 67 L 87.43 67 L 87.27 64.36 C 87.23 63.76 87.19 63.18 87.15 62.55 L 87.12 62.55 C 87.01 62.88 86.77 63.42 86.43 64.17 L 85.15 67 L 84.74 67 L 83.52 64.21 C 83.32 63.75 83.04 63.01 82.88 62.55 L 82.84 62.55 C 82.83 63.11 82.78 63.76 82.74 64.39 L 82.57 67 L 82 67 L 82.45 62 Z M 82.45 62" />
    <path fill="#047bc0" fill-rule="evenodd" d="M 94 62 L 94 67 L 93.48 67 L 93.48 62.42 L 90.52 62.42 L 90.52 67 L 90 67 L 90 62 L 94 62 Z M 94 62" />
    <path fill="#047bc0" fill-rule="evenodd" d="M 101 62 L 101 66.96 L 100.52 66.96 L 100.52 62.41 L 98.52 62.41 L 98.52 63.9 C 98.52 65.41 98.39 66.4 97.7 66.8 C 97.52 66.92 97.35 67 97.04 67 L 97 66.6 C 97.14 66.58 97.31 66.51 97.44 66.43 C 97.98 66.07 98.04 65.22 98.04 63.94 L 98.04 62 L 101 62 Z M 101 62" />
    <path fill="#047bc0" fill-rule="evenodd" d="M 107.5 64.08 C 107.51 63.41 107.24 62.4 106.08 62.4 C 105.03 62.4 104.59 63.34 104.5 64.08 L 107.5 64.08 Z M 104.47 64.46 C 104.47 65.98 105.3 66.59 106.28 66.59 C 106.98 66.59 107.33 66.45 107.6 66.32 L 107.72 66.69 C 107.54 66.79 107.06 67 106.22 67 C 104.85 67 104 66 104 64.6 C 104 63 104.91 62 106.14 62 C 107.7 62 108 63.48 108 64.17 C 108 64.3 108 64.37 107.98 64.46 L 104.47 64.46 Z M 104.47 64.46" />
    <path fill="#047bc0" fill-rule="evenodd" d="M 112.54 62 L 112.54 64.28 L 112.8 64.28 L 115.24 62 L 115.94 62 L 113.37 64.32 C 114.39 64.41 114.99 64.92 115.47 65.94 C 115.6 66.21 115.78 66.64 116 67 L 115.44 67 C 115.29 66.78 115.08 66.36 114.92 66.03 C 114.48 65.06 113.88 64.66 112.74 64.66 L 112.54 64.66 L 112.54 67 L 112 67 L 112 62 L 112.54 62 Z M 112.54 62" />
    <path fill="#047bc0" fill-rule="evenodd" d="M 121.98 66.69 C 121.75 66.79 121.22 67 120.47 67 C 118.99 67 118 65.99 118 64.56 C 118 63.03 119.12 62 120.65 62 C 121.28 62 121.81 62.17 122 62.3 L 121.82 62.69 C 121.57 62.55 121.17 62.41 120.61 62.41 C 119.22 62.41 118.51 63.39 118.51 64.51 C 118.51 65.77 119.36 66.59 120.55 66.59 C 121.16 66.59 121.56 66.43 121.84 66.31 L 121.98 66.69 Z M 121.98 66.69" />
    <path fill="#8cc63e" fill-rule="evenodd" d="M 69.9 34 C 69.9 33.98 69.91 33.95 69.92 33.93 C 70.26 32.64 69.5 31.6 68.22 31.6 C 67.57 31.6 66.92 31.87 66.38 32.3 C 66.4 30.92 65.44 29.89 63.96 29.89 C 63.62 29.89 63.28 29.94 62.95 30.04 C 62.58 28.65 61.38 27.69 59.7 27.69 C 57.53 27.69 55.32 29.3 54.43 31.39 C 54.02 31.06 53.47 30.86 52.83 30.86 C 52.18 30.86 51.52 31.07 50.92 31.41 C 50.92 30.25 50.11 29.4 48.87 29.4 C 48.56 29.4 48.25 29.46 47.95 29.55 C 47.47 27.63 45.84 26.32 43.55 26.32 C 41.5 26.32 39.41 27.37 37.93 28.97 C 37.54 26.06 35.25 24 31.95 24 C 28.45 24 24.87 26.32 23.02 29.52 C 22.58 29.19 22.01 29 21.34 29 C 19.41 29 17.42 30.58 16.91 32.54 C 16.88 32.64 16.86 32.74 16.85 32.84 C 16.62 32.09 15.96 31.6 15.06 31.6 C 13.73 31.6 12.38 32.67 12 34 L 69.9 34 Z M 69.9 34" />
    <path fill="none" fill-rule="evenodd" d="M 130.71 0 L 64 0 L 64 15.59 L 130.71 15.59 L 130.71 0 L 130.71 0 Z M 130.71 0" />
    <path fill="#047bc0" fill-rule="evenodd" d="M 103.41 0 C 95.41 0 98.93 7.68 92.95 7.68 L 72.7 7.68 C 71.38 7.68 70.08 7.99 68.91 8.67 C 67.74 9.34 66.85 10.29 66.26 11.39 L 64 15.59 L 89.97 15.59 C 99.1 15.59 93.81 7.91 101.85 7.91 L 129.3 7.91 L 130.71 0 L 103.41 0 Z M 103.41 0" />
    <path fill="#047bc0" fill-rule="evenodd" d="M 91.15 20.79 L 68.29 20.79 C 60.27 20.79 64.19 13 55.08 13 L 42.09 13 C 40.55 13 39.02 13.35 37.63 14.11 C 36.24 14.87 35.14 15.94 34.36 17.2 L 32 21.03 L 59.46 21.03 C 65.29 21.03 63.38 28.68 70.77 29 L 88.19 29 C 97.29 29 92.02 21.21 100.04 21.21 L 127.59 21.21 L 129 13.18 L 101.59 13.18 C 93.61 13.18 97.11 20.79 91.15 20.79" />
    <path fill="#047bc0" fill-rule="evenodd" d="M 96.09 27.24 C 94.98 28.08 94.26 29.24 93.92 30.52 L 93 34 L 124.6 34 L 126 26 L 99.87 26 C 98.52 26 97.2 26.4 96.09 27.24" />
</svg>