<?xml version="1.0" encoding="utf-8"?>
<!-- Generator: Avocode 0.4.0 - http://avocode.com -->
<svg height="196" width="237" xmlns:xlink="http://www.w3.org/1999/xlink" xmlns="http://www.w3.org/2000/svg" viewBox="0 0 237 196">
    <path fill="#ffffff" fill-rule="evenodd" d="M 0 0 L 237 0 L 237 165.31 L 126.25 195.31 L 0 165.31 L 0 0 Z M 0 0" />
    <path fill="none" fill-rule="evenodd" d="M 33 88 L 33 102.55 L 44.84 102.55 L 44.84 88 L 33 88 L 33 88 Z M 33 88" />
    <path fill="#404041" fill-rule="evenodd" d="M 33.39 88.26 C 34.4 88.26 35.41 88.28 36.41 88.28 L 41.84 88.28 C 42.06 88.22 43.52 88.02 44.03 88 L 44.09 88.09 C 44.07 88.65 43.7 90.82 43.55 91.43 L 43.15 91.58 C 42.89 91.1 42.15 89.7 41.91 89.21 L 37.88 89.42 L 37.88 94.62 C 39.81 94.62 42.02 94.46 43.44 94.31 L 43.55 94.57 C 43.48 94.81 42.52 95.97 42.21 95.97 C 41.91 95.97 38.69 95.74 37.88 95.71 C 37.88 97.03 37.88 99.66 37.97 101.34 L 42.06 101.55 C 42.76 100.67 43.74 99.36 44.4 98.73 L 44.84 98.88 C 44.79 99.36 44.25 101.96 44.01 102.55 C 42.63 102.48 41.4 102.48 40.13 102.48 L 36.35 102.48 C 35.3 102.48 34.05 102.5 33 102.5 L 33.18 101.94 L 34.97 101.19 C 35.04 100.93 35.1 98.71 35.1 95.07 L 35.1 89.53 L 33.22 88.82 L 33.39 88.26 Z M 33.39 88.26" />
    <path fill="#404041" fill-rule="evenodd" d="M 56 98.59 C 56 96.96 55.22 95.52 51.42 95.57 L 51.42 95.99 C 51.42 97.96 51.42 100.69 51.5 102.13 C 53.63 102.13 54.65 101.66 55.3 100.83 C 55.87 100.13 56 99.33 56 98.61 L 56 98.59 Z M 51.42 94.67 C 53.38 94.65 55.3 94.04 55.3 91.63 C 55.3 90.44 54.8 89.75 54.16 89.37 C 53.66 89.08 52.94 88.92 51.92 88.92 L 51.42 88.92 L 51.42 94.67 Z M 47.23 88.29 C 48.08 88.2 51.1 88 52.49 88 C 56.15 88 58.13 88.99 58.13 91.36 C 58.13 93.58 56.25 94.58 54.52 94.83 L 54.52 94.99 C 57.73 95.3 59 96.6 59 98.63 C 59 102.42 54.71 103 51.69 103 C 50.08 103 48.61 102.98 47 102.93 L 47.15 102.33 L 48.61 101.57 C 48.65 101.21 48.73 99.55 48.73 96.51 L 48.73 89.37 L 47.06 88.85 L 47.23 88.29 Z M 47.23 88.29" />
    <path fill="#404041" fill-rule="evenodd" d="M 61.2 88.34 C 63.24 88.16 64.93 88 66.42 88 C 68.53 88 70 88.25 71.11 88.94 C 72.51 89.82 73 91.17 73 92.51 C 73 96.15 69.69 97.16 67.76 97.16 C 67.36 97.16 67.02 97.12 66.78 97.05 L 66.58 96.38 C 68.82 96.17 69.98 94.71 69.98 92.6 C 69.98 89.86 68.11 88.97 65.62 88.97 L 65.62 94.98 C 65.62 100.28 65.76 101.18 65.76 101.54 L 68.33 102.39 L 68.18 103 C 66.89 103 65.53 102.98 64.22 102.98 C 63.16 102.98 62.07 103 61 103 L 61.18 102.42 L 62.73 101.59 C 62.82 101.18 62.82 99.77 62.82 95.03 L 62.82 89.46 L 61 88.92 L 61.2 88.34 Z M 61.2 88.34" />
    <path fill="#404041" fill-rule="evenodd" d="M 82.75 88.86 C 79.77 88.86 78.23 91.79 78.23 95.26 C 78.23 98.67 80.04 102.16 83.34 102.16 C 86.76 102.16 87.77 98.45 87.77 95.61 C 87.77 92.59 86.02 88.86 82.77 88.86 L 82.75 88.86 Z M 83.04 88 C 86.47 88 90.93 90.15 91 95.28 C 91.09 100.65 86.81 103 83.04 103 C 79.37 103 75 100.67 75 95.63 C 75 90.8 79.12 88 83.02 88 L 83.04 88 Z M 83.04 88" />
    <path fill="#404041" fill-rule="evenodd" d="M 92.47 88 C 93.43 88 94.43 88.02 95.39 88.02 L 104.52 88.02 C 105.66 88.02 106.73 88 107.8 88 L 107.62 88.64 L 105.91 89.39 L 105.91 95.14 C 105.91 97.7 105.97 101.25 106.06 101.55 L 108 102.41 L 107.8 103 C 106.77 103 105.66 102.98 104.59 102.98 C 103.65 102.98 102.74 103 101.85 103 L 102.07 102.36 L 103.05 101.61 C 103.1 100.23 103.08 98.82 103.08 95.25 L 103.08 89.23 C 102.38 89.14 101.4 89.07 99.82 89.07 C 98.48 89.07 97.48 89.14 96.79 89.23 L 96.79 95.25 C 96.79 98.8 96.77 100.11 96.81 101.55 L 98.04 102.36 L 97.82 103 C 96.99 103 96.17 102.98 95.28 102.98 C 94.18 102.98 93.07 103 92 103 L 92.2 102.39 L 93.83 101.61 C 93.85 101.09 93.96 97.77 93.96 95.09 L 93.96 89.36 L 92.27 88.61 L 92.47 88 Z M 92.47 88" />
    <path fill="#404041" fill-rule="evenodd" d="M 110.4 88.27 C 111.42 88.27 112.44 88.29 113.46 88.29 L 118.96 88.29 C 119.18 88.22 120.67 88.02 121.18 88 L 121.25 88.09 C 121.22 88.67 120.85 90.91 120.69 91.53 L 120.29 91.69 C 120.03 91.2 119.27 89.76 119.03 89.24 L 114.95 89.47 L 114.95 94.82 C 116.9 94.82 119.14 94.67 120.58 94.51 L 120.69 94.78 C 120.62 95.02 119.65 96.22 119.34 96.22 C 119.03 96.22 115.77 95.98 114.95 95.96 C 114.95 97.31 114.95 100.02 115.04 101.76 L 119.18 101.98 C 119.89 101.07 120.89 99.71 121.56 99.07 L 122 99.22 C 121.96 99.71 121.4 102.4 121.16 103 C 119.76 102.93 118.52 102.93 117.23 102.93 L 113.39 102.93 C 112.33 102.93 111.06 102.96 110 102.96 L 110.18 102.38 L 112 101.6 C 112.06 101.33 112.13 99.04 112.13 95.29 L 112.13 89.58 L 110.22 88.84 L 110.4 88.27 Z M 110.4 88.27" />
    <path fill="#404041" fill-rule="evenodd" d="M 134.15 85 L 134.39 85.09 C 133.93 86.97 132.76 87.87 130.96 87.87 C 129.28 87.87 128.3 86.88 128.3 85.83 C 128.3 85.75 128.33 85.68 128.35 85.6 C 128.52 85.39 129.37 85 129.8 85 L 129.91 85.11 C 129.98 85.77 130.48 86.52 131.61 86.52 C 132.59 86.52 133.09 85.9 133.33 85.36 L 134.15 85 Z M 124.87 90.2 L 123.26 89.47 L 123.46 88.89 C 124.39 88.89 125.33 88.93 126.28 88.93 C 127.15 88.93 128.04 88.89 128.93 88.89 L 128.74 89.51 L 127.52 90.2 L 127.52 95.92 C 127.52 97.4 127.48 99.11 127.37 101.06 L 127.52 101.06 C 129.54 97.27 131.57 93.53 133.59 89.77 L 133.57 88.93 L 135.61 88.93 C 136.67 88.93 137.72 88.89 138.78 88.89 L 138.59 89.49 L 136.96 90.17 L 136.96 95.67 C 136.96 98.34 137.02 101.44 137.09 101.7 L 139 102.4 L 138.85 103 C 137.85 103 136.78 102.98 135.7 102.98 C 134.72 102.98 133.74 103 132.83 103 L 133 102.4 L 134.22 101.7 C 134.33 100.22 134.3 98.6 134.3 96.07 C 134.3 94.45 134.35 92.74 134.48 90.64 L 134.28 90.64 C 132.26 94.45 130.24 98.25 128.2 102.06 L 128.22 102.98 L 126.17 102.98 C 125.15 102.98 124.09 103 123 103 L 123.2 102.42 L 124.74 101.7 C 124.76 101.2 124.87 98.3 124.87 95.56 L 124.87 90.2 Z M 124.87 90.2" />
    <path fill="#404041" fill-rule="evenodd" d="M 149.44 88 C 151.02 88 152.11 88.32 152.82 88.71 C 153.49 88.43 154.31 88.24 154.82 88.17 L 154.96 88.26 C 154.89 88.99 154.22 91.58 154 92.1 L 153.51 92.31 C 153.22 91.64 152.8 90.37 152.6 89.57 C 152.17 89.31 151.31 89.08 150.21 89.08 C 146.3 89.08 144.12 92.07 144.12 95.48 C 144.12 98.9 146.34 101.86 150.39 101.86 C 150.93 101.86 151.19 101.81 151.44 101.75 C 152.69 100.56 153.8 99.6 154.55 99.01 L 155 99.36 C 154.71 100.24 153.64 102.05 153.31 102.4 C 152.6 102.66 150.68 103 149.5 103 C 145.25 103 141 100.74 141 95.63 C 141 90.35 145.74 88 149.41 88 L 149.44 88 Z M 149.44 88" />
    <path fill="#404041" fill-rule="evenodd" d="M 158.02 90.31 L 156.3 89.58 L 156.51 89 C 157.49 89 158.48 89.02 159.49 89.02 C 160.55 89.02 161.6 89 162.68 89 L 162.5 89.6 L 160.94 90.34 L 160.94 95.9 C 162.02 95.59 162.43 95.39 162.89 94.9 C 163.99 93.67 165.4 92.03 166.66 90.25 L 166.7 89 C 167.28 89 167.88 89.02 168.45 89.02 C 169.32 89.02 170.2 89.02 171 89 L 170.82 89.62 L 168.01 90.58 C 166.73 91.92 165.03 93.81 164.11 94.94 L 164.09 95.01 C 164.34 95.41 164.68 95.85 165 96.28 C 167 98.95 169.64 102.22 170.91 103.73 L 170.66 104 C 168.43 103.98 167.28 103.51 166.22 102.38 C 165.23 101.31 163.76 99.37 162.16 97.3 C 161.7 96.68 161.4 96.57 160.94 96.68 C 160.94 99.86 161.01 102.09 161.05 102.33 L 163.08 103.09 L 162.82 103.69 C 161.74 103.69 160.64 103.67 159.47 103.67 C 158.27 103.67 157.1 103.69 156 103.69 L 156.18 103.09 L 157.88 102.33 C 157.97 102.04 158.02 99.75 158.02 96.03 L 158.02 90.31 Z M 158.02 90.31" />
    <path fill="#404041" fill-rule="evenodd" d="M 173.87 90.39 L 172.26 89.61 L 172.46 89 C 173.39 89 174.33 89.05 175.28 89.05 C 176.15 89.05 177.04 89 177.94 89 L 177.74 89.66 L 176.52 90.39 L 176.52 96.48 C 176.52 98.05 176.48 99.86 176.37 101.93 L 176.52 101.93 C 178.54 97.91 180.57 93.93 182.59 89.93 L 182.57 89.05 L 184.61 89.05 C 185.67 89.05 186.72 89 187.78 89 L 187.59 89.64 L 185.96 90.36 L 185.96 96.2 C 185.96 99.05 186.02 102.34 186.09 102.61 L 188 103.36 L 187.85 104 C 186.85 104 185.78 103.98 184.7 103.98 C 183.72 103.98 182.74 104 181.83 104 L 182 103.36 L 183.22 102.61 C 183.33 101.05 183.3 99.32 183.3 96.64 C 183.3 94.91 183.35 93.09 183.48 90.86 L 183.28 90.86 C 181.26 94.91 179.24 98.95 177.2 103 L 177.22 103.98 L 175.17 103.98 C 174.15 103.98 173.09 104 172 104 L 172.2 103.39 L 173.74 102.61 C 173.76 102.09 173.87 99 173.87 96.09 L 173.87 90.39 Z M 173.87 90.39" />
    <path fill="#404041" fill-rule="evenodd" d="M 201.48 85 L 201.73 85.09 C 201.26 87.02 200.05 87.94 198.19 87.94 C 196.47 87.94 195.46 86.93 195.46 85.86 C 195.46 85.77 195.48 85.7 195.51 85.62 C 195.69 85.4 196.56 85 197.01 85 L 197.12 85.11 C 197.19 85.79 197.7 86.56 198.87 86.56 C 199.87 86.56 200.39 85.92 200.63 85.37 L 201.48 85 Z M 191.92 90.34 L 190.27 89.59 L 190.47 89 C 191.43 89 192.4 89.04 193.38 89.04 C 194.28 89.04 195.19 89 196.11 89 L 195.91 89.64 L 194.66 90.34 L 194.66 96.23 C 194.66 97.74 194.61 99.5 194.5 101.5 L 194.66 101.5 C 196.74 97.61 198.82 93.77 200.9 89.9 L 200.88 89.04 L 202.98 89.04 C 204.08 89.04 205.16 89 206.25 89 L 206.05 89.61 L 204.37 90.32 L 204.37 95.96 C 204.37 98.71 204.44 101.89 204.51 102.16 L 206.48 102.88 L 206.32 103.5 C 205.29 103.5 204.19 103.48 203.07 103.48 C 202.07 103.48 201.06 103.5 200.12 103.5 L 200.3 102.88 L 201.55 102.16 C 201.66 100.64 201.64 98.97 201.64 96.38 C 201.64 94.71 201.69 92.95 201.82 90.8 L 201.62 90.8 C 199.54 94.71 197.45 98.62 195.35 102.53 L 195.37 103.48 L 193.27 103.48 C 192.22 103.48 191.12 103.5 190 103.5 L 190.2 102.91 L 191.79 102.16 C 191.81 101.65 191.92 98.67 191.92 95.85 L 191.92 90.34 Z M 191.92 90.34" />
    <path fill="#047bc0" fill-rule="evenodd" d="M 63.8 112 L 66.03 114.74 L 66.24 114.74 L 66.24 112 L 66.77 112 L 66.77 114.74 L 66.98 114.74 L 69.2 112 L 69.88 112 L 67.52 114.8 C 68.49 114.87 69.04 115.34 69.42 116.44 C 69.61 116.96 69.78 117.58 70 118 L 69.44 118 C 69.23 117.6 69.07 117.09 68.91 116.61 C 68.49 115.42 67.86 115.18 66.97 115.18 L 66.77 115.18 L 66.77 118 L 66.24 118 L 66.24 115.18 L 66.04 115.18 C 65.08 115.18 64.5 115.46 64.08 116.64 C 63.91 117.1 63.74 117.59 63.53 118 L 63 118 C 63.23 117.56 63.41 116.95 63.58 116.45 C 63.99 115.35 64.52 114.87 65.5 114.8 L 63.13 112 L 63.8 112 Z M 63.8 112" />
    <path fill="#047bc0" fill-rule="evenodd" d="M 74.5 112 L 74.5 114.96 C 74.5 115.91 74.5 116.45 74.46 117.34 L 74.48 117.35 C 74.84 116.6 75.04 116.2 75.47 115.44 L 77.44 112 L 78 112 L 78 118 L 77.5 118 L 77.5 115 C 77.5 114 77.51 113.43 77.55 112.64 L 77.53 112.64 C 77.11 113.49 76.83 114.01 76.47 114.66 C 75.88 115.65 75.21 116.86 74.55 118 L 74 118 L 74 112 L 74.5 112 Z M 74.5 112" />
    <path fill="#047bc0" fill-rule="evenodd" d="M 87 112 L 87 117.95 L 86.4 117.95 L 86.4 112.5 L 83.9 112.5 L 83.9 114.28 C 83.9 116.09 83.74 117.28 82.88 117.76 C 82.64 117.9 82.43 118 82.05 118 L 82 117.52 C 82.17 117.49 82.38 117.42 82.55 117.32 C 83.23 116.88 83.3 115.87 83.3 114.33 L 83.3 112 L 87 112 Z M 87 112" />
    <path fill="none" fill-rule="evenodd" d="M 91 118.64 L 96.5 118.64 L 96.5 112 L 91 112 L 91 118.64 L 91 118.64 Z M 91 118.64" />
    <path fill="#047bc0" fill-rule="evenodd" d="M 93.72 118.11 C 94.94 118.11 95.91 116.92 95.91 115.29 C 95.91 114.13 95.31 112.53 93.76 112.53 C 92.26 112.53 91.59 113.97 91.59 115.33 C 91.59 116.92 92.51 118.11 93.71 118.11 L 93.72 118.11 Z M 93.69 118.64 C 92.17 118.64 91 117.36 91 115.37 C 91 113.2 92.32 112 93.77 112 C 95.4 112 96.5 113.32 96.5 115.27 C 96.5 117.62 94.99 118.64 93.7 118.64 L 93.69 118.64 Z M 93.69 118.64" />
    <path fill="#047bc0" fill-rule="evenodd" d="M 100.18 110 C 100.22 110.51 100.47 110.95 100.98 110.94 C 101.52 110.94 101.77 110.51 101.82 110 L 102.29 110 C 102.25 110.89 101.73 111.35 100.97 111.35 C 100.05 111.35 99.75 110.69 99.71 110 L 100.18 110 Z M 99.5 112.3 L 99.5 115.12 C 99.5 116.02 99.5 116.53 99.46 117.37 L 99.48 117.38 C 99.84 116.67 100.04 116.29 100.47 115.57 L 102.44 112.3 L 103 112.3 L 103 118 L 102.5 118 L 102.5 115.15 C 102.5 114.2 102.51 113.66 102.55 112.91 L 102.53 112.91 C 102.11 113.71 101.83 114.21 101.47 114.83 C 100.88 115.77 100.21 116.92 99.55 118 L 99 118 L 99 112.3 L 99.5 112.3 Z M 99.5 112.3" />
    <path fill="#047bc0" fill-rule="evenodd" d="M 113.54 112 L 113.54 114.74 L 113.8 114.74 L 116.24 112 L 116.94 112 L 114.37 114.79 C 115.39 114.89 115.99 115.5 116.47 116.72 C 116.6 117.05 116.78 117.56 117 118 L 116.44 118 C 116.29 117.74 116.08 117.24 115.92 116.84 C 115.48 115.67 114.88 115.19 113.74 115.19 L 113.54 115.19 L 113.54 118 L 113 118 L 113 112 L 113.54 112 Z M 113.54 112" />
    <path fill="none" fill-rule="evenodd" d="M 120 118.64 L 125.5 118.64 L 125.5 112 L 120 112 L 120 118.64 L 120 118.64 Z M 120 118.64" />
    <path fill="#047bc0" fill-rule="evenodd" d="M 122.72 118.11 C 123.94 118.11 124.91 116.92 124.91 115.29 C 124.91 114.13 124.31 112.53 122.76 112.53 C 121.26 112.53 120.59 113.97 120.59 115.33 C 120.59 116.92 121.51 118.11 122.71 118.11 L 122.72 118.11 Z M 122.69 118.64 C 121.17 118.64 120 117.36 120 115.37 C 120 113.2 121.32 112 122.77 112 C 124.4 112 125.5 113.32 125.5 115.27 C 125.5 117.62 123.99 118.64 122.7 118.64 L 122.69 118.64 Z M 122.69 118.64" />
    <path fill="#047bc0" fill-rule="evenodd" d="M 129.52 112 L 130.28 112 L 131.78 115.49 C 131.98 115.99 132.33 116.8 132.48 117.22 L 132.49 117.22 C 132.67 116.75 133.14 115.61 133.44 114.91 L 134.72 112 L 135.51 112 L 136 118 L 135.34 118 L 135.15 114.84 C 135.11 114.11 135.05 113.41 135.01 112.66 L 134.97 112.66 C 134.84 113.05 134.57 113.7 134.17 114.6 L 132.67 118 L 132.19 118 L 130.77 114.65 C 130.54 114.1 130.21 113.21 130.03 112.66 L 129.98 112.66 C 129.96 113.34 129.91 114.11 129.87 114.86 L 129.66 118 L 129 118 L 129.52 112 Z M 129.52 112" />
    <path fill="#047bc0" fill-rule="evenodd" d="M 143 112 L 143 118 L 142.48 118 L 142.48 112.5 L 139.52 112.5 L 139.52 118 L 139 118 L 139 112 L 143 112 Z M 143 112" />
    <path fill="#047bc0" fill-rule="evenodd" d="M 152 112 L 152 117.95 L 151.4 117.95 L 151.4 112.5 L 148.9 112.5 L 148.9 114.28 C 148.9 116.09 148.74 117.28 147.88 117.76 C 147.64 117.9 147.43 118 147.05 118 L 147 117.52 C 147.17 117.49 147.38 117.42 147.55 117.32 C 148.23 116.88 148.3 115.87 148.3 114.33 L 148.3 112 L 152 112 Z M 152 112" />
    <path fill="#047bc0" fill-rule="evenodd" d="M 160.38 114.49 C 160.39 113.69 160.04 112.48 158.61 112.48 C 157.29 112.48 156.73 113.61 156.62 114.49 L 160.38 114.49 Z M 156.58 114.95 C 156.58 116.78 157.63 117.51 158.85 117.51 C 159.72 117.51 160.17 117.34 160.5 117.19 L 160.65 117.63 C 160.43 117.75 159.82 118 158.78 118 C 157.07 118 156 116.8 156 115.11 C 156 113.2 157.14 112 158.68 112 C 160.63 112 161 113.77 161 114.6 C 161 114.75 161 114.84 160.97 114.95 L 156.58 114.95 Z M 156.58 114.95" />
    <path fill="#047bc0" fill-rule="evenodd" d="M 164.54 112 L 164.54 114.74 L 164.8 114.74 L 167.24 112 L 167.94 112 L 165.37 114.79 C 166.39 114.89 166.99 115.5 167.47 116.72 C 167.6 117.05 167.78 117.56 168 118 L 167.44 118 C 167.29 117.74 167.08 117.24 166.92 116.84 C 166.48 115.67 165.88 115.19 164.74 115.19 L 164.54 115.19 L 164.54 118 L 164 118 L 164 112 L 164.54 112 Z M 164.54 112" />
    <path fill="#047bc0" fill-rule="evenodd" d="M 175.98 117.63 C 175.75 117.75 175.22 118 174.47 118 C 172.99 118 172 116.79 172 115.07 C 172 113.23 173.12 112 174.65 112 C 175.28 112 175.81 112.2 176 112.36 L 175.82 112.83 C 175.57 112.66 175.17 112.49 174.61 112.49 C 173.22 112.49 172.51 113.66 172.51 115.02 C 172.51 116.53 173.36 117.51 174.55 117.51 C 175.16 117.51 175.56 117.32 175.84 117.17 L 175.98 117.63 Z M 175.98 117.63" />
    <path fill="#8cc63e" fill-rule="evenodd" d="M 114.88 80 C 114.89 79.97 114.9 79.94 114.91 79.91 C 115.3 78.37 114.41 77.11 112.92 77.11 C 112.16 77.11 111.39 77.44 110.76 77.96 C 110.78 76.3 109.65 75.07 107.92 75.07 C 107.52 75.07 107.12 75.13 106.73 75.25 C 106.3 73.58 104.89 72.43 102.93 72.43 C 100.38 72.43 97.79 74.35 96.75 76.87 C 96.26 76.47 95.62 76.24 94.87 76.24 C 94.1 76.24 93.33 76.48 92.63 76.89 C 92.63 75.5 91.68 74.48 90.22 74.48 C 89.87 74.48 89.5 74.55 89.15 74.66 C 88.59 72.36 86.67 70.78 83.98 70.78 C 81.58 70.78 79.14 72.04 77.4 73.96 C 76.94 70.47 74.26 68 70.4 68 C 66.29 68 62.09 70.78 59.92 74.62 C 59.4 74.23 58.73 74 57.95 74 C 55.68 74 53.36 75.9 52.76 78.24 C 52.72 78.36 52.7 78.48 52.68 78.6 C 52.42 77.71 51.65 77.11 50.59 77.11 C 49.03 77.11 47.44 78.4 47 80 L 114.88 80 Z M 114.88 80" />
    <path fill="none" fill-rule="evenodd" d="M 186.66 39 L 108 39 L 108 57.51 L 186.66 57.51 L 186.66 39 L 186.66 39 Z M 186.66 39" />
    <path fill="#047bc0" fill-rule="evenodd" d="M 154.47 39 C 145.04 39 149.19 48.12 142.14 48.12 L 118.25 48.12 C 116.7 48.12 115.17 48.49 113.79 49.3 C 112.41 50.1 111.36 51.22 110.67 52.53 L 108 57.51 L 138.63 57.51 C 149.39 57.51 143.15 48.39 152.63 48.39 L 184.99 48.39 L 186.66 39 L 154.47 39 Z M 154.47 39" />
    <path fill="#047bc0" fill-rule="evenodd" d="M 140.12 63.26 L 113.02 63.26 C 103.52 63.26 108.16 54 97.37 54 L 81.97 54 C 80.14 54 78.33 54.42 76.67 55.32 C 75.02 56.22 73.72 57.5 72.8 58.99 L 70 63.53 L 102.55 63.53 C 109.47 63.53 107.2 72.62 115.97 73 L 136.62 73 C 147.41 73 141.15 63.74 150.66 63.74 L 183.32 63.74 L 185 54.21 L 152.5 54.21 C 143.05 54.21 147.19 63.26 140.12 63.26" />
    <path fill="#047bc0" fill-rule="evenodd" d="M 145.66 71.55 C 144.34 72.6 143.48 74.05 143.09 75.64 L 142 80 L 179.34 80 L 181 70 L 150.12 70 C 148.53 70 146.97 70.5 145.66 71.55" />
</svg>