<?xml version="1.0" encoding="utf-8"?>
<!-- Generator: Avocode 0.4.0 - http://avocode.com -->
<svg height="109" width="238" xmlns:xlink="http://www.w3.org/1999/xlink" xmlns="http://www.w3.org/2000/svg" viewBox="0 0 238 109">
    <path fill="none" fill-rule="evenodd" d="M 0 67 L 0 87.36 L 16.77 87.36 L 16.77 67 L 0 67 L 0 67 Z M 0 67" />
    <path fill="#404041" fill-rule="evenodd" d="M 0.56 67.36 C 1.98 67.36 3.41 67.39 4.84 67.39 L 12.52 67.39 C 12.83 67.3 14.91 67.03 15.62 67 L 15.72 67.12 C 15.69 67.91 15.16 70.95 14.94 71.8 L 14.38 72.01 C 14.01 71.34 12.96 69.38 12.62 68.69 L 6.91 68.99 L 6.91 76.26 C 9.64 76.26 12.77 76.05 14.79 75.84 L 14.94 76.2 C 14.85 76.53 13.48 78.16 13.05 78.16 C 12.62 78.16 8.06 77.83 6.91 77.8 C 6.91 79.64 6.91 83.32 7.04 85.67 L 12.83 85.98 C 13.83 84.74 15.22 82.9 16.15 82.02 L 16.77 82.24 C 16.71 82.9 15.93 86.55 15.59 87.36 C 13.64 87.27 11.9 87.27 10.11 87.27 L 4.74 87.27 C 3.25 87.27 1.49 87.3 0 87.3 L 0.25 86.52 L 2.79 85.46 C 2.88 85.1 2.98 81.99 2.98 76.9 L 2.98 69.14 L 0.31 68.15 L 0.56 67.36 Z M 0.56 67.36" />
    <path fill="#404041" fill-rule="evenodd" d="M 31.75 81.12 C 31.75 78.94 30.64 77.03 25.26 77.09 L 25.26 77.66 C 25.26 80.28 25.26 83.93 25.37 85.84 C 28.4 85.84 29.83 85.21 30.76 84.1 C 31.57 83.18 31.75 82.1 31.75 81.15 L 31.75 81.12 Z M 25.26 75.9 C 28.04 75.87 30.76 75.06 30.76 71.84 C 30.76 70.25 30.04 69.33 29.15 68.82 C 28.43 68.43 27.41 68.22 25.97 68.22 L 25.26 68.22 L 25.26 75.9 Z M 19.33 67.39 C 20.53 67.27 24.81 67 26.78 67 C 31.96 67 34.77 68.31 34.77 71.48 C 34.77 74.43 32.11 75.78 29.66 76.1 L 29.66 76.31 C 34.2 76.73 36 78.46 36 81.18 C 36 86.22 29.92 87 25.64 87 C 23.37 87 21.27 86.97 19 86.91 L 19.21 86.1 L 21.27 85.09 C 21.33 84.61 21.45 82.4 21.45 78.34 L 21.45 68.82 L 19.09 68.13 L 19.33 67.39 Z M 19.33 67.39" />
    <path fill="#404041" fill-rule="evenodd" d="M 38.27 67.45 C 40.99 67.21 43.24 67 45.23 67 C 48.04 67 50 67.33 51.48 68.26 C 53.35 69.43 54 71.22 54 73.02 C 54 77.87 49.58 79.22 47.01 79.22 C 46.47 79.22 46.03 79.16 45.7 79.07 L 45.44 78.17 C 48.43 77.9 49.97 75.95 49.97 73.14 C 49.97 69.49 47.48 68.29 44.16 68.29 L 44.16 76.31 C 44.16 83.38 44.34 84.57 44.34 85.05 L 47.78 86.19 L 47.57 87 C 45.85 87 44.04 86.97 42.3 86.97 C 40.87 86.97 39.42 87 38 87 L 38.24 86.22 L 40.31 85.11 C 40.43 84.57 40.43 82.69 40.43 76.37 L 40.43 68.95 L 38 68.23 L 38.27 67.45 Z M 38.27 67.45" />
    <path fill="#404041" fill-rule="evenodd" d="M 68.66 68.21 C 64.56 68.21 62.44 72.31 62.44 77.17 C 62.44 81.93 64.93 86.82 69.46 86.82 C 74.17 86.82 75.56 81.63 75.56 77.65 C 75.56 73.43 73.16 68.21 68.69 68.21 L 68.66 68.21 Z M 69.06 67 C 73.77 67 79.91 70.02 80 77.2 C 80.12 84.71 74.24 88 69.06 88 C 64.01 88 58 84.74 58 77.68 C 58 70.92 63.67 67 69.03 67 L 69.06 67 Z M 69.06 67" />
    <path fill="#404041" fill-rule="evenodd" d="M 81.64 68 C 82.96 68 84.34 68.03 85.66 68.03 L 98.22 68.03 C 99.78 68.03 101.25 68 102.72 68 L 102.48 68.85 L 100.12 69.85 L 100.12 77.52 C 100.12 80.94 100.21 85.67 100.33 86.06 L 103 87.21 L 102.72 88 C 101.31 88 99.78 87.97 98.31 87.97 C 97.02 87.97 95.77 88 94.54 88 L 94.85 87.15 L 96.2 86.15 C 96.26 84.3 96.23 82.42 96.23 77.67 L 96.23 69.64 C 95.28 69.51 93.93 69.42 91.76 69.42 C 89.92 69.42 88.54 69.51 87.59 69.64 L 87.59 77.67 C 87.59 82.39 87.56 84.15 87.62 86.06 L 89.3 87.15 L 89 88 C 87.86 88 86.73 87.97 85.5 87.97 C 84 87.97 82.47 88 81 88 L 81.28 87.18 L 83.51 86.15 C 83.54 85.45 83.7 81.03 83.7 77.45 L 83.7 69.82 L 81.37 68.82 L 81.64 68 Z M 81.64 68" />
    <path fill="#404041" fill-rule="evenodd" d="M 105.53 67.36 C 106.89 67.36 108.25 67.39 109.61 67.39 L 116.95 67.39 C 117.24 67.3 119.23 67.03 119.91 67 L 119.99 67.12 C 119.97 67.89 119.46 70.88 119.25 71.71 L 118.72 71.92 C 118.37 71.27 117.36 69.34 117.04 68.66 L 111.6 68.96 L 111.6 76.1 C 114.2 76.1 117.18 75.89 119.11 75.68 L 119.25 76.04 C 119.17 76.36 117.87 77.96 117.45 77.96 C 117.04 77.96 112.69 77.64 111.6 77.61 C 111.6 79.41 111.6 83.03 111.71 85.34 L 117.24 85.64 C 118.19 84.42 119.52 82.61 120.41 81.76 L 121 81.96 C 120.94 82.61 120.2 86.2 119.88 87 C 118.01 86.91 116.36 86.91 114.64 86.91 L 109.53 86.91 C 108.11 86.91 106.42 86.94 105 86.94 L 105.24 86.17 L 107.66 85.13 C 107.75 84.78 107.84 81.73 107.84 76.72 L 107.84 69.1 L 105.3 68.13 L 105.53 67.36 Z M 105.53 67.36" />
    <path fill="#404041" fill-rule="evenodd" d="M 138.33 62 L 138.66 62.12 C 138.03 64.73 136.42 65.98 133.94 65.98 C 131.64 65.98 130.29 64.61 130.29 63.16 C 130.29 63.04 130.32 62.95 130.35 62.83 C 130.59 62.53 131.76 62 132.36 62 L 132.51 62.15 C 132.59 63.07 133.28 64.11 134.84 64.11 C 136.18 64.11 136.87 63.25 137.2 62.51 L 138.33 62 Z M 125.57 69.22 L 123.36 68.21 L 123.63 67.4 C 124.91 67.4 126.2 67.46 127.51 67.46 C 128.71 67.46 129.93 67.4 131.16 67.4 L 130.89 68.27 L 129.22 69.22 L 129.22 77.17 C 129.22 79.22 129.16 81.6 129.01 84.3 L 129.22 84.3 C 132 79.04 134.78 73.85 137.56 68.62 L 137.53 67.46 L 140.34 67.46 C 141.8 67.46 143.24 67.4 144.7 67.4 L 144.43 68.24 L 142.19 69.19 L 142.19 76.82 C 142.19 80.53 142.28 84.83 142.37 85.19 L 145 86.17 L 144.79 87 C 143.42 87 141.95 86.97 140.46 86.97 C 139.11 86.97 137.77 87 136.51 87 L 136.75 86.17 L 138.42 85.19 C 138.57 83.14 138.54 80.88 138.54 77.38 C 138.54 75.12 138.6 72.75 138.78 69.84 L 138.51 69.84 C 135.73 75.12 132.95 80.41 130.14 85.69 L 130.17 86.97 L 127.36 86.97 C 125.96 86.97 124.49 87 123 87 L 123.27 86.2 L 125.39 85.19 C 125.42 84.51 125.57 80.47 125.57 76.67 L 125.57 69.22 Z M 125.57 69.22" />
    <path fill="#404041" fill-rule="evenodd" d="M 159.45 67 C 161.59 67 163.07 67.45 164.04 68 C 164.95 67.6 166.06 67.33 166.76 67.24 L 166.94 67.36 C 166.85 68.39 165.94 72.01 165.64 72.73 L 164.98 73.03 C 164.58 72.1 164.01 70.32 163.74 69.2 C 163.16 68.84 161.99 68.51 160.51 68.51 C 155.19 68.51 152.23 72.7 152.23 77.47 C 152.23 82.27 155.25 86.4 160.75 86.4 C 161.47 86.4 161.83 86.34 162.17 86.25 C 163.86 84.59 165.37 83.23 166.4 82.42 L 167 82.9 C 166.61 84.14 165.16 86.67 164.7 87.16 C 163.74 87.52 161.14 88 159.54 88 C 153.77 88 148 84.83 148 77.68 C 148 70.29 154.43 67 159.42 67 L 159.45 67 Z M 159.45 67" />
    <path fill="#404041" fill-rule="evenodd" d="M 171.7 69.75 L 169.4 68.77 L 169.67 68 C 170.99 68 172.31 68.03 173.65 68.03 C 175.06 68.03 176.47 68 177.91 68 L 177.67 68.8 L 175.59 69.78 L 175.59 77.2 C 177.02 76.78 177.58 76.52 178.19 75.86 C 179.66 74.23 181.53 72.04 183.21 69.66 L 183.27 68 C 184.04 68 184.83 68.03 185.6 68.03 C 186.76 68.03 187.93 68.03 189 68 L 188.76 68.83 L 185.02 70.11 C 183.3 71.89 181.04 74.41 179.81 75.92 L 179.78 76.01 C 180.12 76.55 180.58 77.14 181.01 77.7 C 183.67 81.26 187.19 85.63 188.88 87.64 L 188.54 88 C 185.57 87.97 184.04 87.35 182.63 85.83 C 181.31 84.41 179.35 81.83 177.21 79.07 C 176.6 78.24 176.2 78.09 175.59 78.24 C 175.59 82.48 175.68 85.45 175.74 85.77 L 178.43 86.78 L 178.1 87.58 C 176.66 87.58 175.19 87.55 173.62 87.55 C 172.03 87.55 170.47 87.58 169 87.58 L 169.24 86.78 L 171.51 85.77 C 171.63 85.39 171.7 82.33 171.7 77.38 L 171.7 69.75 Z M 171.7 69.75" />
    <path fill="#404041" fill-rule="evenodd" d="M 192.57 69.85 L 190.36 68.82 L 190.63 68 C 191.91 68 193.2 68.06 194.51 68.06 C 195.71 68.06 196.93 68 198.16 68 L 197.89 68.88 L 196.22 69.85 L 196.22 77.97 C 196.22 80.06 196.16 82.48 196.01 85.24 L 196.22 85.24 C 199 79.88 201.78 74.58 204.56 69.24 L 204.53 68.06 L 207.34 68.06 C 208.8 68.06 210.24 68 211.7 68 L 211.43 68.85 L 209.19 69.82 L 209.19 77.61 C 209.19 81.39 209.28 85.79 209.37 86.15 L 212 87.15 L 211.79 88 C 210.42 88 208.95 87.97 207.46 87.97 C 206.11 87.97 204.77 88 203.51 88 L 203.75 87.15 L 205.42 86.15 C 205.57 84.06 205.54 81.76 205.54 78.18 C 205.54 75.88 205.6 73.45 205.78 70.48 L 205.51 70.48 C 202.73 75.88 199.95 81.27 197.14 86.67 L 197.17 87.97 L 194.36 87.97 C 192.96 87.97 191.49 88 190 88 L 190.27 87.18 L 192.39 86.15 C 192.42 85.45 192.57 81.33 192.57 77.45 L 192.57 69.85 Z M 192.57 69.85" />
    <path fill="#404041" fill-rule="evenodd" d="M 230.54 62 L 230.87 62.12 C 230.23 64.77 228.6 66.03 226.09 66.03 C 223.75 66.03 222.39 64.65 222.39 63.17 C 222.39 63.05 222.42 62.96 222.45 62.84 C 222.69 62.54 223.87 62 224.48 62 L 224.63 62.15 C 224.72 63.08 225.42 64.13 226.99 64.13 C 228.36 64.13 229.05 63.26 229.39 62.51 L 230.54 62 Z M 217.6 69.31 L 215.36 68.28 L 215.64 67.47 C 216.94 67.47 218.24 67.53 219.57 67.53 C 220.78 67.53 222.03 67.47 223.27 67.47 L 223 68.34 L 221.3 69.31 L 221.3 77.36 C 221.3 79.44 221.24 81.84 221.09 84.58 L 221.3 84.58 C 224.12 79.26 226.93 74 229.75 68.7 L 229.72 67.53 L 232.57 67.53 C 234.05 67.53 235.51 67.47 236.99 67.47 L 236.72 68.31 L 234.44 69.28 L 234.44 77 C 234.44 80.76 234.54 85.12 234.63 85.48 L 237.29 86.47 L 237.08 87.31 C 235.69 87.31 234.2 87.28 232.69 87.28 C 231.32 87.28 229.96 87.31 228.69 87.31 L 228.93 86.47 L 230.63 85.48 C 230.78 83.41 230.75 81.12 230.75 77.57 C 230.75 75.29 230.81 72.88 230.99 69.94 L 230.72 69.94 C 227.9 75.29 225.09 80.64 222.24 85.99 L 222.27 87.28 L 219.42 87.28 C 218 87.28 216.51 87.31 215 87.31 L 215.27 86.5 L 217.42 85.48 C 217.45 84.79 217.6 80.7 217.6 76.85 L 217.6 69.31 Z M 217.6 69.31" />
    <path fill="#047bc0" fill-rule="evenodd" d="M 42.14 100 L 45.33 103.65 L 45.63 103.65 L 45.63 100 L 46.39 100 L 46.39 103.65 L 46.69 103.65 L 49.86 100 L 50.83 100 L 47.45 103.73 C 48.84 103.83 49.62 104.45 50.17 105.92 C 50.44 106.62 50.68 107.43 51 108 L 50.2 108 C 49.91 107.47 49.67 106.78 49.44 106.15 C 48.84 104.57 47.95 104.23 46.67 104.23 L 46.39 104.23 L 46.39 108 L 45.63 108 L 45.63 104.23 L 45.34 104.23 C 43.97 104.23 43.14 104.62 42.54 106.18 C 42.29 106.8 42.06 107.45 41.76 108 L 41 108 C 41.33 107.42 41.58 106.6 41.83 105.93 C 42.41 104.47 43.17 103.83 44.57 103.73 L 41.18 100 L 42.14 100 Z M 42.14 100" />
    <path fill="#047bc0" fill-rule="evenodd" d="M 56.75 100 L 56.75 103.95 C 56.75 105.22 56.75 105.93 56.69 107.12 L 56.72 107.13 C 57.27 106.13 57.56 105.6 58.2 104.58 L 61.17 100 L 62 100 L 62 108 L 61.25 108 L 61.25 104 C 61.25 102.67 61.26 101.9 61.33 100.85 L 61.29 100.85 C 60.67 101.98 60.25 102.68 59.71 103.55 C 58.82 104.87 57.81 106.48 56.82 108 L 56 108 L 56 100 L 56.75 100 Z M 56.75 100" />
    <path fill="#047bc0" fill-rule="evenodd" d="M 74 100 L 74 107.93 L 73.17 107.93 L 73.17 100.66 L 69.66 100.66 L 69.66 103.04 C 69.66 105.45 69.43 107.04 68.23 107.69 C 67.9 107.87 67.61 108 67.07 108 L 67 107.36 C 67.24 107.32 67.54 107.22 67.76 107.09 C 68.72 106.51 68.82 105.16 68.82 103.11 L 68.82 100 L 74 100 Z M 74 100" />
    <path fill="none" fill-rule="evenodd" d="M 78 108.54 L 85.33 108.54 L 85.33 100 L 78 100 L 78 108.54 L 78 108.54 Z M 78 108.54" />
    <path fill="#047bc0" fill-rule="evenodd" d="M 81.63 107.86 C 83.26 107.86 84.55 106.33 84.55 104.24 C 84.55 102.74 83.75 100.68 81.68 100.68 C 79.68 100.68 78.78 102.53 78.78 104.29 C 78.78 106.33 80.02 107.86 81.61 107.86 L 81.63 107.86 Z M 81.58 108.54 C 79.56 108.54 78 106.89 78 104.34 C 78 101.55 79.76 100 81.7 100 C 83.86 100 85.33 101.7 85.33 104.2 C 85.33 107.23 83.32 108.54 81.6 108.54 L 81.58 108.54 Z M 81.58 108.54" />
    <path fill="#047bc0" fill-rule="evenodd" d="M 92.76 97 C 92.83 97.7 93.2 98.31 93.97 98.29 C 94.79 98.29 95.15 97.7 95.24 97 L 95.94 97 C 95.88 98.22 95.09 98.86 93.95 98.86 C 92.57 98.86 92.12 97.95 92.06 97 L 92.76 97 Z M 91.75 100.17 L 91.75 104.03 C 91.75 105.27 91.75 105.98 91.69 107.14 L 91.72 107.15 C 92.27 106.17 92.56 105.65 93.2 104.65 L 96.17 100.17 L 97 100.17 L 97 108 L 96.25 108 L 96.25 104.08 C 96.25 102.78 96.26 102.03 96.33 101 L 96.29 101 C 95.67 102.11 95.25 102.79 94.71 103.64 C 93.82 104.93 92.81 106.51 91.82 108 L 91 108 L 91 100.17 L 91.75 100.17 Z M 91.75 100.17" />
    <path fill="#047bc0" fill-rule="evenodd" d="M 110.81 100 L 110.81 103.65 L 111.19 103.65 L 114.86 100 L 115.92 100 L 112.05 103.72 C 113.58 103.85 114.49 104.67 115.21 106.3 C 115.39 106.73 115.66 107.42 116 108 L 115.16 108 C 114.94 107.65 114.62 106.98 114.39 106.45 C 113.71 104.9 112.82 104.25 111.11 104.25 L 110.81 104.25 L 110.81 108 L 110 108 L 110 100 L 110.81 100 Z M 110.81 100" />
    <path fill="none" fill-rule="evenodd" d="M 119 108.54 L 126.33 108.54 L 126.33 100 L 119 100 L 119 108.54 L 119 108.54 Z M 119 108.54" />
    <path fill="#047bc0" fill-rule="evenodd" d="M 122.63 107.86 C 124.26 107.86 125.54 106.33 125.54 104.24 C 125.54 102.74 124.75 100.68 122.68 100.68 C 120.68 100.68 119.78 102.53 119.78 104.29 C 119.78 106.33 121.02 107.86 122.61 107.86 L 122.63 107.86 Z M 122.58 108.54 C 120.56 108.54 119 106.89 119 104.34 C 119 101.55 120.76 100 122.7 100 C 124.86 100 126.33 101.7 126.33 104.2 C 126.33 107.23 124.32 108.54 122.6 108.54 L 122.58 108.54 Z M 122.58 108.54" />
    <path fill="#047bc0" fill-rule="evenodd" d="M 132.67 100 L 133.64 100 L 135.57 104.65 C 135.84 105.32 136.28 106.4 136.47 106.97 L 136.49 106.97 C 136.72 106.33 137.32 104.82 137.71 103.88 L 139.36 100 L 140.36 100 L 141 108 L 140.15 108 L 139.9 103.78 C 139.85 102.82 139.78 101.88 139.73 100.88 L 139.67 100.88 C 139.51 101.4 139.16 102.27 138.65 103.47 L 136.72 108 L 136.1 108 L 134.28 103.53 C 133.98 102.8 133.56 101.62 133.33 100.88 L 133.26 100.88 C 133.24 101.78 133.17 102.82 133.11 103.82 L 132.85 108 L 132 108 L 132.67 100 Z M 132.67 100" />
    <path fill="#047bc0" fill-rule="evenodd" d="M 151 100 L 151 108 L 150.22 108 L 150.22 100.67 L 145.79 100.67 L 145.79 108 L 145 108 L 145 100 L 151 100 Z M 151 100" />
    <path fill="#047bc0" fill-rule="evenodd" d="M 163 100 L 163 107.93 L 162.17 107.93 L 162.17 100.66 L 158.66 100.66 L 158.66 103.04 C 158.66 105.45 158.43 107.04 157.23 107.69 C 156.9 107.87 156.61 108 156.07 108 L 156 107.36 C 156.24 107.32 156.54 107.22 156.76 107.09 C 157.72 106.51 157.82 105.16 157.82 103.11 L 157.82 100 L 163 100 Z M 163 100" />
    <path fill="#047bc0" fill-rule="evenodd" d="M 174.13 103.32 C 174.15 102.25 173.66 100.64 171.65 100.64 C 169.81 100.64 169.02 102.14 168.87 103.32 L 174.13 103.32 Z M 168.82 103.93 C 168.82 106.37 170.28 107.35 171.99 107.35 C 173.21 107.35 173.84 107.12 174.31 106.91 L 174.51 107.51 C 174.2 107.66 173.35 108 171.89 108 C 169.49 108 168 106.4 168 104.15 C 168 101.6 169.6 100 171.75 100 C 174.48 100 175 102.36 175 103.46 C 175 103.67 175 103.78 174.96 103.93 L 168.82 103.93 Z M 168.82 103.93" />
    <path fill="#047bc0" fill-rule="evenodd" d="M 180.81 100 L 180.81 103.65 L 181.19 103.65 L 184.86 100 L 185.92 100 L 182.05 103.72 C 183.58 103.85 184.49 104.67 185.21 106.3 C 185.4 106.73 185.66 107.42 186 108 L 185.16 108 C 184.94 107.65 184.62 106.98 184.39 106.45 C 183.71 104.9 182.82 104.25 181.11 104.25 L 180.81 104.25 L 180.81 108 L 180 108 L 180 100 L 180.81 100 Z M 180.81 100" />
    <path fill="#047bc0" fill-rule="evenodd" d="M 195.97 107.51 C 195.63 107.67 194.83 108 193.7 108 C 191.48 108 190 106.39 190 104.09 C 190 101.65 191.67 100 193.97 100 C 194.92 100 195.71 100.27 196 100.48 L 195.73 101.1 C 195.36 100.88 194.76 100.65 193.91 100.65 C 191.83 100.65 190.77 102.22 190.77 104.02 C 190.77 106.04 192.04 107.35 193.83 107.35 C 194.75 107.35 195.34 107.09 195.76 106.9 L 195.97 107.51 Z M 195.97 107.51" />
    <path fill="#8cc63e" fill-rule="evenodd" d="M 111.83 55 C 111.85 54.96 111.86 54.92 111.87 54.88 C 112.41 52.82 111.19 51.15 109.15 51.15 C 108.11 51.15 107.06 51.58 106.2 52.28 C 106.23 50.06 104.68 48.42 102.31 48.42 C 101.77 48.42 101.22 48.51 100.69 48.67 C 100.1 46.43 98.18 44.91 95.49 44.91 C 92.01 44.91 88.46 47.47 87.04 50.83 C 86.38 50.29 85.5 49.98 84.47 49.98 C 83.42 49.98 82.36 50.3 81.41 50.86 C 81.41 49.01 80.1 47.64 78.12 47.64 C 77.62 47.64 77.13 47.73 76.65 47.88 C 75.88 44.81 73.25 42.71 69.58 42.71 C 66.3 42.71 62.96 44.39 60.58 46.95 C 59.95 42.29 56.29 39 51 39 C 45.38 39 39.64 42.71 36.68 47.83 C 35.96 47.31 35.05 47 33.98 47 C 30.88 47 27.69 49.53 26.87 52.66 C 26.83 52.82 26.8 52.98 26.77 53.14 C 26.41 51.95 25.36 51.15 23.91 51.15 C 21.78 51.15 19.6 52.87 19 55 L 111.83 55 Z M 111.83 55" />
    <path fill="none" fill-rule="evenodd" d="M 210.54 0 L 103 0 L 103 25.33 L 210.54 25.33 L 210.54 0 L 210.54 0 Z M 210.54 0" />
    <path fill="#047bc0" fill-rule="evenodd" d="M 166.53 0 C 153.64 0 159.31 12.48 149.67 12.48 L 117.02 12.48 C 114.9 12.48 112.8 12.99 110.92 14.09 C 109.03 15.18 107.6 16.72 106.64 18.51 L 103 25.33 L 144.87 25.33 C 159.59 25.33 151.05 12.85 164.01 12.85 L 208.26 12.85 L 210.54 0 L 166.53 0 Z M 166.53 0" />
    <path fill="#047bc0" fill-rule="evenodd" d="M 146.73 33.66 L 109.73 33.66 C 96.76 33.66 103.1 21 88.36 21 L 67.34 21 C 64.85 21 62.37 21.58 60.11 22.81 C 57.86 24.04 56.08 25.78 54.82 27.83 L 51 34.05 L 95.44 34.05 C 104.89 34.05 101.79 46.49 113.75 47 L 141.95 47 C 156.68 47 148.14 34.34 161.12 34.34 L 205.71 34.34 L 208 21.29 L 163.64 21.29 C 150.73 21.29 156.38 33.66 146.73 33.66" />
    <path fill="#047bc0" fill-rule="evenodd" d="M 155.06 44.02 C 153.25 45.38 152.05 47.26 151.5 49.34 L 150 55 L 201.71 55 L 204 42 L 161.24 42 C 159.04 42 156.88 42.65 155.06 44.02" />
</svg>