<?xml version="1.0" encoding="utf-8"?>
<!-- Generator: Avocode 0.4.0 - http://avocode.com -->
<svg height="231" width="281" xmlns:xlink="http://www.w3.org/1999/xlink" xmlns="http://www.w3.org/2000/svg" viewBox="0 0 281 231">
    <path stroke-linejoin="miter" stroke-linecap="butt" stroke-width="1" stroke="#efefef" fill="#ffffff" fill-rule="evenodd" d="M 0 40 L 140.94 0 L 281 40 L 281 231 L 0 231 L 0 40 Z M 0 40" />
    <path fill="none" fill-rule="evenodd" d="M 49 146 L 49 161.52 L 61.82 161.52 L 61.82 146 L 49 146 L 49 146 Z M 49 146" />
    <path fill="#404041" fill-rule="evenodd" d="M 49.43 146.28 C 50.52 146.28 51.61 146.3 52.7 146.3 L 58.58 146.3 C 58.81 146.23 60.4 146.02 60.95 146 L 61.02 146.09 C 61 146.69 60.59 149.01 60.43 149.66 L 60 149.82 C 59.71 149.31 58.91 147.82 58.65 147.29 L 54.29 147.52 L 54.29 153.06 C 56.37 153.06 58.77 152.9 60.31 152.73 L 60.43 153.01 C 60.35 153.26 59.31 154.51 58.98 154.51 C 58.65 154.51 55.16 154.25 54.29 154.23 C 54.29 155.63 54.29 158.44 54.38 160.23 L 58.81 160.46 C 59.57 159.52 60.64 158.11 61.35 157.45 L 61.82 157.61 C 61.78 158.11 61.18 160.9 60.92 161.52 C 59.43 161.45 58.1 161.45 56.73 161.45 L 52.63 161.45 C 51.49 161.45 50.14 161.47 49 161.47 L 49.19 160.87 L 51.13 160.07 C 51.2 159.79 51.28 157.42 51.28 153.54 L 51.28 147.63 L 49.24 146.87 L 49.43 146.28 Z M 49.43 146.28" />
    <path fill="#404041" fill-rule="evenodd" d="M 73.75 156.59 C 73.75 154.96 72.9 153.52 68.78 153.57 L 68.78 153.99 C 68.78 155.96 68.78 158.69 68.87 160.13 C 71.19 160.13 72.29 159.66 72.99 158.83 C 73.61 158.13 73.75 157.33 73.75 156.61 L 73.75 156.59 Z M 68.78 152.67 C 70.91 152.65 72.99 152.04 72.99 149.63 C 72.99 148.44 72.45 147.75 71.76 147.37 C 71.21 147.08 70.43 146.92 69.33 146.92 L 68.78 146.92 L 68.78 152.67 Z M 64.25 146.29 C 65.17 146.2 68.44 146 69.95 146 C 73.91 146 76.06 146.99 76.06 149.36 C 76.06 151.58 74.02 152.58 72.15 152.83 L 72.15 152.99 C 75.63 153.3 77 154.6 77 156.63 C 77 160.42 72.35 161 69.08 161 C 67.34 161 65.74 160.98 64 160.93 L 64.16 160.33 L 65.74 159.57 C 65.79 159.21 65.88 157.55 65.88 154.51 L 65.88 147.37 L 64.07 146.85 L 64.25 146.29 Z M 64.25 146.29" />
    <path fill="#404041" fill-rule="evenodd" d="M 78.2 146.34 C 80.24 146.16 81.93 146 83.42 146 C 85.53 146 87 146.25 88.11 146.94 C 89.51 147.82 90 149.17 90 150.51 C 90 154.15 86.69 155.16 84.76 155.16 C 84.36 155.16 84.02 155.12 83.78 155.05 L 83.58 154.38 C 85.82 154.17 86.98 152.71 86.98 150.6 C 86.98 147.86 85.11 146.97 82.62 146.97 L 82.62 152.98 C 82.62 158.28 82.76 159.18 82.76 159.54 L 85.33 160.39 L 85.18 161 C 83.89 161 82.53 160.98 81.22 160.98 C 80.16 160.98 79.07 161 78 161 L 78.18 160.42 L 79.73 159.59 C 79.82 159.18 79.82 157.77 79.82 153.03 L 79.82 147.46 L 78 146.92 L 78.2 146.34 Z M 78.2 146.34" />
    <path fill="#404041" fill-rule="evenodd" d="M 102.24 146.92 C 99.07 146.92 97.43 150.05 97.43 153.75 C 97.43 157.38 99.36 161.1 102.86 161.1 C 106.5 161.1 107.57 157.15 107.57 154.11 C 107.57 150.9 105.71 146.92 102.26 146.92 L 102.24 146.92 Z M 102.55 146 C 106.19 146 110.93 148.3 111 153.77 C 111.09 159.49 106.55 162 102.55 162 C 98.64 162 94 159.52 94 154.14 C 94 148.99 98.38 146 102.52 146 L 102.55 146 Z M 102.55 146" />
    <path fill="#404041" fill-rule="evenodd" d="M 112.5 146 C 113.52 146 114.58 146.02 115.6 146.02 L 125.31 146.02 C 126.51 146.02 127.65 146 128.79 146 L 128.6 146.64 L 126.77 147.39 L 126.77 153.14 C 126.77 155.7 126.85 159.25 126.94 159.55 L 129 160.41 L 128.79 161 C 127.7 161 126.51 160.98 125.38 160.98 C 124.38 160.98 123.41 161 122.47 161 L 122.7 160.36 L 123.74 159.61 C 123.79 158.23 123.77 156.82 123.77 153.25 L 123.77 147.23 C 123.03 147.14 121.99 147.07 120.31 147.07 C 118.89 147.07 117.82 147.14 117.09 147.23 L 117.09 153.25 C 117.09 156.8 117.07 158.11 117.11 159.55 L 118.42 160.36 L 118.18 161 C 117.3 161 116.43 160.98 115.48 160.98 C 114.32 160.98 113.14 161 112 161 L 112.21 160.39 L 113.94 159.61 C 113.97 159.09 114.08 155.77 114.08 153.09 L 114.08 147.36 L 112.28 146.61 L 112.5 146 Z M 112.5 146" />
    <path fill="#404041" fill-rule="evenodd" d="M 130.4 146.27 C 131.42 146.27 132.44 146.29 133.46 146.29 L 138.96 146.29 C 139.18 146.22 140.67 146.02 141.18 146 L 141.25 146.09 C 141.22 146.67 140.85 148.91 140.69 149.53 L 140.29 149.69 C 140.03 149.2 139.27 147.76 139.03 147.24 L 134.95 147.47 L 134.95 152.82 C 136.9 152.82 139.14 152.67 140.58 152.51 L 140.69 152.78 C 140.62 153.02 139.65 154.22 139.34 154.22 C 139.03 154.22 135.77 153.98 134.95 153.96 C 134.95 155.31 134.95 158.02 135.04 159.76 L 139.18 159.98 C 139.89 159.07 140.89 157.71 141.56 157.07 L 142 157.22 C 141.96 157.71 141.4 160.4 141.16 161 C 139.76 160.93 138.52 160.93 137.23 160.93 L 133.39 160.93 C 132.33 160.93 131.06 160.96 130 160.96 L 130.18 160.38 L 132 159.6 C 132.06 159.33 132.13 157.04 132.13 153.29 L 132.13 147.58 L 130.22 146.84 L 130.4 146.27 Z M 130.4 146.27" />
    <path fill="#404041" fill-rule="evenodd" d="M 155.85 142 L 156.1 142.09 C 155.62 144.08 154.37 145.02 152.45 145.02 C 150.68 145.02 149.64 143.99 149.64 142.88 C 149.64 142.79 149.66 142.72 149.68 142.63 C 149.87 142.41 150.77 142 151.23 142 L 151.35 142.11 C 151.41 142.81 151.95 143.6 153.15 143.6 C 154.19 143.6 154.72 142.95 154.97 142.38 L 155.85 142 Z M 145.99 147.48 L 144.28 146.72 L 144.49 146.11 C 145.48 146.11 146.47 146.15 147.49 146.15 C 148.41 146.15 149.36 146.11 150.31 146.11 L 150.1 146.76 L 148.8 147.48 L 148.8 153.53 C 148.8 155.09 148.76 156.89 148.64 158.95 L 148.8 158.95 C 150.95 154.95 153.1 151 155.25 147.03 L 155.23 146.15 L 157.4 146.15 C 158.53 146.15 159.64 146.11 160.77 146.11 L 160.56 146.74 L 158.83 147.46 L 158.83 153.26 C 158.83 156.08 158.9 159.35 158.97 159.62 L 161 160.37 L 160.84 161 C 159.78 161 158.64 160.98 157.49 160.98 C 156.45 160.98 155.41 161 154.44 161 L 154.63 160.37 L 155.92 159.62 C 156.03 158.07 156.01 156.35 156.01 153.69 C 156.01 151.97 156.06 150.17 156.2 147.96 L 155.99 147.96 C 153.84 151.97 151.69 155.99 149.52 160.01 L 149.54 160.98 L 147.37 160.98 C 146.29 160.98 145.16 161 144 161 L 144.21 160.39 L 145.85 159.62 C 145.87 159.1 145.99 156.04 145.99 153.15 L 145.99 147.48 Z M 145.99 147.48" />
    <path fill="#404041" fill-rule="evenodd" d="M 172.04 146 C 173.73 146 174.9 146.34 175.66 146.76 C 176.38 146.46 177.26 146.25 177.81 146.18 L 177.95 146.28 C 177.88 147.06 177.17 149.82 176.93 150.37 L 176.4 150.6 C 176.09 149.89 175.64 148.53 175.42 147.68 C 174.97 147.4 174.04 147.15 172.87 147.15 C 168.68 147.15 166.34 150.34 166.34 153.98 C 166.34 157.63 168.72 160.78 173.06 160.78 C 173.64 160.78 173.92 160.74 174.18 160.67 C 175.52 159.4 176.71 158.37 177.52 157.75 L 178 158.11 C 177.69 159.06 176.55 160.99 176.19 161.36 C 175.42 161.63 173.37 162 172.11 162 C 167.55 162 163 159.59 163 154.14 C 163 148.51 168.08 146 172.01 146 L 172.04 146 Z M 172.04 146" />
    <path fill="#404041" fill-rule="evenodd" d="M 182.02 147.31 L 180.3 146.58 L 180.51 146 C 181.49 146 182.48 146.02 183.49 146.02 C 184.55 146.02 185.6 146 186.68 146 L 186.5 146.6 L 184.94 147.34 L 184.94 152.9 C 186.02 152.59 186.43 152.39 186.89 151.9 C 187.99 150.67 189.4 149.03 190.66 147.25 L 190.7 146 C 191.28 146 191.88 146.02 192.45 146.02 C 193.32 146.02 194.2 146.02 195 146 L 194.82 146.62 L 192.01 147.58 C 190.73 148.92 189.03 150.81 188.11 151.94 L 188.09 152.01 C 188.34 152.41 188.68 152.85 189 153.28 C 191 155.95 193.64 159.22 194.91 160.73 L 194.66 161 C 192.43 160.98 191.28 160.51 190.22 159.38 C 189.23 158.31 187.76 156.37 186.16 154.3 C 185.7 153.68 185.4 153.57 184.94 153.68 C 184.94 156.86 185.01 159.09 185.05 159.33 L 187.08 160.09 L 186.82 160.69 C 185.74 160.69 184.64 160.67 183.47 160.67 C 182.27 160.67 181.1 160.69 180 160.69 L 180.18 160.09 L 181.88 159.33 C 181.97 159.04 182.02 156.75 182.02 153.03 L 182.02 147.31 Z M 182.02 147.31" />
    <path fill="#404041" fill-rule="evenodd" d="M 197.99 147.39 L 196.28 146.61 L 196.49 146 C 197.48 146 198.47 146.05 199.49 146.05 C 200.41 146.05 201.36 146 202.31 146 L 202.1 146.66 L 200.8 147.39 L 200.8 153.48 C 200.8 155.05 200.76 156.86 200.64 158.93 L 200.8 158.93 C 202.95 154.91 205.1 150.93 207.25 146.93 L 207.23 146.05 L 209.4 146.05 C 210.53 146.05 211.64 146 212.77 146 L 212.56 146.64 L 210.83 147.36 L 210.83 153.2 C 210.83 156.05 210.9 159.34 210.97 159.61 L 213 160.36 L 212.84 161 C 211.78 161 210.64 160.98 209.49 160.98 C 208.45 160.98 207.41 161 206.44 161 L 206.63 160.36 L 207.92 159.61 C 208.03 158.05 208.01 156.32 208.01 153.64 C 208.01 151.91 208.06 150.09 208.2 147.86 L 207.99 147.86 C 205.84 151.91 203.69 155.95 201.52 160 L 201.54 160.98 L 199.37 160.98 C 198.29 160.98 197.16 161 196 161 L 196.21 160.39 L 197.85 159.61 C 197.87 159.09 197.99 156 197.99 153.09 L 197.99 147.39 Z M 197.99 147.39" />
    <path fill="#404041" fill-rule="evenodd" d="M 227.16 142 L 227.42 142.09 C 226.92 144.13 225.64 145.1 223.68 145.1 C 221.85 145.1 220.78 144.04 220.78 142.9 C 220.78 142.81 220.81 142.74 220.83 142.65 C 221.02 142.42 221.94 142 222.42 142 L 222.54 142.12 C 222.61 142.83 223.15 143.64 224.39 143.64 C 225.45 143.64 226 142.97 226.26 142.39 L 227.16 142 Z M 217.04 147.62 L 215.28 146.83 L 215.5 146.21 C 216.52 146.21 217.54 146.26 218.58 146.26 C 219.53 146.26 220.5 146.21 221.47 146.21 L 221.26 146.88 L 219.93 147.62 L 219.93 153.82 C 219.93 155.41 219.88 157.26 219.76 159.37 L 219.93 159.37 C 222.13 155.27 224.34 151.23 226.54 147.16 L 226.52 146.26 L 228.75 146.26 C 229.91 146.26 231.05 146.21 232.21 146.21 L 232 146.86 L 230.22 147.6 L 230.22 153.54 C 230.22 156.43 230.29 159.78 230.36 160.06 L 232.45 160.82 L 232.28 161.47 C 231.19 161.47 230.03 161.45 228.84 161.45 C 227.78 161.45 226.71 161.47 225.71 161.47 L 225.9 160.82 L 227.23 160.06 C 227.35 158.47 227.33 156.71 227.33 153.98 C 227.33 152.22 227.37 150.37 227.52 148.11 L 227.3 148.11 C 225.1 152.22 222.89 156.34 220.66 160.45 L 220.69 161.45 L 218.46 161.45 C 217.35 161.45 216.18 161.47 215 161.47 L 215.21 160.85 L 216.9 160.06 C 216.92 159.53 217.04 156.38 217.04 153.42 L 217.04 147.62 Z M 217.04 147.62" />
    <path fill="#047bc0" fill-rule="evenodd" d="M 81.92 171 L 84.46 173.74 L 84.7 173.74 L 84.7 171 L 85.31 171 L 85.31 173.74 L 85.55 173.74 L 88.08 171 L 88.87 171 L 86.16 173.8 C 87.28 173.87 87.9 174.34 88.34 175.44 C 88.55 175.96 88.75 176.58 89 177 L 88.36 177 C 88.12 176.6 87.94 176.09 87.75 175.61 C 87.28 174.42 86.56 174.18 85.54 174.18 L 85.31 174.18 L 85.31 177 L 84.7 177 L 84.7 174.18 L 84.48 174.18 C 83.37 174.18 82.71 174.46 82.23 175.64 C 82.03 176.1 81.85 176.59 81.61 177 L 81 177 C 81.27 176.56 81.46 175.95 81.66 175.45 C 82.13 174.35 82.74 173.87 83.85 173.8 L 81.15 171 L 81.92 171 Z M 81.92 171" />
    <path fill="#047bc0" fill-rule="evenodd" d="M 92.63 171 L 92.63 173.96 C 92.63 174.91 92.63 175.45 92.58 176.34 L 92.6 176.35 C 93.06 175.6 93.3 175.2 93.83 174.44 L 96.3 171 L 97 171 L 97 177 L 96.37 177 L 96.37 174 C 96.37 173 96.39 172.43 96.44 171.64 L 96.41 171.64 C 95.89 172.49 95.54 173.01 95.09 173.66 C 94.35 174.65 93.51 175.86 92.68 177 L 92 177 L 92 171 L 92.63 171 Z M 92.63 171" />
    <path fill="#047bc0" fill-rule="evenodd" d="M 106 171 L 106 176.95 L 105.4 176.95 L 105.4 171.5 L 102.9 171.5 L 102.9 173.28 C 102.9 175.09 102.74 176.28 101.88 176.76 C 101.64 176.9 101.43 177 101.05 177 L 101 176.52 C 101.17 176.49 101.38 176.42 101.55 176.32 C 102.23 175.88 102.3 174.87 102.3 173.33 L 102.3 171 L 106 171 Z M 106 171" />
    <path fill="none" fill-rule="evenodd" d="M 109 177.64 L 114.5 177.64 L 114.5 171 L 109 171 L 109 177.64 L 109 177.64 Z M 109 177.64" />
    <path fill="#047bc0" fill-rule="evenodd" d="M 111.72 177.11 C 112.94 177.11 113.91 175.92 113.91 174.29 C 113.91 173.13 113.31 171.53 111.76 171.53 C 110.26 171.53 109.59 172.97 109.59 174.33 C 109.59 175.92 110.51 177.11 111.71 177.11 L 111.72 177.11 Z M 111.69 177.64 C 110.17 177.64 109 176.36 109 174.37 C 109 172.2 110.32 171 111.77 171 C 113.4 171 114.5 172.32 114.5 174.27 C 114.5 176.62 112.99 177.64 111.7 177.64 L 111.69 177.64 Z M 111.69 177.64" />
    <path fill="#047bc0" fill-rule="evenodd" d="M 120.47 169 C 120.52 169.51 120.83 169.95 121.47 169.94 C 122.16 169.94 122.46 169.51 122.53 169 L 123.12 169 C 123.06 169.89 122.41 170.35 121.46 170.35 C 120.31 170.35 119.94 169.69 119.88 169 L 120.47 169 Z M 119.63 171.3 L 119.63 174.12 C 119.63 175.02 119.63 175.53 119.58 176.37 L 119.6 176.38 C 120.06 175.67 120.3 175.29 120.83 174.57 L 123.3 171.3 L 124 171.3 L 124 177 L 123.37 177 L 123.37 174.15 C 123.37 173.2 123.39 172.66 123.44 171.91 L 123.41 171.91 C 122.89 172.71 122.54 173.21 122.09 173.83 C 121.35 174.77 120.51 175.92 119.68 177 L 119 177 L 119 171.3 L 119.63 171.3 Z M 119.63 171.3" />
    <path fill="#047bc0" fill-rule="evenodd" d="M 134.67 171 L 134.67 173.74 L 134.99 173.74 L 138.05 171 L 138.93 171 L 135.71 173.79 C 136.98 173.89 137.74 174.5 138.34 175.72 C 138.5 176.05 138.72 176.56 139 177 L 138.3 177 C 138.12 176.74 137.85 176.24 137.66 175.84 C 137.1 174.67 136.35 174.19 134.93 174.19 L 134.67 174.19 L 134.67 177 L 134 177 L 134 171 L 134.67 171 Z M 134.67 171" />
    <path fill="none" fill-rule="evenodd" d="M 141 177.64 L 146.5 177.64 L 146.5 171 L 141 171 L 141 177.64 L 141 177.64 Z M 141 177.64" />
    <path fill="#047bc0" fill-rule="evenodd" d="M 143.72 177.11 C 144.94 177.11 145.91 175.92 145.91 174.29 C 145.91 173.13 145.31 171.53 143.76 171.53 C 142.26 171.53 141.59 172.97 141.59 174.33 C 141.59 175.92 142.51 177.11 143.71 177.11 L 143.72 177.11 Z M 143.69 177.64 C 142.17 177.64 141 176.36 141 174.37 C 141 172.2 142.32 171 143.77 171 C 145.4 171 146.5 172.32 146.5 174.27 C 146.5 176.62 144.99 177.64 143.7 177.64 L 143.69 177.64 Z M 143.69 177.64" />
    <path fill="#047bc0" fill-rule="evenodd" d="M 151.52 171 L 152.28 171 L 153.78 174.49 C 153.98 174.99 154.33 175.8 154.48 176.22 L 154.49 176.22 C 154.67 175.75 155.14 174.61 155.44 173.91 L 156.72 171 L 157.51 171 L 158 177 L 157.34 177 L 157.15 173.84 C 157.11 173.11 157.05 172.41 157.01 171.66 L 156.97 171.66 C 156.84 172.05 156.57 172.7 156.17 173.6 L 154.67 177 L 154.19 177 L 152.77 173.65 C 152.54 173.1 152.21 172.21 152.03 171.66 L 151.98 171.66 C 151.96 172.34 151.91 173.11 151.87 173.86 L 151.66 177 L 151 177 L 151.52 171 Z M 151.52 171" />
    <path fill="#047bc0" fill-rule="evenodd" d="M 166 171 L 166 177 L 165.35 177 L 165.35 171.5 L 161.65 171.5 L 161.65 177 L 161 177 L 161 171 L 166 171 Z M 166 171" />
    <path fill="#047bc0" fill-rule="evenodd" d="M 175 171 L 175 176.95 L 174.4 176.95 L 174.4 171.5 L 171.9 171.5 L 171.9 173.28 C 171.9 175.09 171.74 176.28 170.88 176.76 C 170.64 176.9 170.43 177 170.05 177 L 170 176.52 C 170.17 176.49 170.38 176.42 170.55 176.32 C 171.23 175.88 171.3 174.87 171.3 173.33 L 171.3 171 L 175 171 Z M 175 171" />
    <path fill="#047bc0" fill-rule="evenodd" d="M 183.38 173.49 C 183.39 172.69 183.04 171.48 181.61 171.48 C 180.29 171.48 179.73 172.61 179.62 173.49 L 183.38 173.49 Z M 179.58 173.95 C 179.58 175.78 180.63 176.51 181.85 176.51 C 182.72 176.51 183.17 176.34 183.5 176.19 L 183.65 176.63 C 183.43 176.75 182.82 177 181.78 177 C 180.07 177 179 175.8 179 174.11 C 179 172.2 180.14 171 181.68 171 C 183.63 171 184 172.77 184 173.6 C 184 173.75 184 173.84 183.97 173.95 L 179.58 173.95 Z M 179.58 173.95" />
    <path fill="#047bc0" fill-rule="evenodd" d="M 188.67 171 L 188.67 173.74 L 188.99 173.74 L 192.05 171 L 192.93 171 L 189.71 173.79 C 190.98 173.89 191.74 174.5 192.34 175.72 C 192.5 176.05 192.72 176.56 193 177 L 192.3 177 C 192.12 176.74 191.85 176.24 191.66 175.84 C 191.1 174.67 190.35 174.19 188.92 174.19 L 188.67 174.19 L 188.67 177 L 188 177 L 188 171 L 188.67 171 Z M 188.67 171" />
    <path fill="#047bc0" fill-rule="evenodd" d="M 200.97 176.63 C 200.69 176.75 200.02 177 199.08 177 C 197.23 177 196 175.79 196 174.07 C 196 172.23 197.39 171 199.31 171 C 200.1 171 200.76 171.2 201 171.36 L 200.77 171.83 C 200.46 171.66 199.97 171.49 199.26 171.49 C 197.53 171.49 196.64 172.66 196.64 174.02 C 196.64 175.53 197.7 176.51 199.19 176.51 C 199.95 176.51 200.45 176.32 200.8 176.17 L 200.97 176.63 Z M 200.97 176.63" />
    <path fill="#8cc63e" fill-rule="evenodd" d="M 135.87 136 C 135.88 135.97 135.89 135.94 135.9 135.91 C 136.32 134.37 135.38 133.11 133.79 133.11 C 132.99 133.11 132.17 133.44 131.51 133.96 C 131.54 132.3 130.34 131.07 128.5 131.07 C 128.08 131.07 127.66 131.13 127.24 131.25 C 126.79 129.58 125.3 128.43 123.22 128.43 C 120.52 128.43 117.77 130.35 116.67 132.87 C 116.16 132.47 115.49 132.24 114.69 132.24 C 113.88 132.24 113.05 132.48 112.32 132.89 C 112.32 131.5 111.31 130.48 109.77 130.48 C 109.39 130.48 109 130.55 108.63 130.66 C 108.04 128.36 106 126.78 103.16 126.78 C 100.62 126.78 98.03 128.04 96.19 129.96 C 95.7 126.47 92.87 124 88.77 124 C 84.42 124 79.98 126.78 77.68 130.62 C 77.13 130.23 76.42 130 75.6 130 C 73.19 130 70.73 131.9 70.09 134.24 C 70.06 134.36 70.04 134.48 70.01 134.6 C 69.74 133.71 68.92 133.11 67.8 133.11 C 66.15 133.11 64.47 134.4 64 136 L 135.87 136 Z M 135.87 136" />
    <path fill="none" fill-rule="evenodd" d="M 211.65 94 L 129 94 L 129 113.49 L 211.65 113.49 L 211.65 94 L 211.65 94 Z M 211.65 94" />
    <path fill="#047bc0" fill-rule="evenodd" d="M 177.82 94 C 167.92 94 172.27 103.6 164.87 103.6 L 139.77 103.6 C 138.15 103.6 136.53 103.99 135.08 104.84 C 133.64 105.68 132.53 106.87 131.8 108.24 L 129 113.49 L 161.18 113.49 C 172.49 113.49 165.93 103.89 175.89 103.89 L 209.89 103.89 L 211.65 94 L 177.82 94 Z M 177.82 94" />
    <path fill="#047bc0" fill-rule="evenodd" d="M 161.78 119.74 L 133.27 119.74 C 123.27 119.74 128.15 110 116.79 110 L 100.59 110 C 98.67 110 96.76 110.44 95.02 111.39 C 93.28 112.34 91.92 113.68 90.95 115.25 L 88 120.04 L 122.25 120.04 C 129.53 120.04 127.14 129.6 136.36 130 L 158.09 130 C 169.45 130 162.87 120.26 172.87 120.26 L 207.24 120.26 L 209 110.22 L 174.81 110.22 C 164.86 110.22 169.22 119.74 161.78 119.74" />
    <path fill="#047bc0" fill-rule="evenodd" d="M 168.94 127.55 C 167.53 128.6 166.6 130.05 166.17 131.64 L 165 136 L 205.22 136 L 207 126 L 173.74 126 C 172.03 126 170.35 126.5 168.94 127.55" />
</svg>