<svg id="SvgjsSvg1000" xmlns="http://www.w3.org/2000/svg" version="1.1" xmlns:xlink="http://www.w3.org/1999/xlink" xmlns:svgjs="http://svgjs.com/svgjs" width="40" height="31"><defs id="SvgjsDefs1001"></defs><path id="SvgjsPath1007" d="M226.45 11003.55C224.44 11005.029999999999 222.95 11007.07 222.35999999999999 11009.15C221.69 11011.529999999999 222.23999999999998 11013.69 223.82 11015.109999999999C223.28 11016.06 222.76999999999998 11017.039999999999 222.37 11017.989999999998C222 11017.079999999998 221.51 11016.269999999999 220.95000000000002 11015.539999999997C221.74 11014.299999999997 221.85000000000002 11012.779999999997 221.23000000000002 11011.229999999998C220.65 11009.769999999999 219.47000000000003 11008.419999999998 217.91000000000003 11007.439999999997C216.23000000000002 11006.369999999997 214.25000000000003 11005.809999999998 212.19000000000003 11005.809999999998C209.54000000000002 11005.809999999998 206.83 11006.759999999998 204.34000000000003 11008.549999999997L203.00000000000003 11009.509999999997L204.59000000000003 11009.939999999997C207.22000000000003 11010.649999999996 209.32000000000002 11012.659999999996 211.17000000000004 11014.439999999997C213.06000000000003 11016.249999999996 214.85000000000005 11017.959999999997 216.92000000000004 11017.959999999997C217.94000000000005 11017.959999999997 218.91000000000005 11017.559999999998 219.88000000000005 11016.729999999998C220.82000000000005 11018.039999999997 221.48000000000005 11019.639999999998 221.48000000000005 11021.589999999998L221.48000000000005 11031.559999999998L223.06000000000006 11031.559999999998C223.06000000000006 11031.559999999998 223.07000000000005 11021.919999999998 223.07000000000005 11021.399999999998C223.07000000000005 11020.149999999998 223.81000000000006 11018.309999999998 225.13000000000005 11015.999999999998C226.10000000000005 11016.529999999999 227.02000000000004 11016.779999999999 227.91000000000005 11016.779999999999C230.82000000000005 11016.779999999999 232.71000000000006 11014.019999999999 234.71000000000006 11011.099999999999C236.49000000000007 11008.489999999998 238.52000000000007 11005.539999999999 241.53000000000006 11004.009999999998L243.00000000000006 11003.259999999998L241.49000000000007 11002.589999999998C239.11000000000007 11001.539999999999 236.73000000000008 11000.999999999998 234.43000000000006 11000.999999999998C231.48000000000008 11000.999999999998 228.72000000000006 11001.879999999997 226.45000000000007 11003.549999999997ZM212.27 11013.31C210.64000000000001 11011.74 208.83 11010.01 206.56 11008.98C208.4 11007.92 210.29 11007.38 212.19 11007.38C216 11007.38 218.89 11009.609999999999 219.76 11011.81C219.98999999999998 11012.38 220.22 11013.32 219.84 11014.269999999999C218.42000000000002 11012.839999999998 216.86 11011.859999999999 215.89000000000001 11011.249999999998C215.60000000000002 11011.069999999998 215.36 11010.919999999998 215.20000000000002 11010.809999999998L214.28000000000003 11012.079999999998C214.48000000000002 11012.229999999998 214.74000000000004 11012.389999999998 215.05000000000004 11012.579999999998C216.05000000000004 11013.209999999997 217.57000000000005 11014.159999999998 218.88000000000005 11015.519999999999C218.19000000000005 11016.109999999999 217.55000000000004 11016.39 216.92000000000004 11016.39C215.49000000000004 11016.39 214.00000000000006 11014.96 212.27000000000004 11013.31ZM227.91 11015.21C227.29999999999998 11015.21 226.65 11015.029999999999 225.93 11014.65C226.01000000000002 11014.539999999999 226.08 11014.42 226.15 11014.31C227.72 11011.85 229.31 11009.859999999999 229.32 11009.84L228.09 11008.86C227.95000000000002 11009.03 226.28 11011.130000000001 224.66 11013.720000000001C223.7 11012.7 223.42 11011.240000000002 223.89 11009.570000000002C224.38 11007.820000000002 225.66 11006.080000000002 227.39 11004.810000000001C228.77999999999997 11003.79 231.13 11002.570000000002 234.42999999999998 11002.570000000002C236.04999999999998 11002.570000000002 237.70999999999998 11002.87 239.39999999999998 11003.45C236.80999999999997 11005.240000000002 235.01999999999998 11007.86 233.39999999999998 11010.220000000001C231.56999999999996 11012.900000000001 229.98 11015.210000000001 227.90999999999997 11015.210000000001Z " fill="#687458" fill-opacity="1" transform="matrix(1,0,0,1,-203,-11001)"></path></svg>