<svg id="SvgjsSvg1018" xmlns="http://www.w3.org/2000/svg" version="1.1" xmlns:xlink="http://www.w3.org/1999/xlink" xmlns:svgjs="http://svgjs.com/svgjs" width="41" height="34"><defs id="SvgjsDefs1019"></defs><path id="SvgjsPath1020" d="M243.5 11133.66L243.5 11162.34C243.5 11163.53 242.52 11164.5 241.32 11164.5L205.68 11164.5C204.48000000000002 11164.5 203.5 11163.53 203.5 11162.34L203.5 11133.66C203.5 11132.47 204.48 11131.5 205.68 11131.5L241.32 11131.5C242.51999999999998 11131.5 243.5 11132.47 243.5 11133.66ZM205.17 11133.66L205.17 11162.34C205.17 11162.74 205.57 11163.07 206.07 11163.07L241.14 11163.07C241.64 11163.07 242.04999999999998 11162.74 242.04999999999998 11162.34L242.04999999999998 11133.66C242.04999999999998 11133.26 241.64 11132.93 241.14 11132.93L206.07 11132.93C205.57 11132.93 205.17 11133.26 205.17 11133.66Z " fill="#687458" fill-opacity="1" transform="matrix(1,0,0,1,-203,-11131)"></path><path id="SvgjsPath1021" d="M222.02513 11151.18198L227.68197999999998 11145.52513L226.97486999999998 11144.81802L221.31802 11150.47487Z " fill="#687458" fill-opacity="1" transform="matrix(1,0,0,1,-203,-11131)"></path><path id="SvgjsPath1022" d="M225.8033 11138.98959L214.48959000000002 11150.3033L215.19670000000002 11151.010409999999L226.51041000000004 11139.696699999999Z " fill="#687458" fill-opacity="1" transform="matrix(1,0,0,1,-203,-11131)"></path></svg>