<svg id="SvgjsSvg1011" xmlns="http://www.w3.org/2000/svg" version="1.1" xmlns:xlink="http://www.w3.org/1999/xlink" xmlns:svgjs="http://svgjs.com/svgjs" width="31" height="31"><defs id="SvgjsDefs1012"></defs><path id="SvgjsPath1013" d="M632.96 1232C632.95 1231.98 632.95 1231.96 632.94 1231.94C632.9100000000001 1231.8700000000001 632.87 1231.81 632.8100000000001 1231.75L629.1300000000001 1228.07L629.1300000000001 1224.46C629.1300000000001 1224.44 629.1200000000001 1224.43 629.1200000000001 1224.42C629.1100000000001 1224.3600000000001 629.1000000000001 1224.3100000000002 629.0800000000002 1224.25C629.0800000000002 1224.23 629.0700000000002 1224.21 629.0600000000002 1224.19C629.0300000000002 1224.1200000000001 628.9900000000001 1224.06 628.9400000000002 1224L623.1200000000001 1218.19C623.0700000000002 1218.13 623.0000000000001 1218.0900000000001 622.9300000000001 1218.06C622.9100000000001 1218.05 622.8900000000001 1218.05 622.8700000000001 1218.04C622.8200000000002 1218.02 622.7600000000001 1218.01 622.7000000000002 1218.01C622.6900000000002 1218.01 622.6800000000002 1218 622.6700000000002 1218L606.5200000000002 1218C606.1600000000002 1218 605.8800000000002 1218.29 605.8800000000002 1218.65L605.8800000000002 1228.0700000000002L602.1900000000002 1231.7500000000002C602.1300000000002 1231.8100000000002 602.0900000000001 1231.8700000000001 602.0600000000002 1231.9400000000003C602.0500000000002 1231.9600000000003 602.0500000000002 1231.9800000000002 602.0400000000002 1232.0000000000002C602.0200000000002 1232.0500000000002 602.0100000000002 1232.1100000000001 602.0100000000002 1232.1700000000003C602.0100000000002 1232.1800000000003 602.0000000000002 1232.1900000000003 602.0000000000002 1232.2100000000003L602.0000000000002 1244.4800000000002C602.0000000000002 1244.8400000000001 602.2900000000002 1245.1300000000003 602.6500000000002 1245.1300000000003L605.8800000000002 1245.1300000000003L605.8800000000002 1248.3500000000004C605.8800000000002 1248.7100000000003 606.1600000000002 1249.0000000000005 606.5200000000002 1249.0000000000005L628.4800000000002 1249.0000000000005C628.8400000000003 1249.0000000000005 629.1300000000002 1248.7100000000005 629.1300000000002 1248.3500000000004L629.1300000000002 1245.1300000000003L632.3500000000003 1245.1300000000003C632.7100000000003 1245.1300000000003 633.0000000000002 1244.8400000000004 633.0000000000002 1244.4800000000002L633.0000000000002 1232.2100000000003C633.0000000000002 1232.1900000000003 632.9900000000002 1232.1800000000003 632.9900000000002 1232.1700000000003C632.9900000000002 1232.1100000000004 632.9800000000002 1232.0500000000004 632.9600000000003 1232.0000000000002ZM622.02 1219.29L622.02 1224.46C622.02 1224.81 622.31 1225.1000000000001 622.67 1225.1000000000001L627.8299999999999 1225.1000000000001L627.8299999999999 1231.5600000000002L607.17 1231.5600000000002L607.17 1219.2900000000002ZM607.17 1247.71L607.17 1245.13L627.8299999999999 1245.13L627.8299999999999 1247.71ZM623.31 1223.81L623.31 1220.2L626.92 1223.81ZM629.13 1231.56L629.13 1229.8899999999999L630.8 1231.56ZM605.87 1231.56L604.2 1231.56L605.87 1229.8899999999999ZM603.29 1243.83L603.29 1232.85L631.7099999999999 1232.85L631.7099999999999 1243.83Z " fill="#000000" fill-opacity="1" transform="matrix(1,0,0,1,-602,-1218)"></path><path id="SvgjsPath1014" d="M612.92 1235.11C612.66 1235.04 612.4 1235 612.15 1235L610 1235L610 1242.77L611.3 1242.77L611.3 1239.66L612.2199999999999 1239.66C612.4899999999999 1239.66 612.7499999999999 1239.6100000000001 613.0099999999999 1239.51C613.2599999999999 1239.42 613.4899999999999 1239.27 613.6899999999998 1239.07C613.8899999999999 1238.8799999999999 614.0499999999998 1238.6299999999999 614.1699999999998 1238.33C614.2899999999998 1238.04 614.3499999999998 1237.6899999999998 614.3499999999998 1237.29C614.3499999999998 1236.86 614.2799999999997 1236.49 614.1399999999998 1236.2C614.0099999999998 1235.9 613.8399999999998 1235.67 613.6299999999998 1235.49C613.4199999999997 1235.31 613.1799999999997 1235.18 612.9199999999997 1235.11ZM612.04 1238.58L611.3 1238.58L611.3 1236.11L612.04 1236.11C612.3499999999999 1236.11 612.5999999999999 1236.1999999999998 612.8 1236.3899999999999C613 1236.58 613.0999999999999 1236.8899999999999 613.0999999999999 1237.31C613.0999999999999 1237.72 612.9999999999999 1238.04 612.8 1238.26C612.5999999999999 1238.47 612.3499999999999 1238.58 612.04 1238.58Z " fill="#000000" fill-opacity="1" transform="matrix(1,0,0,1,-602,-1218)"></path><path id="SvgjsPath1015" d="M622 1242.77L623.33 1242.77L623.33 1239.44L625.32 1239.44L625.32 1238.3L623.32 1238.3L623.32 1236.19L625.48 1236.19L625.48 1235L622 1235Z " fill="#000000" fill-opacity="1" transform="matrix(1,0,0,1,-602,-1218)"></path><path id="SvgjsPath1016" d="M616 1235L616 1242.77L617.94 1242.77C618.95 1242.77 619.71 1242.43 620.22 1241.76C620.74 1241.08 621 1240.1299999999999 621 1238.9C621 1237.67 620.74 1236.71 620.22 1236.0300000000002C619.71 1235.3400000000001 618.95 1235.0000000000002 617.95 1235.0000000000002ZM619.2 1240.94C619.0400000000001 1241.17 618.86 1241.3400000000001 618.6500000000001 1241.45C618.4300000000001 1241.56 618.2 1241.6200000000001 617.95 1241.6200000000001L617.33 1241.6200000000001L617.33 1236.15L617.95 1236.15C618.2 1236.15 618.4300000000001 1236.21 618.6500000000001 1236.3200000000002C618.8600000000001 1236.44 619.0400000000001 1236.6100000000001 619.2 1236.8300000000002C619.35 1237.0600000000002 619.47 1237.3500000000001 619.5500000000001 1237.69C619.6400000000001 1238.03 619.6800000000001 1238.44 619.6800000000001 1238.9C619.6800000000001 1239.3500000000001 619.6400000000001 1239.75 619.5500000000001 1240.0900000000001C619.47 1240.43 619.35 1240.71 619.2 1240.94Z " fill="#000000" fill-opacity="1" transform="matrix(1,0,0,1,-602,-1218)"></path></svg>