<svg id="SvgjsSvg1023" xmlns="http://www.w3.org/2000/svg" version="1.1" xmlns:xlink="http://www.w3.org/1999/xlink" xmlns:svgjs="http://svgjs.com/svgjs" width="37" height="28"><defs id="SvgjsDefs1024"></defs><path id="SvgjsPath1025" d="M1461.15 890.93L1461.15 869.9799999999999C1461.15 868.8699999999999 1460.3500000000001 867.9999999999999 1459.3000000000002 867.9999999999999L1429.7000000000003 867.9999999999999C1428.7100000000003 867.9999999999999 1427.8500000000004 868.8699999999999 1427.8500000000004 869.9799999999999L1427.8500000000004 890.93L1426.6200000000003 890.93C1426.2500000000005 890.93 1426.0000000000005 891.18 1426.0000000000005 891.55L1426.0000000000005 893.78C1426.0000000000005 894.9599999999999 1426.9300000000005 895.89 1428.1000000000004 895.89L1460.9000000000003 895.89C1462.0800000000004 895.89 1463.0000000000002 894.96 1463.0000000000002 893.78L1463.0000000000002 891.55C1463.0000000000002 891.18 1462.7500000000002 890.93 1462.3800000000003 890.93ZM1429.7 869.24L1459.3 869.24C1459.61 869.24 1459.9199999999998 869.55 1459.9199999999998 869.98L1459.9199999999998 890.9300000000001L1448.82 890.9300000000001C1448.6299999999999 890.9300000000001 1448.51 891.0000000000001 1448.3899999999999 891.1200000000001L1447.34 892.1700000000001L1441.6599999999999 892.1700000000001L1440.61 891.1200000000001C1440.49 891.0000000000001 1440.37 890.9300000000001 1440.1799999999998 890.9300000000001L1429.08 890.9300000000001L1429.08 869.98C1429.08 869.5500000000001 1429.3899999999999 869.24 1429.6999999999998 869.24ZM1460.9 894.65L1428.1000000000001 894.65C1427.6000000000001 894.65 1427.2300000000002 894.28 1427.2300000000002 893.78L1427.2300000000002 892.17L1439.9400000000003 892.17L1440.9900000000002 893.2299999999999C1441.1100000000001 893.3499999999999 1441.2300000000002 893.4099999999999 1441.4200000000003 893.4099999999999L1447.5800000000004 893.4099999999999C1447.7700000000004 893.4099999999999 1447.8900000000003 893.3499999999999 1448.0100000000004 893.2299999999999L1449.0600000000004 892.17L1461.7700000000004 892.17L1461.7700000000004 893.78C1461.7700000000004 894.28 1461.4000000000005 894.65 1460.9000000000005 894.65Z " fill="#ffffff" fill-opacity="1" transform="matrix(1,0,0,1,-1426,-868)"></path><path id="SvgjsPath1026" d="M1441.72 882.55L1441.9 882.7299999999999C1442.0300000000002 882.8599999999999 1442.15 882.92 1442.3300000000002 882.92C1442.5200000000002 882.92 1442.64 882.86 1442.7600000000002 882.7299999999999L1444.6100000000001 880.8699999999999C1444.7400000000002 880.7499999999999 1444.8000000000002 880.6199999999999 1444.8000000000002 880.4399999999999C1444.8000000000002 880.2499999999999 1444.7400000000002 880.13 1444.6100000000001 879.9999999999999L1437.8300000000002 873.1899999999999C1437.7100000000003 873.06 1437.5800000000002 872.9999999999999 1437.4 872.9999999999999C1437.21 872.9999999999999 1437.0900000000001 873.0599999999998 1436.97 873.1899999999999L1430.18 879.9999999999999C1429.94 880.2499999999999 1429.94 880.6199999999999 1430.18 880.8699999999999L1432.03 882.7299999999999C1432.16 882.8599999999999 1432.28 882.92 1432.47 882.92C1432.65 882.92 1432.77 882.86 1432.9 882.7299999999999L1433.0800000000002 882.55L1433.0800000000002 886.02C1433.0800000000002 886.39 1433.3300000000002 886.64 1433.7 886.64L1441.1000000000001 886.64C1441.47 886.64 1441.72 886.39 1441.72 886.02ZM1431.48 880.44L1437.4 874.49L1443.3200000000002 880.44L1442.3300000000002 881.4300000000001L1441.5300000000002 880.6200000000001L1437.8300000000002 876.9000000000001C1437.7700000000002 876.7800000000001 1437.65 876.7200000000001 1437.5200000000002 876.7200000000001C1437.5200000000002 876.7200000000001 1437.4600000000003 876.7200000000001 1437.4000000000003 876.7200000000001C1437.2100000000003 876.7200000000001 1437.0900000000004 876.7800000000001 1436.9700000000003 876.9000000000001L1433.2700000000002 880.6200000000001L1432.4700000000003 881.4300000000001ZM1434.32 885.4L1434.32 881.31L1437.3999999999999 878.2099999999999L1440.4799999999998 881.31L1440.4799999999998 885.4Z " fill="#ffffff" fill-opacity="1" transform="matrix(1,0,0,1,-1426,-868)"></path><path id="SvgjsPath1027" d="M1451.13 884.2C1451.17 884.2900000000001 1451.23 884.36 1451.3200000000002 884.4300000000001C1451.44 884.5400000000001 1451.5900000000001 884.58 1451.7300000000002 884.58C1451.7500000000002 884.58 1451.7700000000002 884.58 1451.8000000000002 884.57L1451.8100000000002 884.57C1451.9 884.5600000000001 1451.9900000000002 884.5200000000001 1452.0600000000002 884.46C1452.1200000000001 884.4100000000001 1452.18 884.34 1452.2300000000002 884.27L1458.3900000000003 874.97C1458.5800000000004 874.6600000000001 1458.5200000000004 874.2900000000001 1458.2100000000003 874.1C1457.9000000000003 873.9200000000001 1457.5300000000002 873.98 1457.3500000000004 874.2900000000001L1451.6400000000003 882.8900000000001L1449.0800000000004 879.8100000000001C1448.9000000000003 879.5600000000001 1448.4700000000005 879.5000000000001 1448.2200000000005 879.7500000000001C1447.9700000000005 879.9300000000001 1447.9100000000005 880.3600000000001 1448.1600000000005 880.6100000000001L1451.1300000000006 884.2000000000002Z " fill="#ffffff" fill-opacity="1" transform="matrix(1,0,0,1,-1426,-868)"></path></svg>