<svg id="SvgjsSvg1017" xmlns="http://www.w3.org/2000/svg" version="1.1" xmlns:xlink="http://www.w3.org/1999/xlink" xmlns:svgjs="http://svgjs.com/svgjs" width="33" height="36"><defs id="SvgjsDefs1018"></defs><path id="SvgjsPath1019" d="M1054.74 876.62C1055.45 875.39 1055.81 874.01 1055.81 872.62C1055.81 868.22 1052.1599999999999 864.59 1047.73 864.59C1046.67 864.59 1045.66 864.7800000000001 1044.69 865.2C1043.43 864.44 1041.95 864 1040.38 864C1035.7700000000002 864 1032 867.75 1032 872.33C1032 875.39 1033.69 878.09 1036.19 879.5300000000001L1036.19 896.4200000000001C1036.19 896.6 1036.25 896.7700000000001 1036.43 896.8900000000001L1040.02 899.8700000000001C1040.08 899.9300000000001 1040.26 899.9900000000001 1040.3799999999999 899.9900000000001C1040.4899999999998 899.9900000000001 1040.6699999999998 899.9300000000002 1040.6699999999998 899.8700000000001L1044.2599999999998 896.8900000000001C1044.4399999999998 896.7700000000001 1044.4999999999998 896.6000000000001 1044.4999999999998 896.4200000000001L1044.4999999999998 895.23C1044.4999999999998 895.0500000000001 1044.4399999999998 894.9300000000001 1044.3199999999997 894.8100000000001L1042.3499999999997 892.85L1044.0199999999998 891.1800000000001C1044.2599999999998 890.94 1044.2599999999998 890.59 1044.0199999999998 890.35L1042.3499999999997 888.6800000000001L1042.8299999999997 888.21L1052.3999999999996 897.7900000000001C1052.8799999999997 898.2 1053.4199999999996 898.44 1054.0199999999995 898.5000000000001C1054.0199999999995 898.5000000000001 1054.0699999999995 898.5000000000001 1054.1299999999994 898.5000000000001C1054.7299999999993 898.5000000000001 1055.2699999999995 898.3200000000002 1055.6299999999994 897.9000000000001L1064.2999999999995 889.2200000000001C1065.1999999999996 888.3900000000001 1065.0799999999995 886.9000000000001 1064.1899999999996 886.0100000000001ZM1054.79 897.01C1054.61 897.1899999999999 1054.37 897.25 1054.07 897.25C1053.78 897.25 1053.48 897.13 1053.24 896.89L1043.31 887.02C1042.71 886.42 1042.29 885.65 1042.1699999999998 884.8199999999999L1041.4499999999998 880.0699999999999C1041.4499999999998 880.01 1041.4499999999998 879.9499999999999 1041.4499999999998 879.8799999999999L1041.0399999999997 877.0199999999999C1041.7599999999998 878.1599999999999 1042.7499999999998 879.1399999999999 1043.9799999999998 879.8399999999999C1043.9699999999998 879.91 1043.9599999999998 879.9899999999999 1043.9599999999998 880.06C1043.9599999999998 881.3699999999999 1045.0399999999997 882.4399999999999 1046.36 882.4399999999999C1047.6699999999998 882.4399999999999 1048.75 881.3699999999999 1048.75 880.06C1048.75 878.75 1047.67 877.68 1046.36 877.68C1045.58 877.68 1044.8899999999999 878.05 1044.4499999999998 878.63C1043.1299999999999 877.8 1042.1299999999999 876.62 1041.5599999999997 875.25C1041.5699999999997 875.25 1041.5699999999997 875.24 1041.5699999999997 875.24C1041.7199999999998 875.1 1041.8899999999996 874.98 1042.0799999999997 874.88C1042.3499999999997 874.76 1042.6399999999996 874.71 1042.9499999999996 874.71C1043.0699999999995 874.71 1043.1899999999996 874.71 1043.2499999999995 874.71L1044.0099999999995 874.82L1047.6699999999996 875.4200000000001C1047.7399999999996 875.4200000000001 1047.7999999999997 875.4100000000001 1047.8599999999997 875.4000000000001L1051.1399999999996 875.9000000000001C1051.9799999999996 876.0200000000001 1052.7599999999995 876.4300000000001 1053.3599999999997 877.0300000000001L1063.3499999999997 886.9000000000001C1063.7699999999998 887.32 1063.8299999999997 888.0300000000001 1063.4699999999996 888.3900000000001ZM1040.38 865.19C1044.3200000000002 865.19 1047.5500000000002 868.4000000000001 1047.5500000000002 872.33C1047.5500000000002 872.9000000000001 1047.5000000000002 873.47 1047.3400000000001 874.0400000000001L1043.4900000000002 873.46C1042.6400000000003 873.36 1041.8300000000002 873.5300000000001 1041.1700000000003 873.95C1041.0800000000004 873.5 1041.0300000000002 873.0400000000001 1041.0300000000002 872.57C1041.0300000000002 872.45 1041.0300000000002 872.34 1041.0300000000002 872.23C1042.0300000000002 871.95 1042.7700000000002 871.03 1042.7700000000002 869.95C1042.7700000000002 868.6400000000001 1041.6900000000003 867.57 1040.38 867.57C1039.0600000000002 867.57 1037.98 868.6400000000001 1037.98 869.95C1037.98 871.0600000000001 1038.75 871.99 1039.79 872.25C1039.78 872.37 1039.78 872.49 1039.78 872.62C1039.78 873.46 1039.8999999999999 874.27 1040.1399999999999 875.05C1039.8799999999999 875.51 1039.7299999999998 876.04 1039.7299999999998 876.5999999999999C1039.7299999999998 876.8 1039.7399999999998 876.9999999999999 1039.7799999999997 877.1999999999999L1039.9999999999998 878.6199999999999L1040.1299999999999 879.4599999999999C1036.3 879.3399999999999 1033.1999999999998 876.1899999999999 1033.1999999999998 872.3299999999999C1033.1999999999998 868.4 1036.4299999999998 865.1899999999999 1040.3799999999999 865.1899999999999ZM1041.15 892.43C1040.91 892.67 1040.91 893.03 1041.15 893.26L1043.3700000000001 895.47L1043.3700000000001 896.12L1040.38 898.62L1037.38 896.12L1037.44 896.12L1037.44 880.42C1037.81 880.56 1038.19 880.68 1038.5800000000002 880.76L1038.5800000000002 895.05C1038.5800000000002 895.41 1038.8200000000002 895.64 1039.18 895.64C1039.54 895.64 1039.78 895.35 1039.78 895.05L1039.78 880.93C1039.97 880.9399999999999 1040.16 880.9499999999999 1040.36 880.9499999999999L1040.9699999999998 884.9999999999999C1040.9899999999998 885.0899999999999 1041.0099999999998 885.1899999999999 1041.0299999999997 885.2899999999998C1041.1499999999996 886.0699999999998 1041.4499999999998 886.8399999999998 1041.9299999999998 887.4999999999999L1041.1499999999999 888.2699999999999C1040.9099999999999 888.5099999999999 1040.9099999999999 888.8599999999999 1041.1499999999999 889.0999999999999L1042.83 890.7699999999999ZM1054.61 872.62C1054.61 873.71 1054.35 874.79 1053.85 875.76C1053.1399999999999 875.15 1052.28 874.8 1051.3799999999999 874.65L1048.55 874.22C1048.69 873.59 1048.75 872.96 1048.75 872.33C1048.75 869.83 1047.63 867.58 1045.87 866.0500000000001C1046.4799999999998 865.8800000000001 1047.09 865.7800000000001 1047.7299999999998 865.7800000000001C1051.4999999999998 865.7800000000001 1054.61 868.8800000000001 1054.61 872.6200000000001ZM1039.18 869.95C1039.18 869.2900000000001 1039.72 868.76 1040.38 868.76C1040.5 868.76 1040.6200000000001 868.78 1040.73 868.81C1040.38 869.52 1040.1200000000001 870.28 1039.97 871.06C1039.51 870.9 1039.18 870.4599999999999 1039.18 869.9499999999999ZM1046.36 881.25C1045.82 881.25 1045.37 880.9 1045.2199999999998 880.42C1045.86 880.65 1046.5299999999997 880.8199999999999 1047.2099999999998 880.9C1046.9899999999998 881.11 1046.6899999999998 881.25 1046.36 881.25ZM1041.22 870.79C1041.3 870.4399999999999 1041.42 870.0999999999999 1041.56 869.78C1041.57 869.8299999999999 1041.57 869.89 1041.57 869.9499999999999C1041.57 870.28 1041.4399999999998 870.5799999999999 1041.22 870.79ZM1046.36 878.87C1046.8799999999999 878.87 1047.32 879.2 1047.4799999999998 879.67C1046.8299999999997 879.5999999999999 1046.1899999999998 879.4399999999999 1045.5499999999997 879.18C1045.7699999999998 878.9899999999999 1046.0499999999997 878.87 1046.3599999999997 878.87Z " fill="#ffffff" fill-opacity="1" transform="matrix(1,0,0,1,-1032,-864)"></path><path id="SvgjsPath1020" d="M1058.01 890.18L1054.18 893.9899999999999C1053.94 894.2199999999999 1053.94 894.5799999999999 1054.18 894.8199999999999C1054.3 894.9399999999999 1054.42 894.9999999999999 1054.6000000000001 894.9999999999999C1054.7800000000002 894.9999999999999 1054.9 894.9399999999999 1055.0200000000002 894.8199999999999L1058.8500000000001 891.01C1059.0800000000002 890.77 1059.0800000000002 890.42 1058.8500000000001 890.18C1058.6100000000001 889.9399999999999 1058.2500000000002 889.9399999999999 1058.0100000000002 890.18Z " fill="#ffffff" fill-opacity="1" transform="matrix(1,0,0,1,-1032,-864)"></path><path id="SvgjsPath1021" d="M1055.53 890.18C1055.29 889.9399999999999 1054.93 889.9399999999999 1054.69 890.18L1052.18 892.68C1051.94 892.91 1051.94 893.27 1052.18 893.51C1052.3 893.63 1052.42 893.6899999999999 1052.6000000000001 893.6899999999999C1052.7800000000002 893.6899999999999 1052.9 893.63 1053.0200000000002 893.5699999999999L1055.5300000000002 891.01C1055.7700000000002 890.77 1055.7700000000002 890.42 1055.5300000000002 890.18Z " fill="#ffffff" fill-opacity="1" transform="matrix(1,0,0,1,-1032,-864)"></path><path id="SvgjsPath1022" d="M1054.85 887.18C1054.61 886.9399999999999 1054.25 886.9399999999999 1054.01 887.18L1050.18 890.9899999999999C1049.94 891.2199999999999 1049.94 891.5799999999999 1050.18 891.8199999999999C1050.3 891.9399999999999 1050.42 891.9999999999999 1050.6000000000001 891.9999999999999C1050.7800000000002 891.9999999999999 1050.9 891.9399999999999 1051.0200000000002 891.8199999999999L1054.8500000000001 888.01C1055.0900000000001 887.77 1055.0900000000001 887.42 1054.8500000000001 887.18Z " fill="#ffffff" fill-opacity="1" transform="matrix(1,0,0,1,-1032,-864)"></path></svg>